<?xml version="1.0" encoding="us-ascii" standalone="no"?><svg xmlns="http://www.w3.org/2000/svg" xmlns:xlink="http://www.w3.org/1999/xlink" contentStyleType="text/css" height="3572.5px" preserveAspectRatio="none" style="width:3000px;height:3572px;background:#FFFFFF;" version="1.1" viewBox="0 0 3000 3572" width="3000px" zoomAndPan="magnify"><defs/><g><!--cluster Controllers--><g id="cluster_Controllers"><path d="M218.575,27.5 L436.075,27.5 A9.375,9.375 0 0 1 442.325,33.75 L459.825,85.0366 L2448.575,85.0366 A6.25,6.25 0 0 1 2454.825,91.2866 L2454.825,3548.75 A6.25,6.25 0 0 1 2448.575,3555 L218.575,3555 A6.25,6.25 0 0 1 212.325,3548.75 L212.325,33.75 A6.25,6.25 0 0 1 218.575,27.5 " fill="#FFFFFF" style="stroke:#000000;stroke-width:2.5;"/><line style="stroke:#000000;stroke-width:2.5;" x1="212.325" x2="459.825" y1="85.0366" y2="85.0366"/><text fill="#000000" font-family="Verdana" font-size="35" font-weight="bold" lengthAdjust="spacing" textLength="215" x="222.325" y="67.688">Controllers</text></g><!--class MainViewController--><g id="elem_MainViewController"><rect codeLine="6" fill="#FFFFFF" height="1045.8057" id="MainViewController" rx="6.25" ry="6.25" style="stroke:#000000;stroke-width:2.5;" width="1110" x="447.325" y="117.5"/><ellipse cx="827.95" cy="152.5" fill="#FFFFFF" rx="22.5" ry="22.5" style="stroke:#000000;stroke-width:2.5;"/><path d="M834.8641,156.3281 L840.8406,158.2031 Q839.4734,163.1641 836.2703,165.5859 Q833.1063,168.0078 828.1844,168.0078 Q822.1297,168.0078 818.2234,163.8672 Q814.3563,159.7266 814.3563,152.5391 Q814.3563,144.9609 818.2625,140.7813 Q822.1688,136.5625 828.575,136.5625 Q834.1609,136.5625 837.6375,139.8438 Q839.7078,141.7969 840.7625,145.4688 L834.6688,146.9141 Q834.1219,144.5313 832.4031,143.1641 Q830.7234,141.7969 828.2625,141.7969 Q824.8641,141.7969 822.7547,144.2578 Q820.6844,146.6797 820.6844,152.1094 Q820.6844,157.8516 822.7547,160.3125 Q824.825,162.7734 828.1453,162.7734 Q830.6063,162.7734 832.3641,161.2109 Q834.1219,159.6484 834.8641,156.3281 Z " fill="#000000"/><text fill="#000000" font-family="Verdana" font-size="35" lengthAdjust="spacing" textLength="330" x="871.7" y="166.4197">MainViewController</text><line style="stroke:#000000;stroke-width:2.5;" x1="449.825" x2="1554.825" y1="187.5" y2="187.5"/><text fill="#000000" font-family="Verdana" font-size="35" lengthAdjust="spacing" textLength="820" x="492.325" y="232.688">@FXML - tablaVehiculos: TableView&lt;Vehiculo&gt;</text><text fill="#000000" font-family="Verdana" font-size="35" lengthAdjust="spacing" textLength="905" x="492.325" y="275.2246">@FXML - tipoCol, patenteCol, a&#241;oCol: TableColumn</text><text fill="#000000" font-family="Verdana" font-size="35" lengthAdjust="spacing" textLength="1020" x="492.325" y="317.7612">@FXML - combustibleCol, kmCol, estadoCol: TableColumn</text><text fill="#000000" font-family="Verdana" font-size="35" lengthAdjust="spacing" textLength="960" x="492.325" y="360.2979">@FXML - marcaCol, segundoAtributoCol: TableColumn</text><text fill="#000000" font-family="Verdana" font-size="35" lengthAdjust="spacing" textLength="977.5" x="492.325" y="402.8345">@FXML - btnAgregar, btnEliminar, btnModificar: Button</text><text fill="#000000" font-family="Verdana" font-size="35" lengthAdjust="spacing" textLength="1050" x="492.325" y="445.3711">@FXML - btnFiltrar, btnCambiarEstado, btnAceptar: Button</text><text fill="#000000" font-family="Verdana" font-size="35" lengthAdjust="spacing" textLength="967.5" x="492.325" y="487.9077">@FXML - cbFiltrarEstado: ChoiceBox&lt;EstadoVehiculo&gt;</text><text fill="#000000" font-family="Verdana" font-size="35" lengthAdjust="spacing" textLength="892.5" x="492.325" y="530.4443">@FXML - cbFiltrarTipo: ChoiceBox&lt;TipoVehiculos&gt;</text><text fill="#000000" font-family="Verdana" font-size="35" lengthAdjust="spacing" textLength="670" x="492.325" y="572.981">@FXML - cbSave: ChoiceBox&lt;String&gt;</text><text fill="#000000" font-family="Verdana" font-size="35" lengthAdjust="spacing" textLength="945" x="492.325" y="615.5176">@FXML - lblPrimerAtributo, lblSegundoAtributo: Label</text><rect fill="none" height="15" style="stroke:#000000;stroke-width:2.5;" width="15" x="467.325" y="640.3845"/><text fill="#000000" font-family="Verdana" font-size="35" lengthAdjust="spacing" textLength="682.5" x="492.325" y="658.0542">administrador: AdministradorVehiculos</text><line style="stroke:#000000;stroke-width:2.5;" x1="449.825" x2="1554.825" y1="675.4028" y2="675.4028"/><ellipse cx="474.825" cy="710.4211" fill="#FFFFFF" rx="7.5" ry="7.5" style="stroke:#000000;stroke-width:2.5;"/><text fill="#000000" font-family="Verdana" font-size="35" lengthAdjust="spacing" textLength="642.5" x="492.325" y="720.5908">initialize(URL, ResourceBundle): void</text><ellipse cx="474.825" cy="752.9578" fill="#FFFFFF" rx="7.5" ry="7.5" style="stroke:#000000;stroke-width:2.5;"/><text fill="#000000" font-family="Verdana" font-size="35" lengthAdjust="spacing" textLength="475" x="492.325" y="763.1274">agregar(ActionEvent): void</text><ellipse cx="474.825" cy="795.4944" fill="#FFFFFF" rx="7.5" ry="7.5" style="stroke:#000000;stroke-width:2.5;"/><text fill="#000000" font-family="Verdana" font-size="35" lengthAdjust="spacing" textLength="497.5" x="492.325" y="805.6641">modificar(ActionEvent): void</text><ellipse cx="474.825" cy="838.031" fill="#FFFFFF" rx="7.5" ry="7.5" style="stroke:#000000;stroke-width:2.5;"/><text fill="#000000" font-family="Verdana" font-size="35" lengthAdjust="spacing" textLength="472.5" x="492.325" y="848.2007">eliminar(ActionEvent): void</text><ellipse cx="474.825" cy="880.5676" fill="#FFFFFF" rx="7.5" ry="7.5" style="stroke:#000000;stroke-width:2.5;"/><text fill="#000000" font-family="Verdana" font-size="35" lengthAdjust="spacing" textLength="597.5" x="492.325" y="890.7373">cambiarEstado(ActionEvent): void</text><rect fill="#FFFFFF" height="15" style="stroke:#000000;stroke-width:2.5;" width="15" x="467.325" y="915.6042"/><text fill="#000000" font-family="Verdana" font-size="35" lengthAdjust="spacing" textLength="582.5" x="492.325" y="933.2739">aceptarAccion(ActionEvent): void</text><ellipse cx="474.825" cy="965.6409" fill="#FFFFFF" rx="7.5" ry="7.5" style="stroke:#000000;stroke-width:2.5;"/><text fill="#000000" font-family="Verdana" font-size="35" lengthAdjust="spacing" textLength="432.5" x="492.325" y="975.8105">filtrar(ActionEvent): void</text><ellipse cx="474.825" cy="1008.1775" fill="#FFFFFF" rx="7.5" ry="7.5" style="stroke:#000000;stroke-width:2.5;"/><text fill="#000000" font-family="Verdana" font-size="35" lengthAdjust="spacing" textLength="567.5" x="492.325" y="1018.3472">abrirView(Vehiculo, String): void</text><ellipse cx="474.825" cy="1050.7141" fill="#FFFFFF" rx="7.5" ry="7.5" style="stroke:#000000;stroke-width:2.5;"/><text fill="#000000" font-family="Verdana" font-size="35" lengthAdjust="spacing" textLength="372.5" x="492.325" y="1060.8838">refrescarVista(): void</text><ellipse cx="474.825" cy="1093.2507" fill="#FFFFFF" rx="7.5" ry="7.5" style="stroke:#000000;stroke-width:2.5;"/><text fill="#000000" font-family="Verdana" font-size="35" lengthAdjust="spacing" textLength="500" x="492.325" y="1103.4204">refrescarVistaFiltrada(): void</text><ellipse cx="474.825" cy="1135.7874" fill="#FFFFFF" rx="7.5" ry="7.5" style="stroke:#000000;stroke-width:2.5;"/><text fill="#000000" font-family="Verdana" font-size="35" lengthAdjust="spacing" textLength="805" x="492.325" y="1145.957">mostrarAlerta(AlertType, String, String): void</text></g><!--class Initializable--><g id="elem_Initializable"><rect fill="#FFFFFF" height="110" id="Initializable" rx="6.25" ry="6.25" style="stroke:#000000;stroke-width:2.5;" width="275" x="544.825" y="2465"/><ellipse cx="577.325" cy="2500" fill="#FFFFFF" rx="22.5" ry="22.5" style="stroke:#000000;stroke-width:2.5;"/><path d="M575.2156,2515 L575.2156,2484.5703 L581.3875,2484.5703 L581.3875,2515 L575.2156,2515 Z " fill="#000000"/><text fill="#000000" font-family="Verdana" font-size="35" font-style="italic" lengthAdjust="spacing" textLength="205" x="607.325" y="2513.9197">Initializable</text><line style="stroke:#000000;stroke-width:2.5;" x1="547.325" x2="817.325" y1="2535" y2="2535"/><line style="stroke:#000000;stroke-width:2.5;" x1="547.325" x2="817.325" y1="2555" y2="2555"/></g><!--class ViewFormularioController--><g id="elem_ViewFormularioController"><rect codeLine="32" fill="#FFFFFF" height="1003.269" id="ViewFormularioController" rx="6.25" ry="6.25" style="stroke:#000000;stroke-width:2.5;" width="1122.5" x="1291.075" y="1312.5"/><ellipse cx="1624.2" cy="1347.5" fill="#FFFFFF" rx="22.5" ry="22.5" style="stroke:#000000;stroke-width:2.5;"/><path d="M1631.1141,1351.3281 L1637.0906,1353.2031 Q1635.7234,1358.1641 1632.5203,1360.5859 Q1629.3562,1363.0078 1624.4344,1363.0078 Q1618.3797,1363.0078 1614.4734,1358.8672 Q1610.6062,1354.7266 1610.6062,1347.5391 Q1610.6062,1339.9609 1614.5125,1335.7813 Q1618.4187,1331.5625 1624.825,1331.5625 Q1630.4109,1331.5625 1633.8875,1334.8438 Q1635.9578,1336.7969 1637.0125,1340.4688 L1630.9187,1341.9141 Q1630.3719,1339.5313 1628.6531,1338.1641 Q1626.9734,1336.7969 1624.5125,1336.7969 Q1621.1141,1336.7969 1619.0047,1339.2578 Q1616.9344,1341.6797 1616.9344,1347.1094 Q1616.9344,1352.8516 1619.0047,1355.3125 Q1621.075,1357.7734 1624.3953,1357.7734 Q1626.8562,1357.7734 1628.6141,1356.2109 Q1630.3719,1354.6484 1631.1141,1351.3281 Z " fill="#000000"/><text fill="#000000" font-family="Verdana" font-size="35" lengthAdjust="spacing" textLength="437.5" x="1667.95" y="1361.4197">ViewFormularioController</text><line style="stroke:#000000;stroke-width:2.5;" x1="1293.575" x2="2411.075" y1="1382.5" y2="1382.5"/><text fill="#000000" font-family="Verdana" font-size="35" lengthAdjust="spacing" textLength="747.5" x="1336.075" y="1427.688">@FXML - btnAceptar, btnCancelar: Button</text><text fill="#000000" font-family="Verdana" font-size="35" lengthAdjust="spacing" textLength="1062.5" x="1336.075" y="1470.2246">@FXML - cbTipoCombustible: ChoiceBox&lt;TipoCombustible&gt;</text><text fill="#000000" font-family="Verdana" font-size="35" lengthAdjust="spacing" textLength="937.5" x="1336.075" y="1512.7612">@FXML - cbTipoVehiculo: ChoiceBox&lt;TipoVehiculos&gt;</text><text fill="#000000" font-family="Verdana" font-size="35" lengthAdjust="spacing" textLength="685" x="1336.075" y="1555.2979">@FXML - cbMarca: ChoiceBox&lt;String&gt;</text><text fill="#000000" font-family="Verdana" font-size="35" lengthAdjust="spacing" textLength="627.5" x="1336.075" y="1597.8345">@FXML - lblSegundoAtributo: Label</text><text fill="#000000" font-family="Verdana" font-size="35" lengthAdjust="spacing" textLength="795" x="1336.075" y="1640.3711">@FXML - txtPatente1, txtPatente2: TextField</text><text fill="#000000" font-family="Verdana" font-size="35" lengthAdjust="spacing" textLength="1050" x="1336.075" y="1682.9077">@FXML - txtA&#241;oFabricacion, txtSegundoAtributo: TextField</text><text fill="#000000" font-family="Verdana" font-size="35" lengthAdjust="spacing" textLength="605" x="1336.075" y="1725.4443">@FXML - txtKilometraje: TextField</text><rect fill="none" height="15" style="stroke:#000000;stroke-width:2.5;" width="15" x="1311.075" y="1750.3113"/><text fill="#000000" font-family="Verdana" font-size="35" lengthAdjust="spacing" textLength="682.5" x="1336.075" y="1767.981">administrador: AdministradorVehiculos</text><rect fill="none" height="15" style="stroke:#000000;stroke-width:2.5;" width="15" x="1311.075" y="1792.8479"/><text fill="#000000" font-family="Verdana" font-size="35" lengthAdjust="spacing" textLength="315" x="1336.075" y="1810.5176">indiceVehiculo: int</text><rect fill="none" height="15" style="stroke:#000000;stroke-width:2.5;" width="15" x="1311.075" y="1835.3845"/><text fill="#000000" font-family="Verdana" font-size="35" lengthAdjust="spacing" textLength="192.5" x="1336.075" y="1853.0542">v: Vehiculo</text><line style="stroke:#000000;stroke-width:2.5;" x1="1293.575" x2="2411.075" y1="1870.4028" y2="1870.4028"/><ellipse cx="1318.575" cy="1905.4211" fill="#FFFFFF" rx="7.5" ry="7.5" style="stroke:#000000;stroke-width:2.5;"/><text fill="#000000" font-family="Verdana" font-size="35" lengthAdjust="spacing" textLength="642.5" x="1336.075" y="1915.5908">initialize(URL, ResourceBundle): void</text><ellipse cx="1318.575" cy="1947.9578" fill="#FFFFFF" rx="7.5" ry="7.5" style="stroke:#000000;stroke-width:2.5;"/><text fill="#000000" font-family="Verdana" font-size="35" lengthAdjust="spacing" textLength="405" x="1336.075" y="1958.1274">getVehiculo(): Vehiculo</text><ellipse cx="1318.575" cy="1990.4944" fill="#FFFFFF" rx="7.5" ry="7.5" style="stroke:#000000;stroke-width:2.5;"/><text fill="#000000" font-family="Verdana" font-size="35" lengthAdjust="spacing" textLength="845" x="1336.075" y="2000.6641">setAdministrador(AdministradorVehiculos): void</text><ellipse cx="1318.575" cy="2033.031" fill="#FFFFFF" rx="7.5" ry="7.5" style="stroke:#000000;stroke-width:2.5;"/><text fill="#000000" font-family="Verdana" font-size="35" lengthAdjust="spacing" textLength="477.5" x="1336.075" y="2043.2007">setIndiceVehiculo(int): void</text><ellipse cx="1318.575" cy="2075.5676" fill="#FFFFFF" rx="7.5" ry="7.5" style="stroke:#000000;stroke-width:2.5;"/><text fill="#000000" font-family="Verdana" font-size="35" lengthAdjust="spacing" textLength="580" x="1336.075" y="2085.7373">cambiadoTipo(ActionEvent): void</text><ellipse cx="1318.575" cy="2118.1042" fill="#FFFFFF" rx="7.5" ry="7.5" style="stroke:#000000;stroke-width:2.5;"/><text fill="#000000" font-family="Verdana" font-size="35" lengthAdjust="spacing" textLength="470" x="1336.075" y="2128.2739">aceptar(ActionEvent): void</text><ellipse cx="1318.575" cy="2160.6409" fill="#FFFFFF" rx="7.5" ry="7.5" style="stroke:#000000;stroke-width:2.5;"/><text fill="#000000" font-family="Verdana" font-size="35" lengthAdjust="spacing" textLength="480" x="1336.075" y="2170.8105">cancelar(ActionEvent): void</text><ellipse cx="1318.575" cy="2203.1775" fill="#FFFFFF" rx="7.5" ry="7.5" style="stroke:#000000;stroke-width:2.5;"/><text fill="#000000" font-family="Verdana" font-size="35" lengthAdjust="spacing" textLength="475" x="1336.075" y="2213.3472">setVehiculo(Vehiculo): void</text><rect fill="#FFFFFF" height="15" style="stroke:#000000;stroke-width:2.5;" width="15" x="1311.075" y="2238.2141"/><text fill="#000000" font-family="Verdana" font-size="35" lengthAdjust="spacing" textLength="480" x="1336.075" y="2255.8838">mostrarAlerta(String): void</text><rect fill="#FFFFFF" height="15" style="stroke:#000000;stroke-width:2.5;" width="15" x="1311.075" y="2280.7507"/><text fill="#000000" font-family="Verdana" font-size="35" lengthAdjust="spacing" textLength="232.5" x="1336.075" y="2298.4204">cerrar(): void</text></g><!--class IVehiculoEditable--><g id="elem_IVehiculoEditable"><rect fill="#FFFFFF" height="110" id="IVehiculoEditable" rx="6.25" ry="6.25" style="stroke:#000000;stroke-width:2.5;" width="382.5" x="1661.075" y="2465"/><ellipse cx="1693.575" cy="2500" fill="#FFFFFF" rx="22.5" ry="22.5" style="stroke:#000000;stroke-width:2.5;"/><path d="M1691.4656,2515 L1691.4656,2484.5703 L1697.6375,2484.5703 L1697.6375,2515 L1691.4656,2515 Z " fill="#000000"/><text fill="#000000" font-family="Verdana" font-size="35" font-style="italic" lengthAdjust="spacing" textLength="312.5" x="1723.575" y="2513.9197">IVehiculoEditable</text><line style="stroke:#000000;stroke-width:2.5;" x1="1663.575" x2="2041.075" y1="2535" y2="2535"/><line style="stroke:#000000;stroke-width:2.5;" x1="1663.575" x2="2041.075" y1="2555" y2="2555"/></g><!--class ViewEstadoVehiculoController--><g id="elem_ViewEstadoVehiculoController"><rect codeLine="57" fill="#FFFFFF" height="790.5859" id="ViewEstadoVehiculoController" rx="6.25" ry="6.25" style="stroke:#000000;stroke-width:2.5;" width="1072.5" x="1316.075" y="2725"/><ellipse cx="1582.95" cy="2760" fill="#FFFFFF" rx="22.5" ry="22.5" style="stroke:#000000;stroke-width:2.5;"/><path d="M1589.8641,2763.8281 L1595.8406,2765.7031 Q1594.4734,2770.6641 1591.2703,2773.0859 Q1588.1062,2775.5078 1583.1844,2775.5078 Q1577.1297,2775.5078 1573.2234,2771.3672 Q1569.3562,2767.2266 1569.3562,2760.0391 Q1569.3562,2752.4609 1573.2625,2748.2813 Q1577.1687,2744.0625 1583.575,2744.0625 Q1589.1609,2744.0625 1592.6375,2747.3438 Q1594.7078,2749.2969 1595.7625,2752.9688 L1589.6687,2754.4141 Q1589.1219,2752.0313 1587.4031,2750.6641 Q1585.7234,2749.2969 1583.2625,2749.2969 Q1579.8641,2749.2969 1577.7547,2751.7578 Q1575.6844,2754.1797 1575.6844,2759.6094 Q1575.6844,2765.3516 1577.7547,2767.8125 Q1579.825,2770.2734 1583.1453,2770.2734 Q1585.6062,2770.2734 1587.3641,2768.7109 Q1589.1219,2767.1484 1589.8641,2763.8281 Z " fill="#000000"/><text fill="#000000" font-family="Verdana" font-size="35" lengthAdjust="spacing" textLength="520" x="1626.7" y="2773.9197">ViewEstadoVehiculoController</text><line style="stroke:#000000;stroke-width:2.5;" x1="1318.575" x2="2386.075" y1="2795" y2="2795"/><text fill="#000000" font-family="Verdana" font-size="35" lengthAdjust="spacing" textLength="1012.5" x="1361.075" y="2840.188">@FXML - cbEstadoVehiculo: ChoiceBox&lt;EstadoVehiculo&gt;</text><text fill="#000000" font-family="Verdana" font-size="35" lengthAdjust="spacing" textLength="652.5" x="1361.075" y="2882.7246">@FXML - dpFechaAlquiler: DatePicker</text><text fill="#000000" font-family="Verdana" font-size="35" lengthAdjust="spacing" textLength="1005" x="1361.075" y="2925.2612">@FXML - lblFecha, lblSegundoAtributo, lblKmExtra: Label</text><text fill="#000000" font-family="Verdana" font-size="35" lengthAdjust="spacing" textLength="1007.5" x="1361.075" y="2967.7979">@FXML - txtTipo, txtMarca, txtAnioFabricacion: TextField</text><text fill="#000000" font-family="Verdana" font-size="35" lengthAdjust="spacing" textLength="920" x="1361.075" y="3010.3345">@FXML - txtSegundoAtributo, txtPatente: TextField</text><text fill="#000000" font-family="Verdana" font-size="35" lengthAdjust="spacing" textLength="835" x="1361.075" y="3052.8711">@FXML - txtKilometraje, txtKmExtra: TextField</text><text fill="#000000" font-family="Verdana" font-size="35" lengthAdjust="spacing" textLength="747.5" x="1361.075" y="3095.4077">@FXML - btnAceptar, btnCancelar: Button</text><rect fill="none" height="15" style="stroke:#000000;stroke-width:2.5;" width="15" x="1336.075" y="3120.2747"/><text fill="#000000" font-family="Verdana" font-size="35" lengthAdjust="spacing" textLength="192.5" x="1361.075" y="3137.9443">v: Vehiculo</text><line style="stroke:#000000;stroke-width:2.5;" x1="1318.575" x2="2386.075" y1="3155.293" y2="3155.293"/><ellipse cx="1343.575" cy="3190.3113" fill="#FFFFFF" rx="7.5" ry="7.5" style="stroke:#000000;stroke-width:2.5;"/><text fill="#000000" font-family="Verdana" font-size="35" lengthAdjust="spacing" textLength="642.5" x="1361.075" y="3200.481">initialize(URL, ResourceBundle): void</text><ellipse cx="1343.575" cy="3232.8479" fill="#FFFFFF" rx="7.5" ry="7.5" style="stroke:#000000;stroke-width:2.5;"/><text fill="#000000" font-family="Verdana" font-size="35" lengthAdjust="spacing" textLength="470" x="1361.075" y="3243.0176">aceptar(ActionEvent): void</text><ellipse cx="1343.575" cy="3275.3845" fill="#FFFFFF" rx="7.5" ry="7.5" style="stroke:#000000;stroke-width:2.5;"/><text fill="#000000" font-family="Verdana" font-size="35" lengthAdjust="spacing" textLength="480" x="1361.075" y="3285.5542">cancelar(ActionEvent): void</text><ellipse cx="1343.575" cy="3317.9211" fill="#FFFFFF" rx="7.5" ry="7.5" style="stroke:#000000;stroke-width:2.5;"/><text fill="#000000" font-family="Verdana" font-size="35" lengthAdjust="spacing" textLength="652.5" x="1361.075" y="3328.0908">onAceptarKilometraje(Vehiculo): void</text><rect fill="#FFFFFF" height="15" style="stroke:#000000;stroke-width:2.5;" width="15" x="1336.075" y="3352.9578"/><text fill="#000000" font-family="Verdana" font-size="35" lengthAdjust="spacing" textLength="232.5" x="1361.075" y="3370.6274">cerrar(): void</text><ellipse cx="1343.575" cy="3402.9944" fill="#FFFFFF" rx="7.5" ry="7.5" style="stroke:#000000;stroke-width:2.5;"/><text fill="#000000" font-family="Verdana" font-size="35" lengthAdjust="spacing" textLength="475" x="1361.075" y="3413.1641">setVehiculo(Vehiculo): void</text><ellipse cx="1343.575" cy="3445.531" fill="#FFFFFF" rx="7.5" ry="7.5" style="stroke:#000000;stroke-width:2.5;"/><text fill="#000000" font-family="Verdana" font-size="35" lengthAdjust="spacing" textLength="405" x="1361.075" y="3455.7007">getVehiculo(): Vehiculo</text><rect fill="#FFFFFF" height="15" style="stroke:#000000;stroke-width:2.5;" width="15" x="1336.075" y="3480.5676"/><text fill="#000000" font-family="Verdana" font-size="35" lengthAdjust="spacing" textLength="612.5" x="1361.075" y="3498.2373">mostrarAlerta(String, String): void</text></g><!--class ViewTicketController--><g id="elem_ViewTicketController"><rect codeLine="77" fill="#FFFFFF" height="322.6831" id="ViewTicketController" rx="6.25" ry="6.25" style="stroke:#000000;stroke-width:2.5;" width="765" x="344.825" y="1652.5"/><ellipse cx="540.45" cy="1687.5" fill="#FFFFFF" rx="22.5" ry="22.5" style="stroke:#000000;stroke-width:2.5;"/><path d="M547.3641,1691.3281 L553.3406,1693.2031 Q551.9734,1698.1641 548.7703,1700.5859 Q545.6063,1703.0078 540.6844,1703.0078 Q534.6297,1703.0078 530.7234,1698.8672 Q526.8563,1694.7266 526.8563,1687.5391 Q526.8563,1679.9609 530.7625,1675.7813 Q534.6688,1671.5625 541.075,1671.5625 Q546.6609,1671.5625 550.1375,1674.8438 Q552.2078,1676.7969 553.2625,1680.4688 L547.1688,1681.9141 Q546.6219,1679.5313 544.9031,1678.1641 Q543.2234,1676.7969 540.7625,1676.7969 Q537.3641,1676.7969 535.2547,1679.2578 Q533.1844,1681.6797 533.1844,1687.1094 Q533.1844,1692.8516 535.2547,1695.3125 Q537.325,1697.7734 540.6453,1697.7734 Q543.1063,1697.7734 544.8641,1696.2109 Q546.6219,1694.6484 547.3641,1691.3281 Z " fill="#000000"/><text fill="#000000" font-family="Verdana" font-size="35" lengthAdjust="spacing" textLength="355" x="584.2" y="1701.4197">ViewTicketController</text><line style="stroke:#000000;stroke-width:2.5;" x1="347.325" x2="1107.325" y1="1722.5" y2="1722.5"/><text fill="#000000" font-family="Verdana" font-size="35" lengthAdjust="spacing" textLength="490" x="359.825" y="1767.688">@FXML - btnCerrar: Button</text><text fill="#000000" font-family="Verdana" font-size="35" lengthAdjust="spacing" textLength="735" x="359.825" y="1810.2246">@FXML - listViewTicket: ListView&lt;String&gt;</text><line style="stroke:#000000;stroke-width:2.5;" x1="347.325" x2="1107.325" y1="1827.5732" y2="1827.5732"/><ellipse cx="372.325" cy="1862.5916" fill="#FFFFFF" rx="7.5" ry="7.5" style="stroke:#000000;stroke-width:2.5;"/><text fill="#000000" font-family="Verdana" font-size="35" lengthAdjust="spacing" textLength="265" x="389.825" y="1872.7612">initialize(): void</text><ellipse cx="372.325" cy="1905.1282" fill="#FFFFFF" rx="7.5" ry="7.5" style="stroke:#000000;stroke-width:2.5;"/><text fill="#000000" font-family="Verdana" font-size="35" lengthAdjust="spacing" textLength="475" x="389.825" y="1915.2979">setVehiculo(Vehiculo): void</text><ellipse cx="372.325" cy="1947.6648" fill="#FFFFFF" rx="7.5" ry="7.5" style="stroke:#000000;stroke-width:2.5;"/><text fill="#000000" font-family="Verdana" font-size="35" lengthAdjust="spacing" textLength="442.5" x="389.825" y="1957.8345">cerrar(ActionEvent): void</text></g><!--class AdministradorVehiculos--><g id="elem_AdministradorVehiculos"><rect fill="#FFFFFF" height="110" id="AdministradorVehiculos" rx="6.25" ry="6.25" style="stroke:#000000;stroke-width:2.5;" width="482.5" x="2501.075" y="1758.75"/><ellipse cx="2533.575" cy="1793.75" fill="#FFFFFF" rx="22.5" ry="22.5" style="stroke:#000000;stroke-width:2.5;"/><path d="M2540.4891,1797.5781 L2546.4656,1799.4531 Q2545.0984,1804.4141 2541.8953,1806.8359 Q2538.7313,1809.2578 2533.8094,1809.2578 Q2527.7547,1809.2578 2523.8484,1805.1172 Q2519.9813,1800.9766 2519.9813,1793.7891 Q2519.9813,1786.2109 2523.8875,1782.0313 Q2527.7938,1777.8125 2534.2,1777.8125 Q2539.7859,1777.8125 2543.2625,1781.0938 Q2545.3328,1783.0469 2546.3875,1786.7188 L2540.2938,1788.1641 Q2539.7469,1785.7813 2538.0281,1784.4141 Q2536.3484,1783.0469 2533.8875,1783.0469 Q2530.4891,1783.0469 2528.3797,1785.5078 Q2526.3094,1787.9297 2526.3094,1793.3594 Q2526.3094,1799.1016 2528.3797,1801.5625 Q2530.45,1804.0234 2533.7703,1804.0234 Q2536.2313,1804.0234 2537.9891,1802.4609 Q2539.7469,1800.8984 2540.4891,1797.5781 Z " fill="#000000"/><text fill="#000000" font-family="Verdana" font-size="35" lengthAdjust="spacing" textLength="412.5" x="2563.575" y="1807.6697">AdministradorVehiculos</text><line style="stroke:#000000;stroke-width:2.5;" x1="2503.575" x2="2981.075" y1="1828.75" y2="1828.75"/><line style="stroke:#000000;stroke-width:2.5;" x1="2503.575" x2="2981.075" y1="1848.75" y2="1848.75"/></g><!--class Vehiculo--><g id="elem_Vehiculo"><rect fill="#FFFFFF" height="110" id="Vehiculo" rx="6.25" ry="6.25" style="stroke:#000000;stroke-width:2.5;" width="215" x="2494.825" y="3065"/><ellipse cx="2527.325" cy="3100" fill="#FFFFFF" rx="22.5" ry="22.5" style="stroke:#000000;stroke-width:2.5;"/><path d="M2534.2391,3103.8281 L2540.2156,3105.7031 Q2538.8484,3110.6641 2535.6453,3113.0859 Q2532.4813,3115.5078 2527.5594,3115.5078 Q2521.5047,3115.5078 2517.5984,3111.3672 Q2513.7313,3107.2266 2513.7313,3100.0391 Q2513.7313,3092.4609 2517.6375,3088.2813 Q2521.5438,3084.0625 2527.95,3084.0625 Q2533.5359,3084.0625 2537.0125,3087.3438 Q2539.0828,3089.2969 2540.1375,3092.9688 L2534.0438,3094.4141 Q2533.4969,3092.0313 2531.7781,3090.6641 Q2530.0984,3089.2969 2527.6375,3089.2969 Q2524.2391,3089.2969 2522.1297,3091.7578 Q2520.0594,3094.1797 2520.0594,3099.6094 Q2520.0594,3105.3516 2522.1297,3107.8125 Q2524.2,3110.2734 2527.5203,3110.2734 Q2529.9813,3110.2734 2531.7391,3108.7109 Q2533.4969,3107.1484 2534.2391,3103.8281 Z " fill="#000000"/><text fill="#000000" font-family="Verdana" font-size="35" lengthAdjust="spacing" textLength="145" x="2557.325" y="3113.9197">Vehiculo</text><line style="stroke:#000000;stroke-width:2.5;" x1="2497.325" x2="2707.325" y1="3135" y2="3135"/><line style="stroke:#000000;stroke-width:2.5;" x1="2497.325" x2="2707.325" y1="3155" y2="3155"/></g><!--reverse link Initializable to MainViewController--><g id="link_Initializable_MainViewController"><path d="M503.0496,2451.0734 C430.3996,2420.2484 389.575,2389.35 344.825,2315 C115,1933.3 169.45,1722.1 344.825,1312.5 C371.2,1250.925 406.3,1192.3 446.65,1137.225 " fill="none" id="Initializable-backto-MainViewController" style="stroke:#000000;stroke-width:2.5;stroke-dasharray:7.0,7.0;"/><polygon fill="none" points="544.475,2468.65,508.9085,2437.265,497.1907,2464.8819,544.475,2468.65" style="stroke:#000000;stroke-width:2.5;"/></g><!--link MainViewController to Initializable--><g id="link_MainViewController_Initializable"><path codeLine="88" d="M447.275,1031.925 C369.525,1115.475 301.275,1209.85 257.325,1312.5 C81.95,1722.1 27.5,1933.3 257.325,2315 C317.2,2414.45 400.6128,2456.1494 501.1878,2482.6744 " fill="none" id="MainViewController-to-Initializable" style="stroke:#000000;stroke-width:2.5;stroke-dasharray:7.0,7.0;"/><polygon fill="none" points="544.7,2494.15,505.013,2468.1703,497.3626,2497.1784,544.7,2494.15" style="stroke:#000000;stroke-width:2.5;"/></g><!--reverse link Initializable to ViewFormularioController--><g id="link_Initializable_ViewFormularioController"><path d="M862.5387,2465.8922 C970.0887,2429.1922 1076.175,2383.225 1197.325,2315 C1228.2,2297.6 1259.375,2279.15 1290.5,2259.975 " fill="none" id="Initializable-backto-ViewFormularioController" style="stroke:#000000;stroke-width:2.5;stroke-dasharray:7.0,7.0;"/><polygon fill="none" points="819.95,2480.425,867.383,2480.0884,857.6944,2451.6959,819.95,2480.425" style="stroke:#000000;stroke-width:2.5;"/></g><!--link ViewFormularioController to Initializable--><g id="link_ViewFormularioController_Initializable"><path codeLine="89" d="M1290.475,2204.475 C1230.55,2243.625 1169.625,2281.325 1109.825,2315 C1004.55,2374.3 919.9923,2410.3916 831.3173,2447.4666 " fill="none" id="ViewFormularioController-to-Initializable" style="stroke:#000000;stroke-width:2.5;stroke-dasharray:7.0,7.0;"/><polygon fill="none" points="789.8,2464.825,837.1034,2461.3057,825.5312,2433.6275,789.8,2464.825" style="stroke:#000000;stroke-width:2.5;"/></g><!--reverse link IVehiculoEditable to ViewFormularioController--><g id="link_IVehiculoEditable_ViewFormularioController"><path d="M1878.0009,2419.7305 C1883.5259,2383.1805 1880.775,2375.15 1883.225,2315.6 " fill="none" id="IVehiculoEditable-backto-ViewFormularioController" style="stroke:#000000;stroke-width:2.5;stroke-dasharray:7.0,7.0;"/><polygon fill="none" points="1871.275,2464.225,1892.8324,2421.9725,1863.1694,2417.4885,1871.275,2464.225" style="stroke:#000000;stroke-width:2.5;"/></g><!--link ViewFormularioController to IVehiculoEditable--><g id="link_ViewFormularioController_IVehiculoEditable"><path codeLine="90" d="M1823.15,2315.6 C1825.45,2375.15 1822.8318,2383.1279 1828.0568,2419.6779 " fill="none" id="ViewFormularioController-to-IVehiculoEditable" style="stroke:#000000;stroke-width:2.5;stroke-dasharray:7.0,7.0;"/><polygon fill="none" points="1834.425,2464.225,1842.9058,2417.5551,1813.2077,2421.8006,1834.425,2464.225" style="stroke:#000000;stroke-width:2.5;"/></g><!--reverse link IVehiculoEditable to ViewEstadoVehiculoController--><g id="link_IVehiculoEditable_ViewEstadoVehiculoController"><path d="M1826.5174,2619.801 C1820.9424,2656.926 1823.85,2665.825 1821.95,2724.85 " fill="none" id="IVehiculoEditable-backto-ViewEstadoVehiculoController" style="stroke:#000000;stroke-width:2.5;stroke-dasharray:7.0,7.0;"/><polygon fill="none" points="1833.2,2575.3,1811.6837,2617.5735,1841.351,2622.0286,1833.2,2575.3" style="stroke:#000000;stroke-width:2.5;"/></g><!--link ViewEstadoVehiculoController to IVehiculoEditable--><g id="link_ViewEstadoVehiculoController_IVehiculoEditable"><path codeLine="91" d="M1884.5,2724.85 C1882.45,2665.825 1885.5671,2656.8626 1879.6421,2619.7376 " fill="none" id="ViewEstadoVehiculoController-to-IVehiculoEditable" style="stroke:#000000;stroke-width:2.5;stroke-dasharray:7.0,7.0;"/><polygon fill="none" points="1872.55,2575.3,1864.8295,2622.1016,1894.4546,2617.3736,1872.55,2575.3" style="stroke:#000000;stroke-width:2.5;"/></g><!--link MainViewController to AdministradorVehiculos--><g id="link_MainViewController_AdministradorVehiculos"><path codeLine="93" d="M1558.025,807.35 C1850.4,915.175 2200.025,1079.825 2454.825,1312.5 C2596.9,1442.225 2682.7236,1644.7873 2719.0986,1744.2623 " fill="none" id="MainViewController-to-AdministradorVehiculos" style="stroke:#000000;stroke-width:2.5;"/><polygon fill="#000000" points="2724.25,1758.35,2725.9146,1733.7842,2719.9571,1746.6103,2707.1311,1740.6528,2724.25,1758.35" style="stroke:#000000;stroke-width:2.5;"/></g><!--link ViewFormularioController to AdministradorVehiculos--><g id="link_ViewFormularioController_AdministradorVehiculos"><path codeLine="94" d="M2413.775,1813.75 C2442.875,1813.75 2456.975,1813.75 2486.05,1813.75 " fill="none" id="ViewFormularioController-to-AdministradorVehiculos" style="stroke:#000000;stroke-width:2.5;"/><polygon fill="#000000" points="2501.05,1813.75,2478.55,1803.75,2488.55,1813.75,2478.55,1823.75,2501.05,1813.75" style="stroke:#000000;stroke-width:2.5;"/></g><!--link ViewFormularioController to Vehiculo--><g id="link_ViewFormularioController_Vehiculo"><path codeLine="95" d="M2212.65,2315.85 C2298.05,2445.625 2384.625,2587.625 2454.825,2725 C2514.275,2841.35 2558.4568,2973.1654 2582.1818,3050.1404 " fill="none" id="ViewFormularioController-to-Vehiculo" style="stroke:#000000;stroke-width:2.5;"/><polygon fill="#000000" points="2586.6,3064.475,2589.5291,3040.0277,2582.9182,3052.5295,2570.4164,3045.9186,2586.6,3064.475" style="stroke:#000000;stroke-width:2.5;"/></g><!--link ViewEstadoVehiculoController to Vehiculo--><g id="link_ViewEstadoVehiculoController_Vehiculo"><path codeLine="96" d="M2389.175,3120 C2424.15,3120 2444.125,3120 2479.1,3120 " fill="none" id="ViewEstadoVehiculoController-to-Vehiculo" style="stroke:#000000;stroke-width:2.5;"/><polygon fill="#000000" points="2494.1,3120,2471.6,3110,2481.6,3120,2471.6,3130,2494.1,3120" style="stroke:#000000;stroke-width:2.5;"/></g><!--link MainViewController to ViewFormularioController--><g id="link_MainViewController_ViewFormularioController"><path codeLine="98" d="M1380.725,1162.8 C1416.825,1212.45 1444.5506,1250.5703 1480.5256,1300.0203 " fill="none" id="MainViewController-to-ViewFormularioController" style="stroke:#000000;stroke-width:2.5;stroke-dasharray:7.0,7.0;"/><polygon fill="#000000" points="1489.35,1312.15,1484.1999,1288.0725,1481.9963,1302.0419,1468.0269,1299.8384,1489.35,1312.15" style="stroke:#000000;stroke-width:2.5;"/></g><!--link MainViewController to ViewEstadoVehiculoController--><g id="link_MainViewController_ViewEstadoVehiculoController"><path codeLine="99" d="M1125.625,1163.4 C1135.5,1213.625 1144.625,1263.95 1152.325,1312.5 C1222.45,1754.525 1085.375,1897.775 1247.325,2315 C1303.675,2460.175 1385.1225,2589.7467 1479.2475,2712.4967 " fill="none" id="MainViewController-to-ViewEstadoVehiculoController" style="stroke:#000000;stroke-width:2.5;stroke-dasharray:7.0,7.0;"/><polygon fill="#000000" points="1488.375,2724.4,1482.6193,2700.46,1480.7688,2714.4806,1466.7482,2712.63,1488.375,2724.4" style="stroke:#000000;stroke-width:2.5;"/></g><!--link MainViewController to ViewTicketController--><g id="link_MainViewController_ViewTicketController"><path codeLine="100" d="M879.9,1162.8 C838.2,1340.075 798.0353,1510.6987 768.1853,1637.5737 " fill="none" id="MainViewController-to-ViewTicketController" style="stroke:#000000;stroke-width:2.5;stroke-dasharray:7.0,7.0;"/><polygon fill="#000000" points="764.75,1652.175,779.6371,1632.5632,767.6127,1640.0072,760.1687,1627.9828,764.75,1652.175" style="stroke:#000000;stroke-width:2.5;"/></g><!--SRC=[jLTBRjim4Dth56msTH4vIDjDOGH65TS6WiH0aBX1jnGriQUcH9MYtFIJG_KClLY7aYNBqSTsa7eZafet7CxCUvHVcGM4m6B9CN8ImIMmqvCFJhB4AEQQXoo8aRq_FNMSc8ibdmCx6gd8Q2KbwEI8_N8O_OJaISAcvECEuVl6W64OI_8VcOHTH6YGI_p9VTeanzdVnycNwHNhCqFh_0uMA5AfaW6RMJlhxgnO7DOn6AkHaYwBkQ5D81lplt_iuje3ZT8mgY652lqqCPXRk6mPPWz830zseqEk1Sy02SpJA52UqUYdPZVIDv4trp3dshNZiSGGe_LagWAyHy7rW9sdngX6z0IbqMl0Y8S-SZtEWivMF06nwN0W_3K-nmpOQA5GmBbwECjNsdDTGcUKz2hGpikwDU5k-GggW5jALZIlMqfVNciCGHVPTEtIxNQ61-oA-o1BS9_nW5A82OKMA3gvLvsMSMti- -Nmc67Haz3xV7FbiXj8LAefIjfHmfi1MoaCAlOyBrtF4mPLD5vHpzMDmgACtMQmBdstbQYMkCkKyf3NtXE2RBgztkULx3RYlaPj2TWhikYol7HrMmtt6aW-o9uYxUqoo3ifQ38CbIsTzaWzo57scFs8eTYwAOH7fo92Dk29qc4gkKQrXnIvxA8utpX0qw9E6swjcHS9a9r4csNQLAhCKyPKNWrRq4LO1v5jQgLfJxRje5QfiW_cEjVNjsvbyewK3XxC1446JHYFT7XYcqXmsv4PjBPZfuTBb2e4QeUlq6HvCFM9xm5bPPDNZ4pbxMh0YbSl8nTpC8L3s-arvyTqVPYje7lDHwYx9k35rc5ws2uVWR9jiuFjUNVlKgEyxRkjaignYq5ThhQ9tYmirD2WhL1rqdtxvcgX_1uS5_wsfqDkno2UW5XmJtvBaROUi4z4aciKIz1DpCkCcwwtREqo73zGRZhuQEkP4IgZUpRo8gpIRGUrQjjkUBq_AJDK6MmxQb_n_0yKVC6sLiKXAXdewE-6pjsV7hkrevb0UrsFCzkMfiAJnkjkbCNVUi594gcDCshLzRnstxILxxc9MUUrfLIF3XttDRM5p5W0YTFmh-JavFTm-oF0QVriEDpsgT8udHhLWcaAkpzik-5Q8teUf6ospiYhXirP7hP-ZNNPjstOXNdQqiu_]--></g></svg>