<?xml version="1.0" encoding="us-ascii" standalone="no"?><svg xmlns="http://www.w3.org/2000/svg" xmlns:xlink="http://www.w3.org/1999/xlink" contentStyleType="text/css" height="1743.75px" preserveAspectRatio="none" style="width:5076px;height:1743px;background:#FFFFFF;" version="1.1" viewBox="0 0 5076 1743" width="5076.5625px" zoomAndPan="magnify"><defs/><g><!--cluster Interfaces--><g id="cluster_Interfaces"><path d="M2341.4063,30.9375 L2569.2188,30.9375 A10.5469,10.5469 0 0 1 2576.25,37.9688 L2595.9375,95.6662 L5049.8438,95.6662 A7.0313,7.0313 0 0 1 5056.875,102.6974 L5056.875,1171.4063 A7.0313,7.0313 0 0 1 5049.8438,1178.4375 L2341.4063,1178.4375 A7.0313,7.0313 0 0 1 2334.375,1171.4063 L2334.375,37.9688 A7.0313,7.0313 0 0 1 2341.4063,30.9375 " fill="#FFFFFF" style="stroke:#000000;stroke-width:2.8125;"/><line style="stroke:#000000;stroke-width:2.8125;" x1="2334.375" x2="2595.9375" y1="95.6662" y2="95.6662"/><text fill="#000000" font-family="Verdana" font-size="39.375" font-weight="bold" lengthAdjust="spacing" textLength="225" x="2345.625" y="76.149">Interfaces</text></g><!--cluster Gestor--><g id="cluster_Gestor"><path d="M37.9688,150.4688 L184.2188,150.4688 A10.5469,10.5469 0 0 1 191.25,157.5 L210.9375,215.1974 L1553.9063,215.1974 A7.0313,7.0313 0 0 1 1560.9375,222.2287 L1560.9375,1469.5313 A7.0313,7.0313 0 0 1 1553.9063,1476.5625 L37.9688,1476.5625 A7.0313,7.0313 0 0 1 30.9375,1469.5313 L30.9375,157.5 A7.0313,7.0313 0 0 1 37.9688,150.4688 " fill="#FFFFFF" style="stroke:#000000;stroke-width:2.8125;"/><line style="stroke:#000000;stroke-width:2.8125;" x1="30.9375" x2="210.9375" y1="215.1974" y2="215.1974"/><text fill="#000000" font-family="Verdana" font-size="39.375" font-weight="bold" lengthAdjust="spacing" textLength="143.4375" x="42.1875" y="195.6802">Gestor</text></g><!--class CRUD--><g id="elem_CRUD"><rect codeLine="6" fill="#FFFFFF" height="363.0185" id="CRUD" rx="7.0313" ry="7.0313" style="stroke:#000000;stroke-width:2.8125;" width="1192.5" x="2379.375" y="132.1875"/><ellipse cx="2891.9531" cy="171.5625" fill="#FFFFFF" rx="25.3125" ry="25.3125" style="stroke:#000000;stroke-width:2.8125;"/><path d="M2889.5801,188.4375 L2889.5801,154.2041 L2896.5234,154.2041 L2896.5234,188.4375 L2889.5801,188.4375 Z " fill="#000000"/><text fill="#000000" font-family="Verdana" font-size="39.375" font-style="italic" lengthAdjust="spacing" textLength="115.3125" x="2941.1719" y="187.2221">CRUD</text><rect fill="#FFFFFF" height="46.6425" style="stroke:#000000;stroke-width:2.8125;stroke-dasharray:2.0,2.0;" width="25.3125" x="3555" y="123.75"/><text fill="#000000" font-family="Verdana" font-size="33.75" font-style="italic" lengthAdjust="spacing" textLength="19.6875" x="3557.8125" y="160.4938">T</text><line style="stroke:#000000;stroke-width:2.8125;" x1="2382.1875" x2="3569.0625" y1="210.9375" y2="210.9375"/><line style="stroke:#000000;stroke-width:2.8125;" x1="2382.1875" x2="3569.0625" y1="233.4375" y2="233.4375"/><ellipse cx="2410.3125" cy="272.8331" fill="#FFFFFF" rx="8.4375" ry="8.4375" style="stroke:#000000;stroke-width:2.8125;"/><text fill="#000000" font-family="Verdana" font-size="39.375" lengthAdjust="spacing" textLength="323.4375" x="2430" y="284.274">agregar(T): void</text><ellipse cx="2410.3125" cy="320.6868" fill="#FFFFFF" rx="8.4375" ry="8.4375" style="stroke:#000000;stroke-width:2.8125;"/><text fill="#000000" font-family="Verdana" font-size="39.375" lengthAdjust="spacing" textLength="320.625" x="2430" y="332.1277">eliminar(T): void</text><ellipse cx="2410.3125" cy="368.5405" fill="#FFFFFF" rx="8.4375" ry="8.4375" style="stroke:#000000;stroke-width:2.8125;"/><text fill="#000000" font-family="Verdana" font-size="39.375" lengthAdjust="spacing" textLength="348.75" x="2430" y="379.9814">modificar(T): void</text><ellipse cx="2410.3125" cy="416.3942" fill="#FFFFFF" rx="8.4375" ry="8.4375" style="stroke:#000000;stroke-width:2.8125;"/><text fill="#000000" font-family="Verdana" font-size="39.375" lengthAdjust="spacing" textLength="419.0625" x="2430" y="427.8351">listarTodo(): List&lt;T&gt;</text><ellipse cx="2410.3125" cy="464.2479" fill="#FFFFFF" rx="8.4375" ry="8.4375" style="stroke:#000000;stroke-width:2.8125;"/><text fill="#000000" font-family="Verdana" font-size="39.375" lengthAdjust="spacing" textLength="1125" x="2430" y="475.6888">buscarPorTipos(TipoVehiculos, EstadoVehiculo): List&lt;T&gt;</text></g><!--class ICambiarEstado--><g id="elem_ICambiarEstado"><rect codeLine="14" fill="#FFFFFF" height="267.3111" id="ICambiarEstado" rx="7.0313" ry="7.0313" style="stroke:#000000;stroke-width:2.8125;" width="641.25" x="3670.3125" y="180"/><ellipse cx="3818.6719" cy="219.375" fill="#FFFFFF" rx="25.3125" ry="25.3125" style="stroke:#000000;stroke-width:2.8125;"/><path d="M3816.2988,236.25 L3816.2988,202.0166 L3823.2422,202.0166 L3823.2422,236.25 L3816.2988,236.25 Z " fill="#000000"/><text fill="#000000" font-family="Verdana" font-size="39.375" font-style="italic" lengthAdjust="spacing" textLength="323.4375" x="3867.8906" y="235.0346">ICambiarEstado</text><line style="stroke:#000000;stroke-width:2.8125;" x1="3673.125" x2="4308.75" y1="258.75" y2="258.75"/><line style="stroke:#000000;stroke-width:2.8125;" x1="3673.125" x2="4308.75" y1="281.25" y2="281.25"/><ellipse cx="3701.25" cy="320.6456" fill="#FFFFFF" rx="8.4375" ry="8.4375" style="stroke:#000000;stroke-width:2.8125;"/><text fill="#000000" font-family="Verdana" font-size="39.375" lengthAdjust="spacing" textLength="573.75" x="3720.9375" y="332.0865">realizarMantenimiento(): void</text><ellipse cx="3701.25" cy="368.4993" fill="#FFFFFF" rx="8.4375" ry="8.4375" style="stroke:#000000;stroke-width:2.8125;"/><text fill="#000000" font-family="Verdana" font-size="39.375" lengthAdjust="spacing" textLength="447.1875" x="3720.9375" y="379.9402">alquilarVehiculo(): void</text><ellipse cx="3701.25" cy="416.353" fill="#FFFFFF" rx="8.4375" ry="8.4375" style="stroke:#000000;stroke-width:2.8125;"/><text fill="#000000" font-family="Verdana" font-size="39.375" lengthAdjust="spacing" textLength="480.9375" x="3720.9375" y="427.7939">disponerVehiculo(): void</text></g><!--class IVehiculoEditable--><g id="elem_IVehiculoEditable"><rect codeLine="20" fill="#FFFFFF" height="219.4574" id="IVehiculoEditable" rx="7.0313" ry="7.0313" style="stroke:#000000;stroke-width:2.8125;" width="601.875" x="4410" y="203.9063"/><ellipse cx="4524.6094" cy="243.2813" fill="#FFFFFF" rx="25.3125" ry="25.3125" style="stroke:#000000;stroke-width:2.8125;"/><path d="M4522.2363,260.1563 L4522.2363,225.9229 L4529.1797,225.9229 L4529.1797,260.1563 L4522.2363,260.1563 Z " fill="#000000"/><text fill="#000000" font-family="Verdana" font-size="39.375" font-style="italic" lengthAdjust="spacing" textLength="351.5625" x="4573.8281" y="258.9409">IVehiculoEditable</text><line style="stroke:#000000;stroke-width:2.8125;" x1="4412.8125" x2="5009.0625" y1="282.6563" y2="282.6563"/><line style="stroke:#000000;stroke-width:2.8125;" x1="4412.8125" x2="5009.0625" y1="305.1563" y2="305.1563"/><ellipse cx="4440.9375" cy="344.5518" fill="#FFFFFF" rx="8.4375" ry="8.4375" style="stroke:#000000;stroke-width:2.8125;"/><text fill="#000000" font-family="Verdana" font-size="39.375" lengthAdjust="spacing" textLength="534.375" x="4460.625" y="355.9927">setVehiculo(Vehiculo): void</text><ellipse cx="4440.9375" cy="392.4055" fill="#FFFFFF" rx="8.4375" ry="8.4375" style="stroke:#000000;stroke-width:2.8125;"/><text fill="#000000" font-family="Verdana" font-size="39.375" lengthAdjust="spacing" textLength="455.625" x="4460.625" y="403.8464">getVehiculo(): Vehiculo</text></g><!--class IMapAbleJson--><g id="elem_IMapAbleJson"><rect codeLine="25" fill="#FFFFFF" height="171.6037" id="IMapAbleJson" rx="7.0313" ry="7.0313" style="stroke:#000000;stroke-width:2.8125;" width="472.5" x="2739.375" y="961.875"/><ellipse cx="2829.0938" cy="1001.25" fill="#FFFFFF" rx="25.3125" ry="25.3125" style="stroke:#000000;stroke-width:2.8125;"/><path d="M2826.7207,1018.125 L2826.7207,983.8916 L2833.6641,983.8916 L2833.6641,1018.125 L2826.7207,1018.125 Z " fill="#000000"/><text fill="#000000" font-family="Verdana" font-size="39.375" font-style="italic" lengthAdjust="spacing" textLength="275.625" x="2874.6563" y="1016.9096">IMapAbleJson</text><line style="stroke:#000000;stroke-width:2.8125;" x1="2742.1875" x2="3209.0625" y1="1040.625" y2="1040.625"/><line style="stroke:#000000;stroke-width:2.8125;" x1="2742.1875" x2="3209.0625" y1="1063.125" y2="1063.125"/><ellipse cx="2770.3125" cy="1102.5206" fill="#FFFFFF" rx="8.4375" ry="8.4375" style="stroke:#000000;stroke-width:2.8125;"/><text fill="#000000" font-family="Verdana" font-size="39.375" lengthAdjust="spacing" textLength="405" x="2790" y="1113.9615">toMap(): Map&lt;T, T&gt;</text></g><!--class ISerializableCsv--><g id="elem_ISerializableCsv"><rect codeLine="29" fill="#FFFFFF" height="171.6037" id="ISerializableCsv" rx="7.0313" ry="7.0313" style="stroke:#000000;stroke-width:2.8125;" width="390.9375" x="3311.7188" y="961.875"/><ellipse cx="3348.2813" cy="1001.25" fill="#FFFFFF" rx="25.3125" ry="25.3125" style="stroke:#000000;stroke-width:2.8125;"/><path d="M3345.9082,1018.125 L3345.9082,983.8916 L3352.8516,983.8916 L3352.8516,1018.125 L3345.9082,1018.125 Z " fill="#000000"/><text fill="#000000" font-family="Verdana" font-size="39.375" font-style="italic" lengthAdjust="spacing" textLength="312.1875" x="3382.0313" y="1016.9096">ISerializableCsv</text><line style="stroke:#000000;stroke-width:2.8125;" x1="3314.5313" x2="3699.8438" y1="1040.625" y2="1040.625"/><line style="stroke:#000000;stroke-width:2.8125;" x1="3314.5313" x2="3699.8438" y1="1063.125" y2="1063.125"/><ellipse cx="3342.6563" cy="1102.5206" fill="#FFFFFF" rx="8.4375" ry="8.4375" style="stroke:#000000;stroke-width:2.8125;"/><text fill="#000000" font-family="Verdana" font-size="39.375" lengthAdjust="spacing" textLength="300.9375" x="3362.3438" y="1113.9615">toCsv(): String</text></g><!--class AdministradorVehiculos--><g id="elem_AdministradorVehiculos"><rect codeLine="35" fill="#FFFFFF" height="768.3481" id="AdministradorVehiculos" rx="7.0313" ry="7.0313" style="stroke:#000000;stroke-width:2.8125;" width="1437.1875" x="77.3438" y="663.75"/><ellipse cx="553.3594" cy="703.125" fill="#FFFFFF" rx="25.3125" ry="25.3125" style="stroke:#000000;stroke-width:2.8125;"/><path d="M561.1377,707.4316 L567.8613,709.541 Q566.3232,715.1221 562.7197,717.8467 Q559.1602,720.5713 553.623,720.5713 Q546.8115,720.5713 542.417,715.9131 Q538.0664,711.2549 538.0664,703.1689 Q538.0664,694.6436 542.4609,689.9414 Q546.8555,685.1953 554.0625,685.1953 Q560.3467,685.1953 564.2578,688.8867 Q566.5869,691.084 567.7734,695.2148 L560.918,696.8408 Q560.3027,694.1602 558.3691,692.6221 Q556.4795,691.084 553.7109,691.084 Q549.8877,691.084 547.5146,693.8525 Q545.1855,696.5771 545.1855,702.6855 Q545.1855,709.1455 547.5146,711.9141 Q549.8438,714.6826 553.5791,714.6826 Q556.3477,714.6826 558.3252,712.9248 Q560.3027,711.167 561.1377,707.4316 Z " fill="#000000"/><text fill="#000000" font-family="Verdana" font-size="39.375" lengthAdjust="spacing" textLength="464.0625" x="602.5781" y="718.7846">AdministradorVehiculos</text><line style="stroke:#000000;stroke-width:2.8125;" x1="80.1563" x2="1511.7188" y1="742.5" y2="742.5"/><rect fill="none" height="16.875" style="stroke:#000000;stroke-width:2.8125;" width="16.875" x="99.8438" y="773.4581"/><text fill="#000000" font-family="Verdana" font-size="39.375" lengthAdjust="spacing" textLength="613.125" x="127.9688" y="793.3365">vehiculos: ArrayList&lt;Vehiculo&gt;</text><rect fill="none" height="16.875" style="stroke:#000000;stroke-width:2.8125;" width="16.875" x="99.8438" y="821.3118"/><text fill="#000000" font-family="Verdana" font-size="39.375" lengthAdjust="spacing" textLength="781.875" x="127.9688" y="841.1902">vehiculosFiltrados: ArrayList&lt;Vehiculo&gt;</text><line style="stroke:#000000;stroke-width:2.8125;" x1="80.1563" x2="1511.7188" y1="860.7074" y2="860.7074"/><ellipse cx="108.2813" cy="900.103" fill="#FFFFFF" rx="8.4375" ry="8.4375" style="stroke:#000000;stroke-width:2.8125;"/><text fill="#000000" font-family="Verdana" font-size="39.375" lengthAdjust="spacing" textLength="610.3125" x="127.9688" y="911.5439">AdministradorVehiculos(): void</text><line style="stroke:#000000;stroke-width:2.8125;" x1="80.1563" x2="1511.7188" y1="931.0611" y2="931.0611"/><ellipse cx="108.2813" cy="970.4567" fill="#FFFFFF" rx="8.4375" ry="8.4375" style="stroke:#000000;stroke-width:2.8125;"/><text fill="#000000" font-family="Verdana" font-size="39.375" lengthAdjust="spacing" textLength="461.25" x="127.9688" y="981.8976">agregar(Vehiculo): void</text><ellipse cx="108.2813" cy="1018.3104" fill="#FFFFFF" rx="8.4375" ry="8.4375" style="stroke:#000000;stroke-width:2.8125;"/><text fill="#000000" font-family="Verdana" font-size="39.375" lengthAdjust="spacing" textLength="458.4375" x="127.9688" y="1029.7513">eliminar(Vehiculo): void</text><ellipse cx="108.2813" cy="1066.1641" fill="#FFFFFF" rx="8.4375" ry="8.4375" style="stroke:#000000;stroke-width:2.8125;"/><text fill="#000000" font-family="Verdana" font-size="39.375" lengthAdjust="spacing" textLength="486.5625" x="127.9688" y="1077.605">modificar(Vehiculo): void</text><ellipse cx="108.2813" cy="1114.0178" fill="#FFFFFF" rx="8.4375" ry="8.4375" style="stroke:#000000;stroke-width:2.8125;"/><text fill="#000000" font-family="Verdana" font-size="39.375" lengthAdjust="spacing" textLength="1369.6875" x="127.9688" y="1125.4587">buscarPorTipos(TipoVehiculos, EstadoVehiculo): ArrayList&lt;Vehiculo&gt;</text><ellipse cx="108.2813" cy="1161.8715" fill="#FFFFFF" rx="8.4375" ry="8.4375" style="stroke:#000000;stroke-width:2.8125;"/><text fill="#000000" font-family="Verdana" font-size="39.375" lengthAdjust="spacing" textLength="663.75" x="127.9688" y="1173.3124">listarTodo(): ArrayList&lt;Vehiculo&gt;</text><ellipse cx="108.2813" cy="1209.7252" fill="#FFFFFF" rx="8.4375" ry="8.4375" style="stroke:#000000;stroke-width:2.8125;"/><text fill="#000000" font-family="Verdana" font-size="39.375" lengthAdjust="spacing" textLength="371.25" x="127.9688" y="1221.1661">guardarCSV():void</text><ellipse cx="108.2813" cy="1257.5789" fill="#FFFFFF" rx="8.4375" ry="8.4375" style="stroke:#000000;stroke-width:2.8125;"/><text fill="#000000" font-family="Verdana" font-size="39.375" lengthAdjust="spacing" textLength="354.375" x="127.9688" y="1269.0198">cargarCSV(): void</text><ellipse cx="108.2813" cy="1305.4326" fill="#FFFFFF" rx="8.4375" ry="8.4375" style="stroke:#000000;stroke-width:2.8125;"/><text fill="#000000" font-family="Verdana" font-size="39.375" lengthAdjust="spacing" textLength="405" x="127.9688" y="1316.8735">guardarJSON(): void</text><ellipse cx="108.2813" cy="1353.2863" fill="#FFFFFF" rx="8.4375" ry="8.4375" style="stroke:#000000;stroke-width:2.8125;"/><text fill="#000000" font-family="Verdana" font-size="39.375" lengthAdjust="spacing" textLength="374.0625" x="127.9688" y="1364.7272">cargarJSON(): void</text><ellipse cx="108.2813" cy="1401.14" fill="#FFFFFF" rx="8.4375" ry="8.4375" style="stroke:#000000;stroke-width:2.8125;"/><text fill="#000000" font-family="Verdana" font-size="39.375" lengthAdjust="spacing" textLength="675" x="127.9688" y="1412.5809">exportarListadoFiltradoTxt(): void</text></g><!--class CRUD--><g id="elem_CRUD"><rect fill="#FFFFFF" height="123.75" id="CRUD" rx="7.0313" ry="7.0313" style="stroke:#000000;stroke-width:2.8125;" width="194.0625" x="895.7813" y="251.7188"/><ellipse cx="932.3438" cy="291.0938" fill="#FFFFFF" rx="25.3125" ry="25.3125" style="stroke:#000000;stroke-width:2.8125;"/><path d="M929.9707,307.9688 L929.9707,273.7354 L936.9141,273.7354 L936.9141,307.9688 L929.9707,307.9688 Z " fill="#000000"/><text fill="#000000" font-family="Verdana" font-size="39.375" font-style="italic" lengthAdjust="spacing" textLength="115.3125" x="966.0938" y="306.7534">CRUD</text><line style="stroke:#000000;stroke-width:2.8125;" x1="898.5938" x2="1087.0313" y1="330.4688" y2="330.4688"/><line style="stroke:#000000;stroke-width:2.8125;" x1="898.5938" x2="1087.0313" y1="352.9688" y2="352.9688"/></g><!--class ICambiarEstado--><g id="elem_ICambiarEstado"><rect fill="#FFFFFF" height="123.75" id="ICambiarEstado" rx="7.0313" ry="7.0313" style="stroke:#000000;stroke-width:2.8125;" width="402.1875" x="395.1563" y="251.7188"/><ellipse cx="431.7188" cy="291.0938" fill="#FFFFFF" rx="25.3125" ry="25.3125" style="stroke:#000000;stroke-width:2.8125;"/><path d="M429.3457,307.9688 L429.3457,273.7354 L436.2891,273.7354 L436.2891,307.9688 L429.3457,307.9688 Z " fill="#000000"/><text fill="#000000" font-family="Verdana" font-size="39.375" font-style="italic" lengthAdjust="spacing" textLength="323.4375" x="465.4688" y="306.7534">ICambiarEstado</text><line style="stroke:#000000;stroke-width:2.8125;" x1="397.9688" x2="794.5313" y1="330.4688" y2="330.4688"/><line style="stroke:#000000;stroke-width:2.8125;" x1="397.9688" x2="794.5313" y1="352.9688" y2="352.9688"/></g><!--class CRUD--><g id="elem_CRUD"><rect fill="#FFFFFF" height="123.75" id="CRUD" rx="7.0313" ry="7.0313" style="stroke:#000000;stroke-width:2.8125;" width="194.0625" x="307.9688" y="1600.3125"/><ellipse cx="344.5313" cy="1639.6875" fill="#FFFFFF" rx="25.3125" ry="25.3125" style="stroke:#000000;stroke-width:2.8125;"/><path d="M352.3096,1643.9941 L359.0332,1646.1035 Q357.4951,1651.6846 353.8916,1654.4092 Q350.332,1657.1338 344.7949,1657.1338 Q337.9834,1657.1338 333.5889,1652.4756 Q329.2383,1647.8174 329.2383,1639.7314 Q329.2383,1631.2061 333.6328,1626.5039 Q338.0273,1621.7578 345.2344,1621.7578 Q351.5186,1621.7578 355.4297,1625.4492 Q357.7588,1627.6465 358.9453,1631.7773 L352.0898,1633.4033 Q351.4746,1630.7227 349.541,1629.1846 Q347.6514,1627.6465 344.8828,1627.6465 Q341.0596,1627.6465 338.6865,1630.415 Q336.3574,1633.1396 336.3574,1639.248 Q336.3574,1645.708 338.6865,1648.4766 Q341.0156,1651.2451 344.751,1651.2451 Q347.5195,1651.2451 349.4971,1649.4873 Q351.4746,1647.7295 352.3096,1643.9941 Z " fill="#000000"/><text fill="#000000" font-family="Verdana" font-size="39.375" lengthAdjust="spacing" textLength="115.3125" x="378.2813" y="1655.3471">CRUD</text><line style="stroke:#000000;stroke-width:2.8125;" x1="310.7813" x2="499.2188" y1="1679.0625" y2="1679.0625"/><line style="stroke:#000000;stroke-width:2.8125;" x1="310.7813" x2="499.2188" y1="1701.5625" y2="1701.5625"/></g><!--class ICambiarEstado--><g id="elem_ICambiarEstado"><rect fill="#FFFFFF" height="123.75" id="ICambiarEstado" rx="7.0313" ry="7.0313" style="stroke:#000000;stroke-width:2.8125;" width="390.9375" x="600.4688" y="1600.3125"/><ellipse cx="637.0313" cy="1639.6875" fill="#FFFFFF" rx="25.3125" ry="25.3125" style="stroke:#000000;stroke-width:2.8125;"/><path d="M644.8096,1643.9941 L651.5332,1646.1035 Q649.9951,1651.6846 646.3916,1654.4092 Q642.832,1657.1338 637.2949,1657.1338 Q630.4834,1657.1338 626.0889,1652.4756 Q621.7383,1647.8174 621.7383,1639.7314 Q621.7383,1631.2061 626.1328,1626.5039 Q630.5273,1621.7578 637.7344,1621.7578 Q644.0186,1621.7578 647.9297,1625.4492 Q650.2588,1627.6465 651.4453,1631.7773 L644.5898,1633.4033 Q643.9746,1630.7227 642.041,1629.1846 Q640.1514,1627.6465 637.3828,1627.6465 Q633.5596,1627.6465 631.1865,1630.415 Q628.8574,1633.1396 628.8574,1639.248 Q628.8574,1645.708 631.1865,1648.4766 Q633.5156,1651.2451 637.251,1651.2451 Q640.0195,1651.2451 641.9971,1649.4873 Q643.9746,1647.7295 644.8096,1643.9941 Z " fill="#000000"/><text fill="#000000" font-family="Verdana" font-size="39.375" lengthAdjust="spacing" textLength="312.1875" x="670.7813" y="1655.3471">ICambiarEstado</text><line style="stroke:#000000;stroke-width:2.8125;" x1="603.2813" x2="988.5938" y1="1679.0625" y2="1679.0625"/><line style="stroke:#000000;stroke-width:2.8125;" x1="603.2813" x2="988.5938" y1="1701.5625" y2="1701.5625"/></g><!--class Vehiculo--><g id="elem_Vehiculo"><rect fill="#FFFFFF" height="123.75" id="Vehiculo" rx="7.0313" ry="7.0313" style="stroke:#000000;stroke-width:2.8125;" width="241.875" x="1091.25" y="1600.3125"/><ellipse cx="1127.8125" cy="1639.6875" fill="#FFFFFF" rx="25.3125" ry="25.3125" style="stroke:#000000;stroke-width:2.8125;"/><path d="M1135.5908,1643.9941 L1142.3145,1646.1035 Q1140.7764,1651.6846 1137.1729,1654.4092 Q1133.6133,1657.1338 1128.0762,1657.1338 Q1121.2646,1657.1338 1116.8701,1652.4756 Q1112.5195,1647.8174 1112.5195,1639.7314 Q1112.5195,1631.2061 1116.9141,1626.5039 Q1121.3086,1621.7578 1128.5156,1621.7578 Q1134.7998,1621.7578 1138.7109,1625.4492 Q1141.04,1627.6465 1142.2266,1631.7773 L1135.3711,1633.4033 Q1134.7559,1630.7227 1132.8223,1629.1846 Q1130.9326,1627.6465 1128.1641,1627.6465 Q1124.3408,1627.6465 1121.9678,1630.415 Q1119.6387,1633.1396 1119.6387,1639.248 Q1119.6387,1645.708 1121.9678,1648.4766 Q1124.2969,1651.2451 1128.0322,1651.2451 Q1130.8008,1651.2451 1132.7783,1649.4873 Q1134.7559,1647.7295 1135.5908,1643.9941 Z " fill="#000000"/><text fill="#000000" font-family="Verdana" font-size="39.375" lengthAdjust="spacing" textLength="163.125" x="1161.5625" y="1655.3471">Vehiculo</text><line style="stroke:#000000;stroke-width:2.8125;" x1="1094.0625" x2="1330.3125" y1="1679.0625" y2="1679.0625"/><line style="stroke:#000000;stroke-width:2.8125;" x1="1094.0625" x2="1330.3125" y1="1701.5625" y2="1701.5625"/></g><g id="elem_GMN20"><path d="M1614.375,988.5938 L1614.375,1036.4063 L1515.0094,1047.6563 L1614.375,1058.9063 L1614.375,1105.5899 A0,0 0 0 0 1614.375,1105.5899 L2289.375,1105.5899 A0,0 0 0 0 2289.375,1105.5899 L2289.375,1016.7188 L2261.25,988.5938 L1614.375,988.5938 A0,0 0 0 0 1614.375,988.5938 " fill="#FFFFFF" style="stroke:#000000;stroke-width:2.8125;"/><path d="M2261.25,988.5938 L2261.25,1016.7188 L2289.375,1016.7188 L2261.25,988.5938 " fill="#FFFFFF" style="stroke:#000000;stroke-width:2.8125;"/><text fill="#000000" font-family="Verdana" font-size="36.5625" lengthAdjust="spacing" textLength="393.75" x="1631.25" y="1039.4151">Gestiona la colecci&#243;n</text><text fill="#000000" font-family="Verdana" font-size="36.5625" lengthAdjust="spacing" textLength="615.9375" x="1631.25" y="1083.8507">de veh&#237;culos y operaciones CRUD</text></g><!--reverse link CRUD to AdministradorVehiculos--><g id="link_CRUD_AdministradorVehiculos"><path d="M963.491,424.9035 C945.9129,489.9566 929.3906,551.0531 899.0719,663.2156 " fill="none" id="CRUD-backto-AdministradorVehiculos" style="stroke:#000000;stroke-width:2.8125;stroke-dasharray:7.0,7.0;"/><polygon fill="none" points="976.6969,376.0312,947.2003,420.5015,979.7818,429.3054,976.6969,376.0312" style="stroke:#000000;stroke-width:2.8125;"/></g><!--reverse link ICambiarEstado to AdministradorVehiculos--><g id="link_ICambiarEstado_AdministradorVehiculos"><path d="M625.9734,424.8553 C643.8047,489.9085 660.5719,551.0531 691.3125,663.2156 " fill="none" id="ICambiarEstado-backto-AdministradorVehiculos" style="stroke:#000000;stroke-width:2.8125;stroke-dasharray:7.0,7.0;"/><polygon fill="none" points="612.5906,376.0312,609.6988,429.3163,642.2481,420.3944,612.5906,376.0312" style="stroke:#000000;stroke-width:2.8125;"/></g><!--link AdministradorVehiculos to CRUD--><g id="link_AdministradorVehiculos_CRUD"><path codeLine="55" d="M551.1375,1431.7875 C508.9781,1497.4312 497.4499,1515.4232 470.3937,1557.5263 " fill="none" id="AdministradorVehiculos-to-CRUD" style="stroke:#000000;stroke-width:2.8125;stroke-dasharray:7.0,7.0;"/><polygon fill="none" points="443.025,1600.1156,484.5901,1566.6492,456.1972,1548.4035,443.025,1600.1156" style="stroke:#000000;stroke-width:2.8125;"/></g><!--link AdministradorVehiculos to ICambiarEstado--><g id="link_AdministradorVehiculos_ICambiarEstado"><path codeLine="56" d="M795.9375,1431.7875 C795.9375,1497.4312 795.9375,1507.3875 795.9375,1549.4906 " fill="none" id="AdministradorVehiculos-to-ICambiarEstado" style="stroke:#000000;stroke-width:2.8125;stroke-dasharray:7.0,7.0;"/><polygon fill="none" points="795.9375,1600.1156,812.8125,1549.4906,779.0625,1549.4906,795.9375,1600.1156" style="stroke:#000000;stroke-width:2.8125;"/></g><!--reverse link AdministradorVehiculos to Vehiculo--><g id="link_AdministradorVehiculos_Vehiculo"><path codeLine="57" d="M1075.6504,1459.6469 C1120.5379,1525.2906 1142.8875,1558.0125 1171.6875,1600.1156 " fill="none" id="AdministradorVehiculos-backto-Vehiculo" style="stroke:#000000;stroke-width:2.8125;"/><polygon fill="#000000" points="1056.6,1431.7875,1056.8387,1452.0673,1075.6504,1459.6469,1075.4117,1439.3671,1056.6,1431.7875" style="stroke:#000000;stroke-width:2.8125;"/><text fill="#000000" font-family="Verdana" font-size="36.5625" lengthAdjust="spacing" textLength="75.9375" x="1072.6998" y="1570.5873">0..*</text></g><!--SRC=[bLF1RjD04BtxAuPS22Mn8d4YgY95eQ1M551ZUk8oiJVEgEjTCxk9Mg2Vn8bFw8ynTkBKSUmWVB2JVMzctkoyUU5NAbEGQoGJk1YrWb7uDd1tP79ap2392TwCHa6GOto7gOBUfV6AbnWhruEV0SX3rGdCRhw-Euyck_FYUGsOiagH-z6hCMmi9JL8QSh8j6EPJMX9SJkeoNdao2QsB-17-ITLQ_XYBRtm5yiHvTRrY_UjMb6yrjODu4A2a_r18y5ZqEZfSeRPWf2tKGUjiK9DFv2lKTX6Ub76bueQSb5_NvD6hagsK19okJMgdNAigQ9T9EHn8LEhotBAxzFKkcnKJ6iiGQlV7GMlCPzAdIjdpK4jRmKfukLp7WsWynRdYgcyBSaoSvj64Zafaimzaqbt6HvhflkWdBTS6IxMw1nC4p6FJ8vbBFjxSq1PhiNJnhlIZeFk0GvXKqMDOSgC3wKHgbIJDk9xqcN1VqKCQ-sr2pqomK5CjJNTyzilJpVbUOUwEV-vAgUQRkxbQMwwHawGP_DRuJP4YQAqWevykusxcd_-r89k8pj0TPzR5e659cchccLqxnlh9jPx2JTAOqoob2xei5eO_fgK9Zj9EFHV5_LiE8JUA0pFUi-h61Zh5J2bAmzssMNuCHJR8K8HD49ijOfZUlfZlfb45SPz-htbFO3D5UzQsih-2m00]--></g></svg>