<?xml version="1.0" encoding="us-ascii" standalone="no"?><svg xmlns="http://www.w3.org/2000/svg" xmlns:xlink="http://www.w3.org/1999/xlink" contentStyleType="text/css" height="2837.5px" preserveAspectRatio="none" style="width:10137px;height:2837px;background:#FFFFFF;" version="1.1" viewBox="0 0 10137 2837" width="10137.5px" zoomAndPan="magnify"><defs/><g><!--cluster Models--><g id="cluster_Models"><path d="M33.75,27.5 L171.25,27.5 A9.375,9.375 0 0 1 177.5,33.75 L195,85.0366 L6191.25,85.0366 A6.25,6.25 0 0 1 6197.5,91.2866 L6197.5,2813.75 A6.25,6.25 0 0 1 6191.25,2820 L33.75,2820 A6.25,6.25 0 0 1 27.5,2813.75 L27.5,33.75 A6.25,6.25 0 0 1 33.75,27.5 " fill="#FFFFFF" style="stroke:#000000;stroke-width:2.5;"/><line style="stroke:#000000;stroke-width:2.5;" x1="27.5" x2="195" y1="85.0366" y2="85.0366"/><text fill="#000000" font-family="Verdana" font-size="35" font-weight="bold" lengthAdjust="spacing" textLength="135" x="37.5" y="67.688">Models</text></g><!--cluster Enums--><g id="cluster_Enums"><path d="M6263.75,2060 L6396.25,2060 A9.375,9.375 0 0 1 6402.5,2066.25 L6420,2117.5366 L10113.75,2117.5366 A6.25,6.25 0 0 1 10120,2123.7866 L10120,2463.75 A6.25,6.25 0 0 1 10113.75,2470 L6263.75,2470 A6.25,6.25 0 0 1 6257.5,2463.75 L6257.5,2066.25 A6.25,6.25 0 0 1 6263.75,2060 " fill="#FFFFFF" style="stroke:#000000;stroke-width:2.5;"/><line style="stroke:#000000;stroke-width:2.5;" x1="6257.5" x2="6420" y1="2117.5366" y2="2117.5366"/><text fill="#000000" font-family="Verdana" font-size="35" font-weight="bold" lengthAdjust="spacing" textLength="130" x="6267.5" y="2100.188">Enums</text></g><!--class Vehiculo--><g id="elem_Vehiculo"><rect codeLine="6" fill="#FFFFFF" height="1533.7085" id="Vehiculo" rx="6.25" ry="6.25" style="stroke:#000000;stroke-width:2.5;" width="1672.5" x="4291.25" y="117.5"/><ellipse cx="5041.875" cy="152.5" fill="#FFFFFF" rx="22.5" ry="22.5" style="stroke:#000000;stroke-width:2.5;"/><path d="M5058.6328,165 L5051.9531,165 L5049.2969,158.0859 L5037.1484,158.0859 L5034.6484,165 L5028.125,165 L5039.9609,134.5703 L5046.4844,134.5703 L5058.6328,165 Z M5047.3438,152.9688 L5043.1641,141.6797 L5039.0234,152.9688 L5047.3438,152.9688 Z " fill="#000000"/><text fill="#000000" font-family="Verdana" font-size="35" font-style="italic" lengthAdjust="spacing" textLength="152.5" x="5085.625" y="166.4197">Vehiculo</text><line style="stroke:#000000;stroke-width:2.5;" x1="4293.75" x2="5961.25" y1="187.5" y2="187.5"/><rect fill="none" height="15" style="stroke:#000000;stroke-width:2.5;" width="15" x="4311.25" y="215.0183"/><text fill="#000000" font-family="Verdana" font-size="35" lengthAdjust="spacing" textLength="270" x="4336.25" y="232.688">patente: String</text><rect fill="none" height="15" style="stroke:#000000;stroke-width:2.5;" width="15" x="4311.25" y="257.5549"/><text fill="#000000" font-family="Verdana" font-size="35" lengthAdjust="spacing" textLength="330" x="4336.25" y="275.2246">a&#241;oFabricacion: int</text><rect fill="none" height="15" style="stroke:#000000;stroke-width:2.5;" width="15" x="4311.25" y="300.0916"/><text fill="#000000" font-family="Verdana" font-size="35" lengthAdjust="spacing" textLength="335" x="4336.25" y="317.7612">tipo: TipoVehiculos</text><rect fill="none" height="15" style="stroke:#000000;stroke-width:2.5;" width="15" x="4311.25" y="342.6282"/><text fill="#000000" font-family="Verdana" font-size="35" lengthAdjust="spacing" textLength="605" x="4336.25" y="360.2979">tipoCombustible: TipoCombustible</text><rect fill="none" height="15" style="stroke:#000000;stroke-width:2.5;" width="15" x="4311.25" y="385.1648"/><text fill="#000000" font-family="Verdana" font-size="35" lengthAdjust="spacing" textLength="287.5" x="4336.25" y="402.8345">kilometros: float</text><rect fill="none" height="15" style="stroke:#000000;stroke-width:2.5;" width="15" x="4311.25" y="427.7014"/><text fill="#000000" font-family="Verdana" font-size="35" lengthAdjust="spacing" textLength="560" x="4336.25" y="445.3711">estadoVehiculo: EstadoVehiculo</text><rect fill="none" height="15" style="stroke:#000000;stroke-width:2.5;" width="15" x="4311.25" y="470.238"/><text fill="#000000" font-family="Verdana" font-size="35" lengthAdjust="spacing" textLength="417.5" x="4336.25" y="487.9077">fechaAlquiler: LocalDate</text><line style="stroke:#000000;stroke-width:2.5;" x1="4293.75" x2="5961.25" y1="505.2563" y2="505.2563"/><ellipse cx="4318.75" cy="540.2747" fill="#FFFFFF" rx="7.5" ry="7.5" style="stroke:#000000;stroke-width:2.5;"/><text fill="#000000" font-family="Verdana" font-size="35" lengthAdjust="spacing" textLength="640" x="4336.25" y="550.4443">Vehiculo(Map&lt;String, String&gt;): void</text><ellipse cx="4318.75" cy="582.8113" fill="#FFFFFF" rx="7.5" ry="7.5" style="stroke:#000000;stroke-width:2.5;"/><text fill="#000000" font-family="Verdana" font-size="35" lengthAdjust="spacing" textLength="1612.5" x="4336.25" y="592.981">Vehiculo(TipoVehiculos, String, int, TipoCombustible, float, EstadoVehiculo, LocalDate):void</text><ellipse cx="4318.75" cy="625.3479" fill="#FFFFFF" rx="7.5" ry="7.5" style="stroke:#000000;stroke-width:2.5;"/><text fill="#000000" font-family="Verdana" font-size="35" lengthAdjust="spacing" textLength="1430" x="4336.25" y="635.5176">Vehiculo(TipoVehiculos, String, int, TipoCombustible, float, EstadoVehiculo): void</text><line style="stroke:#000000;stroke-width:2.5;" x1="4293.75" x2="5961.25" y1="652.8662" y2="652.8662"/><ellipse cx="4318.75" cy="687.8845" fill="#FFFFFF" rx="7.5" ry="7.5" style="stroke:#000000;stroke-width:2.5;"/><text fill="#000000" font-family="Verdana" font-size="35" lengthAdjust="spacing" textLength="355" x="4336.25" y="698.0542">getPatente(): String</text><ellipse cx="4318.75" cy="730.4211" fill="#FFFFFF" rx="7.5" ry="7.5" style="stroke:#000000;stroke-width:2.5;"/><text fill="#000000" font-family="Verdana" font-size="35" lengthAdjust="spacing" textLength="425" x="4336.25" y="740.5908">setPatente(String): void</text><ellipse cx="4318.75" cy="772.9578" fill="#FFFFFF" rx="7.5" ry="7.5" style="stroke:#000000;stroke-width:2.5;"/><text fill="#000000" font-family="Verdana" font-size="35" lengthAdjust="spacing" textLength="422.5" x="4336.25" y="783.1274">getA&#241;oFabricacion(): int</text><ellipse cx="4318.75" cy="815.4944" fill="#FFFFFF" rx="7.5" ry="7.5" style="stroke:#000000;stroke-width:2.5;"/><text fill="#000000" font-family="Verdana" font-size="35" lengthAdjust="spacing" textLength="492.5" x="4336.25" y="825.6641">setA&#241;oFabricacion(int): void</text><ellipse cx="4318.75" cy="858.031" fill="#FFFFFF" rx="7.5" ry="7.5" style="stroke:#000000;stroke-width:2.5;"/><text fill="#000000" font-family="Verdana" font-size="35" lengthAdjust="spacing" textLength="430" x="4336.25" y="868.2007">getTipo(): TipoVehiculos</text><ellipse cx="4318.75" cy="900.5676" fill="#FFFFFF" rx="7.5" ry="7.5" style="stroke:#000000;stroke-width:2.5;"/><text fill="#000000" font-family="Verdana" font-size="35" lengthAdjust="spacing" textLength="500" x="4336.25" y="910.7373">setTipo(TipoVehiculos): void</text><ellipse cx="4318.75" cy="943.1042" fill="#FFFFFF" rx="7.5" ry="7.5" style="stroke:#000000;stroke-width:2.5;"/><text fill="#000000" font-family="Verdana" font-size="35" lengthAdjust="spacing" textLength="700" x="4336.25" y="953.2739">getTipoCombustible(): TipoCombustible</text><ellipse cx="4318.75" cy="985.6409" fill="#FFFFFF" rx="7.5" ry="7.5" style="stroke:#000000;stroke-width:2.5;"/><text fill="#000000" font-family="Verdana" font-size="35" lengthAdjust="spacing" textLength="770" x="4336.25" y="995.8105">setTipoCombustible(TipoCombustible): void</text><ellipse cx="4318.75" cy="1028.1775" fill="#FFFFFF" rx="7.5" ry="7.5" style="stroke:#000000;stroke-width:2.5;"/><text fill="#000000" font-family="Verdana" font-size="35" lengthAdjust="spacing" textLength="380" x="4336.25" y="1038.3472">getKilometros(): float</text><ellipse cx="4318.75" cy="1070.7141" fill="#FFFFFF" rx="7.5" ry="7.5" style="stroke:#000000;stroke-width:2.5;"/><text fill="#000000" font-family="Verdana" font-size="35" lengthAdjust="spacing" textLength="450" x="4336.25" y="1080.8838">setKilometros(float): void</text><ellipse cx="4318.75" cy="1113.2507" fill="#FFFFFF" rx="7.5" ry="7.5" style="stroke:#000000;stroke-width:2.5;"/><text fill="#000000" font-family="Verdana" font-size="35" lengthAdjust="spacing" textLength="650" x="4336.25" y="1123.4204">getEstadoVehiculo(): EstadoVehiculo</text><ellipse cx="4318.75" cy="1155.7874" fill="#FFFFFF" rx="7.5" ry="7.5" style="stroke:#000000;stroke-width:2.5;"/><text fill="#000000" font-family="Verdana" font-size="35" lengthAdjust="spacing" textLength="720" x="4336.25" y="1165.957">setEstadoVehiculo(EstadoVehiculo): void</text><ellipse cx="4318.75" cy="1198.324" fill="#FFFFFF" rx="7.5" ry="7.5" style="stroke:#000000;stroke-width:2.5;"/><text fill="#000000" font-family="Verdana" font-size="35" lengthAdjust="spacing" textLength="512.5" x="4336.25" y="1208.4937">getFechaAlquiler(): LocalDate</text><ellipse cx="4318.75" cy="1240.8606" fill="#FFFFFF" rx="7.5" ry="7.5" style="stroke:#000000;stroke-width:2.5;"/><text fill="#000000" font-family="Verdana" font-size="35" lengthAdjust="spacing" textLength="582.5" x="4336.25" y="1251.0303">setFechaAlquiler(LocalDate): void</text><ellipse cx="4318.75" cy="1283.3972" fill="#FFFFFF" rx="7.5" ry="7.5" style="stroke:#000000;stroke-width:2.5;"/><text fill="#000000" font-family="Verdana" font-size="35" lengthAdjust="spacing" textLength="612.5" x="4336.25" y="1293.5669">obtenerHorasUso(LocalDate): float</text><ellipse cx="4318.75" cy="1325.9338" fill="#FFFFFF" rx="7.5" ry="7.5" style="stroke:#000000;stroke-width:2.5;"/><text fill="#000000" font-family="Verdana" font-size="35" lengthAdjust="spacing" textLength="425" x="4336.25" y="1336.1035">registrarUso(float): void</text><ellipse cx="4318.75" cy="1368.4705" fill="#FFFFFF" rx="7.5" ry="7.5" style="stroke:#000000;stroke-width:2.5;"/><text fill="#000000" font-family="Verdana" font-size="35" lengthAdjust="spacing" textLength="442.5" x="4336.25" y="1378.6401">compareTo(Vehiculo): int</text><ellipse cx="4318.75" cy="1411.0071" fill="#FFFFFF" rx="7.5" ry="7.5" style="stroke:#000000;stroke-width:2.5;"/><text fill="#000000" font-family="Verdana" font-size="35" lengthAdjust="spacing" textLength="422.5" x="4336.25" y="1421.1768">equals(Object): boolean</text><ellipse cx="4318.75" cy="1453.5437" fill="#FFFFFF" rx="7.5" ry="7.5" style="stroke:#000000;stroke-width:2.5;"/><text fill="#000000" font-family="Verdana" font-size="35" lengthAdjust="spacing" textLength="277.5" x="4336.25" y="1463.7134">hashCode(): int</text><ellipse cx="4318.75" cy="1496.0803" fill="#FFFFFF" rx="7.5" ry="7.5" style="stroke:#000000;stroke-width:2.5;"/><text fill="#000000" font-family="Verdana" font-size="35" lengthAdjust="spacing" textLength="310" x="4336.25" y="1506.25">toString(): String</text><ellipse cx="4318.75" cy="1538.6169" fill="#FFFFFF" rx="7.5" ry="7.5" style="stroke:#000000;stroke-width:2.5;"/><text fill="#000000" font-family="Verdana" font-size="35" lengthAdjust="spacing" textLength="530" x="4336.25" y="1548.7866">toMap(): Map&lt;String, String&gt;</text><ellipse cx="4318.75" cy="1581.1536" fill="#FFFFFF" rx="7.5" ry="7.5" style="stroke:#000000;stroke-width:2.5;"/><text fill="#000000" font-family="Verdana" font-size="35" font-style="italic" lengthAdjust="spacing" textLength="265" x="4336.25" y="1591.3232">toCsv(): String</text><ellipse cx="4318.75" cy="1623.6902" fill="#FFFFFF" rx="7.5" ry="7.5" style="stroke:#000000;stroke-width:2.5;"/><text fill="#000000" font-family="Verdana" font-size="35" lengthAdjust="spacing" text-decoration="underline" textLength="457.5" x="4336.25" y="1633.8599">fromCsv(String): Vehiculo</text></g><!--class Auto--><g id="elem_Auto"><rect codeLine="44" fill="#FFFFFF" height="980.7324" id="Auto" rx="6.25" ry="6.25" style="stroke:#000000;stroke-width:2.5;" width="1925" x="67.5" y="1800"/><ellipse cx="978.125" cy="1835" fill="#FFFFFF" rx="22.5" ry="22.5" style="stroke:#000000;stroke-width:2.5;"/><path d="M985.0391,1838.8281 L991.0156,1840.7031 Q989.6484,1845.6641 986.4453,1848.0859 Q983.2813,1850.5078 978.3594,1850.5078 Q972.3047,1850.5078 968.3984,1846.3672 Q964.5313,1842.2266 964.5313,1835.0391 Q964.5313,1827.4609 968.4375,1823.2813 Q972.3438,1819.0625 978.75,1819.0625 Q984.3359,1819.0625 987.8125,1822.3438 Q989.8828,1824.2969 990.9375,1827.9688 L984.8438,1829.4141 Q984.2969,1827.0313 982.5781,1825.6641 Q980.8984,1824.2969 978.4375,1824.2969 Q975.0391,1824.2969 972.9297,1826.7578 Q970.8594,1829.1797 970.8594,1834.6094 Q970.8594,1840.3516 972.9297,1842.8125 Q975,1845.2734 978.3203,1845.2734 Q980.7813,1845.2734 982.5391,1843.7109 Q984.2969,1842.1484 985.0391,1838.8281 Z " fill="#000000"/><text fill="#000000" font-family="Verdana" font-size="35" lengthAdjust="spacing" textLength="85" x="1021.875" y="1848.9197">Auto</text><line style="stroke:#000000;stroke-width:2.5;" x1="70" x2="1990" y1="1870" y2="1870"/><rect fill="none" height="15" style="stroke:#000000;stroke-width:2.5;" width="15" x="87.5" y="1897.5183"/><text fill="#000000" font-family="Verdana" font-size="35" lengthAdjust="spacing" textLength="337.5" x="112.5" y="1915.188">marca: MarcasAuto</text><rect fill="none" height="15" style="stroke:#000000;stroke-width:2.5;" width="15" x="87.5" y="1940.0549"/><text fill="#000000" font-family="Verdana" font-size="35" lengthAdjust="spacing" textLength="282.5" x="112.5" y="1957.7246">numPuertas: int</text><line style="stroke:#000000;stroke-width:2.5;" x1="70" x2="1990" y1="1975.0732" y2="1975.0732"/><ellipse cx="95" cy="2010.0916" fill="#FFFFFF" rx="7.5" ry="7.5" style="stroke:#000000;stroke-width:2.5;"/><text fill="#000000" font-family="Verdana" font-size="35" lengthAdjust="spacing" textLength="580" x="112.5" y="2020.2612">Auto(Map&lt;String, String&gt;): void</text><ellipse cx="95" cy="2052.6282" fill="#FFFFFF" rx="7.5" ry="7.5" style="stroke:#000000;stroke-width:2.5;"/><text fill="#000000" font-family="Verdana" font-size="35" lengthAdjust="spacing" textLength="1565" x="112.5" y="2062.7979">Auto(TipoVehiculos, String, int, TipoCombustible, float, EstadoVehiculo, LocalDate): void</text><ellipse cx="95" cy="2095.1648" fill="#FFFFFF" rx="7.5" ry="7.5" style="stroke:#000000;stroke-width:2.5;"/><text fill="#000000" font-family="Verdana" font-size="35" lengthAdjust="spacing" textLength="1865" x="112.5" y="2105.3345">Auto(TipoVehiculos, String, int, TipoCombustible, float, EstadoVehiculo, MarcasAuto, int, LocalDate): void</text><line style="stroke:#000000;stroke-width:2.5;" x1="70" x2="1990" y1="2122.6831" y2="2122.6831"/><ellipse cx="95" cy="2157.7014" fill="#FFFFFF" rx="7.5" ry="7.5" style="stroke:#000000;stroke-width:2.5;"/><text fill="#000000" font-family="Verdana" font-size="35" lengthAdjust="spacing" textLength="420" x="112.5" y="2167.8711">getMarca(): MarcasAuto</text><ellipse cx="95" cy="2200.238" fill="#FFFFFF" rx="7.5" ry="7.5" style="stroke:#000000;stroke-width:2.5;"/><text fill="#000000" font-family="Verdana" font-size="35" lengthAdjust="spacing" textLength="490" x="112.5" y="2210.4077">setMarca(MarcasAuto): void</text><ellipse cx="95" cy="2242.7747" fill="#FFFFFF" rx="7.5" ry="7.5" style="stroke:#000000;stroke-width:2.5;"/><text fill="#000000" font-family="Verdana" font-size="35" lengthAdjust="spacing" textLength="372.5" x="112.5" y="2252.9443">getNumPuertas(): int</text><ellipse cx="95" cy="2285.3113" fill="#FFFFFF" rx="7.5" ry="7.5" style="stroke:#000000;stroke-width:2.5;"/><text fill="#000000" font-family="Verdana" font-size="35" lengthAdjust="spacing" textLength="442.5" x="112.5" y="2295.481">setNumPuertas(int): void</text><ellipse cx="95" cy="2327.8479" fill="#FFFFFF" rx="7.5" ry="7.5" style="stroke:#000000;stroke-width:2.5;"/><text fill="#000000" font-family="Verdana" font-size="35" lengthAdjust="spacing" textLength="530" x="112.5" y="2338.0176">toMap(): Map&lt;String, String&gt;</text><ellipse cx="95" cy="2370.3845" fill="#FFFFFF" rx="7.5" ry="7.5" style="stroke:#000000;stroke-width:2.5;"/><text fill="#000000" font-family="Verdana" font-size="35" lengthAdjust="spacing" textLength="267.5" x="112.5" y="2380.5542">toCsv(): String</text><ellipse cx="95" cy="2412.9211" fill="#FFFFFF" rx="7.5" ry="7.5" style="stroke:#000000;stroke-width:2.5;"/><text fill="#000000" font-family="Verdana" font-size="35" lengthAdjust="spacing" text-decoration="underline" textLength="397.5" x="112.5" y="2423.0908">fromCsv(String): Auto</text><ellipse cx="95" cy="2455.4578" fill="#FFFFFF" rx="7.5" ry="7.5" style="stroke:#000000;stroke-width:2.5;"/><text fill="#000000" font-family="Verdana" font-size="35" lengthAdjust="spacing" textLength="660" x="112.5" y="2465.6274">fromMap(Map&lt;String, String&gt;): Auto</text><ellipse cx="95" cy="2497.9944" fill="#FFFFFF" rx="7.5" ry="7.5" style="stroke:#000000;stroke-width:2.5;"/><text fill="#000000" font-family="Verdana" font-size="35" lengthAdjust="spacing" textLength="560" x="112.5" y="2508.1641">calcularCostosAlquiler(int): float</text><ellipse cx="95" cy="2540.531" fill="#FFFFFF" rx="7.5" ry="7.5" style="stroke:#000000;stroke-width:2.5;"/><text fill="#000000" font-family="Verdana" font-size="35" lengthAdjust="spacing" textLength="442.5" x="112.5" y="2550.7007">mostrarDetalles(): String</text><ellipse cx="95" cy="2583.0676" fill="#FFFFFF" rx="7.5" ry="7.5" style="stroke:#000000;stroke-width:2.5;"/><text fill="#000000" font-family="Verdana" font-size="35" lengthAdjust="spacing" textLength="582.5" x="112.5" y="2593.2373">ImprimirTicket(LocalDate): String</text><ellipse cx="95" cy="2625.6042" fill="#FFFFFF" rx="7.5" ry="7.5" style="stroke:#000000;stroke-width:2.5;"/><text fill="#000000" font-family="Verdana" font-size="35" lengthAdjust="spacing" textLength="442.5" x="112.5" y="2635.7739">compareTo(Vehiculo): int</text><ellipse cx="95" cy="2668.1409" fill="#FFFFFF" rx="7.5" ry="7.5" style="stroke:#000000;stroke-width:2.5;"/><text fill="#000000" font-family="Verdana" font-size="35" lengthAdjust="spacing" textLength="510" x="112.5" y="2678.3105">realizarMantenimiento(): void</text><ellipse cx="95" cy="2710.6775" fill="#FFFFFF" rx="7.5" ry="7.5" style="stroke:#000000;stroke-width:2.5;"/><text fill="#000000" font-family="Verdana" font-size="35" lengthAdjust="spacing" textLength="397.5" x="112.5" y="2720.8472">alquilarVehiculo(): void</text><ellipse cx="95" cy="2753.2141" fill="#FFFFFF" rx="7.5" ry="7.5" style="stroke:#000000;stroke-width:2.5;"/><text fill="#000000" font-family="Verdana" font-size="35" lengthAdjust="spacing" textLength="450" x="112.5" y="2763.3838">disponerVehiuculo(): void</text></g><!--class Moto--><g id="elem_Moto"><rect codeLine="69" fill="#FFFFFF" height="980.7324" id="Moto" rx="6.25" ry="6.25" style="stroke:#000000;stroke-width:2.5;" width="1930" x="2080" y="1800"/><ellipse cx="2991.875" cy="1835" fill="#FFFFFF" rx="22.5" ry="22.5" style="stroke:#000000;stroke-width:2.5;"/><path d="M2998.7891,1838.8281 L3004.7656,1840.7031 Q3003.3984,1845.6641 3000.1953,1848.0859 Q2997.0313,1850.5078 2992.1094,1850.5078 Q2986.0547,1850.5078 2982.1484,1846.3672 Q2978.2813,1842.2266 2978.2813,1835.0391 Q2978.2813,1827.4609 2982.1875,1823.2813 Q2986.0938,1819.0625 2992.5,1819.0625 Q2998.0859,1819.0625 3001.5625,1822.3438 Q3003.6328,1824.2969 3004.6875,1827.9688 L2998.5938,1829.4141 Q2998.0469,1827.0313 2996.3281,1825.6641 Q2994.6484,1824.2969 2992.1875,1824.2969 Q2988.7891,1824.2969 2986.6797,1826.7578 Q2984.6094,1829.1797 2984.6094,1834.6094 Q2984.6094,1840.3516 2986.6797,1842.8125 Q2988.75,1845.2734 2992.0703,1845.2734 Q2994.5313,1845.2734 2996.2891,1843.7109 Q2998.0469,1842.1484 2998.7891,1838.8281 Z " fill="#000000"/><text fill="#000000" font-family="Verdana" font-size="35" lengthAdjust="spacing" textLength="87.5" x="3035.625" y="1848.9197">Moto</text><line style="stroke:#000000;stroke-width:2.5;" x1="2082.5" x2="4007.5" y1="1870" y2="1870"/><rect fill="none" height="15" style="stroke:#000000;stroke-width:2.5;" width="15" x="2100" y="1897.5183"/><text fill="#000000" font-family="Verdana" font-size="35" lengthAdjust="spacing" textLength="340" x="2125" y="1915.188">marca: MarcasMoto</text><rect fill="none" height="15" style="stroke:#000000;stroke-width:2.5;" width="15" x="2100" y="1940.0549"/><text fill="#000000" font-family="Verdana" font-size="35" lengthAdjust="spacing" textLength="235" x="2125" y="1957.7246">cilindrada: int</text><line style="stroke:#000000;stroke-width:2.5;" x1="2082.5" x2="4007.5" y1="1975.0732" y2="1975.0732"/><ellipse cx="2107.5" cy="2010.0916" fill="#FFFFFF" rx="7.5" ry="7.5" style="stroke:#000000;stroke-width:2.5;"/><text fill="#000000" font-family="Verdana" font-size="35" lengthAdjust="spacing" textLength="582.5" x="2125" y="2020.2612">Moto(Map&lt;String, String&gt;): void</text><ellipse cx="2107.5" cy="2052.6282" fill="#FFFFFF" rx="7.5" ry="7.5" style="stroke:#000000;stroke-width:2.5;"/><text fill="#000000" font-family="Verdana" font-size="35" lengthAdjust="spacing" textLength="1870" x="2125" y="2062.7979">Moto(TipoVehiculos, String, int, TipoCombustible, float, EstadoVehiculo, MarcasMoto, int, LocalDate): void</text><ellipse cx="2107.5" cy="2095.1648" fill="#FFFFFF" rx="7.5" ry="7.5" style="stroke:#000000;stroke-width:2.5;"/><text fill="#000000" font-family="Verdana" font-size="35" lengthAdjust="spacing" textLength="1567.5" x="2125" y="2105.3345">Moto(TipoVehiculos, String, int, TipoCombustible, float, EstadoVehiculo, LocalDate): void</text><line style="stroke:#000000;stroke-width:2.5;" x1="2082.5" x2="4007.5" y1="2122.6831" y2="2122.6831"/><ellipse cx="2107.5" cy="2157.7014" fill="#FFFFFF" rx="7.5" ry="7.5" style="stroke:#000000;stroke-width:2.5;"/><text fill="#000000" font-family="Verdana" font-size="35" lengthAdjust="spacing" textLength="422.5" x="2125" y="2167.8711">getMarca(): MarcasMoto</text><ellipse cx="2107.5" cy="2200.238" fill="#FFFFFF" rx="7.5" ry="7.5" style="stroke:#000000;stroke-width:2.5;"/><text fill="#000000" font-family="Verdana" font-size="35" lengthAdjust="spacing" textLength="492.5" x="2125" y="2210.4077">setMarca(MarcasMoto): void</text><ellipse cx="2107.5" cy="2242.7747" fill="#FFFFFF" rx="7.5" ry="7.5" style="stroke:#000000;stroke-width:2.5;"/><text fill="#000000" font-family="Verdana" font-size="35" lengthAdjust="spacing" textLength="330" x="2125" y="2252.9443">getCilindrada(): int</text><ellipse cx="2107.5" cy="2285.3113" fill="#FFFFFF" rx="7.5" ry="7.5" style="stroke:#000000;stroke-width:2.5;"/><text fill="#000000" font-family="Verdana" font-size="35" lengthAdjust="spacing" textLength="400" x="2125" y="2295.481">setCilindrada(int): void</text><ellipse cx="2107.5" cy="2327.8479" fill="#FFFFFF" rx="7.5" ry="7.5" style="stroke:#000000;stroke-width:2.5;"/><text fill="#000000" font-family="Verdana" font-size="35" lengthAdjust="spacing" textLength="530" x="2125" y="2338.0176">toMap(): Map&lt;String, String&gt;</text><ellipse cx="2107.5" cy="2370.3845" fill="#FFFFFF" rx="7.5" ry="7.5" style="stroke:#000000;stroke-width:2.5;"/><text fill="#000000" font-family="Verdana" font-size="35" lengthAdjust="spacing" textLength="267.5" x="2125" y="2380.5542">toCsv(): String</text><ellipse cx="2107.5" cy="2412.9211" fill="#FFFFFF" rx="7.5" ry="7.5" style="stroke:#000000;stroke-width:2.5;"/><text fill="#000000" font-family="Verdana" font-size="35" lengthAdjust="spacing" text-decoration="underline" textLength="400" x="2125" y="2423.0908">fromCsv(String): Moto</text><ellipse cx="2107.5" cy="2455.4578" fill="#FFFFFF" rx="7.5" ry="7.5" style="stroke:#000000;stroke-width:2.5;"/><text fill="#000000" font-family="Verdana" font-size="35" lengthAdjust="spacing" textLength="662.5" x="2125" y="2465.6274">fromMap(Map&lt;String, String&gt;): Moto</text><ellipse cx="2107.5" cy="2497.9944" fill="#FFFFFF" rx="7.5" ry="7.5" style="stroke:#000000;stroke-width:2.5;"/><text fill="#000000" font-family="Verdana" font-size="35" lengthAdjust="spacing" textLength="560" x="2125" y="2508.1641">calcularCostosAlquiler(int): float</text><ellipse cx="2107.5" cy="2540.531" fill="#FFFFFF" rx="7.5" ry="7.5" style="stroke:#000000;stroke-width:2.5;"/><text fill="#000000" font-family="Verdana" font-size="35" lengthAdjust="spacing" textLength="442.5" x="2125" y="2550.7007">mostrarDetalles(): String</text><ellipse cx="2107.5" cy="2583.0676" fill="#FFFFFF" rx="7.5" ry="7.5" style="stroke:#000000;stroke-width:2.5;"/><text fill="#000000" font-family="Verdana" font-size="35" lengthAdjust="spacing" textLength="582.5" x="2125" y="2593.2373">ImprimirTicket(LocalDate): String</text><ellipse cx="2107.5" cy="2625.6042" fill="#FFFFFF" rx="7.5" ry="7.5" style="stroke:#000000;stroke-width:2.5;"/><text fill="#000000" font-family="Verdana" font-size="35" lengthAdjust="spacing" textLength="442.5" x="2125" y="2635.7739">compareTo(Vehiculo): int</text><ellipse cx="2107.5" cy="2668.1409" fill="#FFFFFF" rx="7.5" ry="7.5" style="stroke:#000000;stroke-width:2.5;"/><text fill="#000000" font-family="Verdana" font-size="35" lengthAdjust="spacing" textLength="510" x="2125" y="2678.3105">realizarMantenimiento(): void</text><ellipse cx="2107.5" cy="2710.6775" fill="#FFFFFF" rx="7.5" ry="7.5" style="stroke:#000000;stroke-width:2.5;"/><text fill="#000000" font-family="Verdana" font-size="35" lengthAdjust="spacing" textLength="397.5" x="2125" y="2720.8472">alquilarVehiculo(): void</text><ellipse cx="2107.5" cy="2753.2141" fill="#FFFFFF" rx="7.5" ry="7.5" style="stroke:#000000;stroke-width:2.5;"/><text fill="#000000" font-family="Verdana" font-size="35" lengthAdjust="spacing" textLength="427.5" x="2125" y="2763.3838">disponerVehiculo(): void</text></g><!--class Camioneta--><g id="elem_Camioneta"><rect codeLine="94" fill="#FFFFFF" height="980.7324" id="Camioneta" rx="6.25" ry="6.25" style="stroke:#000000;stroke-width:2.5;" width="2057.5" x="4098.75" y="1800"/><ellipse cx="5025.625" cy="1835" fill="#FFFFFF" rx="22.5" ry="22.5" style="stroke:#000000;stroke-width:2.5;"/><path d="M5032.5391,1838.8281 L5038.5156,1840.7031 Q5037.1484,1845.6641 5033.9453,1848.0859 Q5030.7813,1850.5078 5025.8594,1850.5078 Q5019.8047,1850.5078 5015.8984,1846.3672 Q5012.0313,1842.2266 5012.0313,1835.0391 Q5012.0313,1827.4609 5015.9375,1823.2813 Q5019.8438,1819.0625 5026.25,1819.0625 Q5031.8359,1819.0625 5035.3125,1822.3438 Q5037.3828,1824.2969 5038.4375,1827.9688 L5032.3438,1829.4141 Q5031.7969,1827.0313 5030.0781,1825.6641 Q5028.3984,1824.2969 5025.9375,1824.2969 Q5022.5391,1824.2969 5020.4297,1826.7578 Q5018.3594,1829.1797 5018.3594,1834.6094 Q5018.3594,1840.3516 5020.4297,1842.8125 Q5022.5,1845.2734 5025.8203,1845.2734 Q5028.2813,1845.2734 5030.0391,1843.7109 Q5031.7969,1842.1484 5032.5391,1838.8281 Z " fill="#000000"/><text fill="#000000" font-family="Verdana" font-size="35" lengthAdjust="spacing" textLength="185" x="5069.375" y="1848.9197">Camioneta</text><line style="stroke:#000000;stroke-width:2.5;" x1="4101.25" x2="6153.75" y1="1870" y2="1870"/><rect fill="none" height="15" style="stroke:#000000;stroke-width:2.5;" width="15" x="4118.75" y="1897.5183"/><text fill="#000000" font-family="Verdana" font-size="35" lengthAdjust="spacing" textLength="437.5" x="4143.75" y="1915.188">marca: MarcasCamioneta</text><rect fill="none" height="15" style="stroke:#000000;stroke-width:2.5;" width="15" x="4118.75" y="1940.0549"/><text fill="#000000" font-family="Verdana" font-size="35" lengthAdjust="spacing" textLength="425" x="4143.75" y="1957.7246">capacidadCargaKg: float</text><line style="stroke:#000000;stroke-width:2.5;" x1="4101.25" x2="6153.75" y1="1975.0732" y2="1975.0732"/><ellipse cx="4126.25" cy="2010.0916" fill="#FFFFFF" rx="7.5" ry="7.5" style="stroke:#000000;stroke-width:2.5;"/><text fill="#000000" font-family="Verdana" font-size="35" lengthAdjust="spacing" textLength="680" x="4143.75" y="2020.2612">Camioneta(Map&lt;String, String&gt;): void</text><ellipse cx="4126.25" cy="2052.6282" fill="#FFFFFF" rx="7.5" ry="7.5" style="stroke:#000000;stroke-width:2.5;"/><text fill="#000000" font-family="Verdana" font-size="35" lengthAdjust="spacing" textLength="1997.5" x="4143.75" y="2062.7979">Camioneta(TipoVehiculos, String, int, TipoCombustible, float, EstadoVehiculo, MarcasCamioneta, float, LocalDate)</text><ellipse cx="4126.25" cy="2095.1648" fill="#FFFFFF" rx="7.5" ry="7.5" style="stroke:#000000;stroke-width:2.5;"/><text fill="#000000" font-family="Verdana" font-size="35" lengthAdjust="spacing" textLength="1565" x="4143.75" y="2105.3345">Camioneta(TipoVehiculos, String, int, TipoCombustible, float, EstadoVehiculo, LocalDate)</text><line style="stroke:#000000;stroke-width:2.5;" x1="4101.25" x2="6153.75" y1="2122.6831" y2="2122.6831"/><ellipse cx="4126.25" cy="2157.7014" fill="#FFFFFF" rx="7.5" ry="7.5" style="stroke:#000000;stroke-width:2.5;"/><text fill="#000000" font-family="Verdana" font-size="35" lengthAdjust="spacing" textLength="520" x="4143.75" y="2167.8711">getMarca(): MarcasCamioneta</text><ellipse cx="4126.25" cy="2200.238" fill="#FFFFFF" rx="7.5" ry="7.5" style="stroke:#000000;stroke-width:2.5;"/><text fill="#000000" font-family="Verdana" font-size="35" lengthAdjust="spacing" textLength="590" x="4143.75" y="2210.4077">setMarca(MarcasCamioneta): void</text><ellipse cx="4126.25" cy="2242.7747" fill="#FFFFFF" rx="7.5" ry="7.5" style="stroke:#000000;stroke-width:2.5;"/><text fill="#000000" font-family="Verdana" font-size="35" lengthAdjust="spacing" textLength="520" x="4143.75" y="2252.9443">getCapacidadCargaKg(): float</text><ellipse cx="4126.25" cy="2285.3113" fill="#FFFFFF" rx="7.5" ry="7.5" style="stroke:#000000;stroke-width:2.5;"/><text fill="#000000" font-family="Verdana" font-size="35" lengthAdjust="spacing" textLength="590" x="4143.75" y="2295.481">setCapacidadCargaKg(float): void</text><ellipse cx="4126.25" cy="2327.8479" fill="#FFFFFF" rx="7.5" ry="7.5" style="stroke:#000000;stroke-width:2.5;"/><text fill="#000000" font-family="Verdana" font-size="35" lengthAdjust="spacing" textLength="530" x="4143.75" y="2338.0176">toMap(): Map&lt;String, String&gt;</text><ellipse cx="4126.25" cy="2370.3845" fill="#FFFFFF" rx="7.5" ry="7.5" style="stroke:#000000;stroke-width:2.5;"/><text fill="#000000" font-family="Verdana" font-size="35" lengthAdjust="spacing" textLength="267.5" x="4143.75" y="2380.5542">toCsv(): String</text><ellipse cx="4126.25" cy="2412.9211" fill="#FFFFFF" rx="7.5" ry="7.5" style="stroke:#000000;stroke-width:2.5;"/><text fill="#000000" font-family="Verdana" font-size="35" lengthAdjust="spacing" text-decoration="underline" textLength="497.5" x="4143.75" y="2423.0908">fromCsv(String): Camioneta</text><ellipse cx="4126.25" cy="2455.4578" fill="#FFFFFF" rx="7.5" ry="7.5" style="stroke:#000000;stroke-width:2.5;"/><text fill="#000000" font-family="Verdana" font-size="35" lengthAdjust="spacing" textLength="760" x="4143.75" y="2465.6274">fromMap(Map&lt;String, String&gt;): Camioneta</text><ellipse cx="4126.25" cy="2497.9944" fill="#FFFFFF" rx="7.5" ry="7.5" style="stroke:#000000;stroke-width:2.5;"/><text fill="#000000" font-family="Verdana" font-size="35" lengthAdjust="spacing" textLength="560" x="4143.75" y="2508.1641">calcularCostosAlquiler(int): float</text><ellipse cx="4126.25" cy="2540.531" fill="#FFFFFF" rx="7.5" ry="7.5" style="stroke:#000000;stroke-width:2.5;"/><text fill="#000000" font-family="Verdana" font-size="35" lengthAdjust="spacing" textLength="442.5" x="4143.75" y="2550.7007">mostrarDetalles(): String</text><ellipse cx="4126.25" cy="2583.0676" fill="#FFFFFF" rx="7.5" ry="7.5" style="stroke:#000000;stroke-width:2.5;"/><text fill="#000000" font-family="Verdana" font-size="35" lengthAdjust="spacing" textLength="582.5" x="4143.75" y="2593.2373">ImprimirTicket(LocalDate): String</text><ellipse cx="4126.25" cy="2625.6042" fill="#FFFFFF" rx="7.5" ry="7.5" style="stroke:#000000;stroke-width:2.5;"/><text fill="#000000" font-family="Verdana" font-size="35" lengthAdjust="spacing" textLength="442.5" x="4143.75" y="2635.7739">compareTo(Vehiculo): int</text><ellipse cx="4126.25" cy="2668.1409" fill="#FFFFFF" rx="7.5" ry="7.5" style="stroke:#000000;stroke-width:2.5;"/><text fill="#000000" font-family="Verdana" font-size="35" lengthAdjust="spacing" textLength="510" x="4143.75" y="2678.3105">realizarMantenimiento(): void</text><ellipse cx="4126.25" cy="2710.6775" fill="#FFFFFF" rx="7.5" ry="7.5" style="stroke:#000000;stroke-width:2.5;"/><text fill="#000000" font-family="Verdana" font-size="35" lengthAdjust="spacing" textLength="397.5" x="4143.75" y="2720.8472">alquilarVehiculo(): void</text><ellipse cx="4126.25" cy="2753.2141" fill="#FFFFFF" rx="7.5" ry="7.5" style="stroke:#000000;stroke-width:2.5;"/><text fill="#000000" font-family="Verdana" font-size="35" lengthAdjust="spacing" textLength="427.5" x="4143.75" y="2763.3838">disponerVehiculo(): void</text></g><!--class TipoVehiculos--><g id="elem_TipoVehiculos"><rect codeLine="121" fill="#FFFFFF" height="280.1465" id="TipoVehiculos" rx="6.25" ry="6.25" style="stroke:#000000;stroke-width:2.5;" width="310" x="9770" y="2150"/><ellipse cx="9802.5" cy="2185" fill="#FFFFFF" rx="22.5" ry="22.5" style="stroke:#000000;stroke-width:2.5;"/><path d="M9791.8359,2200 L9791.8359,2169.5703 L9814.4141,2169.5703 L9814.4141,2174.7266 L9797.9688,2174.7266 L9797.9688,2181.4844 L9813.2422,2181.4844 L9813.2422,2186.6016 L9797.9688,2186.6016 L9797.9688,2194.8828 L9815,2194.8828 L9815,2200 L9791.8359,2200 Z " fill="#000000"/><text fill="#000000" font-family="Verdana" font-size="35" lengthAdjust="spacing" textLength="240" x="9832.5" y="2198.9197">TipoVehiculos</text><line style="stroke:#000000;stroke-width:2.5;" x1="9772.5" x2="10077.5" y1="2220" y2="2220"/><text fill="#000000" font-family="Verdana" font-size="35" lengthAdjust="spacing" textLength="100" x="9785" y="2265.188">AUTO</text><text fill="#000000" font-family="Verdana" font-size="35" lengthAdjust="spacing" textLength="105" x="9785" y="2307.7246">MOTO</text><text fill="#000000" font-family="Verdana" font-size="35" lengthAdjust="spacing" textLength="212.5" x="9785" y="2350.2612">CAMIONETA</text><text fill="#000000" font-family="Verdana" font-size="35" lengthAdjust="spacing" textLength="130" x="9785" y="2392.7979">TODOS</text><line style="stroke:#000000;stroke-width:2.5;" x1="9772.5" x2="10077.5" y1="2410.1465" y2="2410.1465"/></g><!--class EstadoVehiculo--><g id="elem_EstadoVehiculo"><rect codeLine="128" fill="#FFFFFF" height="280.1465" id="EstadoVehiculo" rx="6.25" ry="6.25" style="stroke:#000000;stroke-width:2.5;" width="397.5" x="8833.75" y="2150"/><ellipse cx="8893.25" cy="2185" fill="#FFFFFF" rx="22.5" ry="22.5" style="stroke:#000000;stroke-width:2.5;"/><path d="M8882.5859,2200 L8882.5859,2169.5703 L8905.1641,2169.5703 L8905.1641,2174.7266 L8888.7188,2174.7266 L8888.7188,2181.4844 L8903.9922,2181.4844 L8903.9922,2186.6016 L8888.7188,2186.6016 L8888.7188,2194.8828 L8905.75,2194.8828 L8905.75,2200 L8882.5859,2200 Z " fill="#000000"/><text fill="#000000" font-family="Verdana" font-size="35" lengthAdjust="spacing" textLength="267.5" x="8929.25" y="2198.9197">EstadoVehiculo</text><line style="stroke:#000000;stroke-width:2.5;" x1="8836.25" x2="9228.75" y1="2220" y2="2220"/><text fill="#000000" font-family="Verdana" font-size="35" lengthAdjust="spacing" textLength="130" x="8848.75" y="2265.188">TODOS</text><text fill="#000000" font-family="Verdana" font-size="35" lengthAdjust="spacing" textLength="217.5" x="8848.75" y="2307.7246">DISPONIBLE</text><text fill="#000000" font-family="Verdana" font-size="35" lengthAdjust="spacing" textLength="210" x="8848.75" y="2350.2612">ALQUILADO</text><text fill="#000000" font-family="Verdana" font-size="35" lengthAdjust="spacing" textLength="367.5" x="8848.75" y="2392.7979">EN_MANTENIMIENTO</text><line style="stroke:#000000;stroke-width:2.5;" x1="8836.25" x2="9228.75" y1="2410.1465" y2="2410.1465"/></g><!--class TipoCombustible--><g id="elem_TipoCombustible"><rect codeLine="135" fill="#FFFFFF" height="280.1465" id="TipoCombustible" rx="6.25" ry="6.25" style="stroke:#000000;stroke-width:2.5;" width="362.5" x="9318.75" y="2150"/><ellipse cx="9351.25" cy="2185" fill="#FFFFFF" rx="22.5" ry="22.5" style="stroke:#000000;stroke-width:2.5;"/><path d="M9340.5859,2200 L9340.5859,2169.5703 L9363.1641,2169.5703 L9363.1641,2174.7266 L9346.7188,2174.7266 L9346.7188,2181.4844 L9361.9922,2181.4844 L9361.9922,2186.6016 L9346.7188,2186.6016 L9346.7188,2194.8828 L9363.75,2194.8828 L9363.75,2200 L9340.5859,2200 Z " fill="#000000"/><text fill="#000000" font-family="Verdana" font-size="35" lengthAdjust="spacing" textLength="292.5" x="9381.25" y="2198.9197">TipoCombustible</text><line style="stroke:#000000;stroke-width:2.5;" x1="9321.25" x2="9678.75" y1="2220" y2="2220"/><text fill="#000000" font-family="Verdana" font-size="35" lengthAdjust="spacing" textLength="117.5" x="9333.75" y="2265.188">NAFTA</text><text fill="#000000" font-family="Verdana" font-size="35" lengthAdjust="spacing" textLength="130" x="9333.75" y="2307.7246">DIESEL</text><text fill="#000000" font-family="Verdana" font-size="35" lengthAdjust="spacing" textLength="202.5" x="9333.75" y="2350.2612">ELECTRICO</text><text fill="#000000" font-family="Verdana" font-size="35" lengthAdjust="spacing" textLength="155" x="9333.75" y="2392.7979">HIBRIDO</text><line style="stroke:#000000;stroke-width:2.5;" x1="9321.25" x2="9678.75" y1="2410.1465" y2="2410.1465"/></g><!--class MarcasAuto--><g id="elem_MarcasAuto"><rect codeLine="142" fill="#FFFFFF" height="195.0732" id="MarcasAuto" rx="6.25" ry="6.25" style="stroke:#000000;stroke-width:2.5;" width="827.5" x="7918.75" y="2192.5"/><ellipse cx="8220.625" cy="2227.5" fill="#FFFFFF" rx="22.5" ry="22.5" style="stroke:#000000;stroke-width:2.5;"/><path d="M8209.9609,2242.5 L8209.9609,2212.0703 L8232.5391,2212.0703 L8232.5391,2217.2266 L8216.0938,2217.2266 L8216.0938,2223.9844 L8231.3672,2223.9844 L8231.3672,2229.1016 L8216.0938,2229.1016 L8216.0938,2237.3828 L8233.125,2237.3828 L8233.125,2242.5 L8209.9609,2242.5 Z " fill="#000000"/><text fill="#000000" font-family="Verdana" font-size="35" lengthAdjust="spacing" textLength="205" x="8264.375" y="2241.4197">MarcasAuto</text><line style="stroke:#000000;stroke-width:2.5;" x1="7921.25" x2="8743.75" y1="2262.5" y2="2262.5"/><text fill="#000000" font-family="Verdana" font-size="35" lengthAdjust="spacing" textLength="797.5" x="7933.75" y="2307.688">FORD, CHEVROLET, TOYOTA, VOLKSWAGEN</text><text fill="#000000" font-family="Verdana" font-size="35" lengthAdjust="spacing" textLength="740" x="7933.75" y="2350.2246">BMW, FIAT, RENAULT, NISSAN, PEUGEOT</text><line style="stroke:#000000;stroke-width:2.5;" x1="7921.25" x2="8743.75" y1="2367.5732" y2="2367.5732"/></g><!--class MarcasMoto--><g id="elem_MarcasMoto"><rect codeLine="147" fill="#FFFFFF" height="195.0732" id="MarcasMoto" rx="6.25" ry="6.25" style="stroke:#000000;stroke-width:2.5;" width="722.5" x="7108.75" y="2192.5"/><ellipse cx="7356.875" cy="2227.5" fill="#FFFFFF" rx="22.5" ry="22.5" style="stroke:#000000;stroke-width:2.5;"/><path d="M7346.2109,2242.5 L7346.2109,2212.0703 L7368.7891,2212.0703 L7368.7891,2217.2266 L7352.3438,2217.2266 L7352.3438,2223.9844 L7367.6172,2223.9844 L7367.6172,2229.1016 L7352.3438,2229.1016 L7352.3438,2237.3828 L7369.375,2237.3828 L7369.375,2242.5 L7346.2109,2242.5 Z " fill="#000000"/><text fill="#000000" font-family="Verdana" font-size="35" lengthAdjust="spacing" textLength="207.5" x="7400.625" y="2241.4197">MarcasMoto</text><line style="stroke:#000000;stroke-width:2.5;" x1="7111.25" x2="7828.75" y1="2262.5" y2="2262.5"/><text fill="#000000" font-family="Verdana" font-size="35" lengthAdjust="spacing" textLength="692.5" x="7123.75" y="2307.688">HONDA, YAMAHA, SUZUKI, KAWASAKI</text><text fill="#000000" font-family="Verdana" font-size="35" lengthAdjust="spacing" textLength="452.5" x="7123.75" y="2350.2246">BMW, DUCATI, MOTOMEL</text><line style="stroke:#000000;stroke-width:2.5;" x1="7111.25" x2="7828.75" y1="2367.5732" y2="2367.5732"/></g><!--class MarcasCamioneta--><g id="elem_MarcasCamioneta"><rect codeLine="152" fill="#FFFFFF" height="152.5366" id="MarcasCamioneta" rx="6.25" ry="6.25" style="stroke:#000000;stroke-width:2.5;" width="722.5" x="6298.75" y="2213.75"/><ellipse cx="6498.125" cy="2248.75" fill="#FFFFFF" rx="22.5" ry="22.5" style="stroke:#000000;stroke-width:2.5;"/><path d="M6487.4609,2263.75 L6487.4609,2233.3203 L6510.0391,2233.3203 L6510.0391,2238.4766 L6493.5938,2238.4766 L6493.5938,2245.2344 L6508.8672,2245.2344 L6508.8672,2250.3516 L6493.5938,2250.3516 L6493.5938,2258.6328 L6510.625,2258.6328 L6510.625,2263.75 L6487.4609,2263.75 Z " fill="#000000"/><text fill="#000000" font-family="Verdana" font-size="35" lengthAdjust="spacing" textLength="305" x="6541.875" y="2262.6697">MarcasCamioneta</text><line style="stroke:#000000;stroke-width:2.5;" x1="6301.25" x2="7018.75" y1="2283.75" y2="2283.75"/><text fill="#000000" font-family="Verdana" font-size="35" lengthAdjust="spacing" textLength="692.5" x="6313.75" y="2328.938">RENAULT, NISSAN, JEEP, DODGE, RAM</text><line style="stroke:#000000;stroke-width:2.5;" x1="6301.25" x2="7018.75" y1="2346.2866" y2="2346.2866"/></g><!--reverse link Vehiculo to Auto--><g id="link_Vehiculo_Auto"><path d="M4247.5369,1096.1058 C3608.8119,1261.5058 2755.775,1505.725 1995,1800 C1994.325,1800.275 1993.65,1800.525 1992.95,1800.8 " fill="none" id="Vehiculo-backto-Auto" style="stroke:#000000;stroke-width:2.5;"/><polygon fill="none" points="4291.1,1084.825,4243.7766,1081.5848,4251.2972,1110.6268,4291.1,1084.825" style="stroke:#000000;stroke-width:2.5;"/></g><!--link Auto to Vehiculo--><g id="link_Auto_Vehiculo"><path codeLine="158" d="M1992.65,1835.9 C2022.825,1823.475 2052.825,1811.475 2082.5,1800 C2814.575,1516.825 3628.957,1281.192 4247.357,1115.567 " fill="none" id="Auto-to-Vehiculo" style="stroke:#000000;stroke-width:2.5;"/><polygon fill="none" points="4290.825,1103.925,4243.4764,1101.0776,4251.2377,1130.0563,4290.825,1103.925" style="stroke:#000000;stroke-width:2.5;"/></g><!--reverse link Vehiculo to Moto--><g id="link_Vehiculo_Moto"><path d="M4253.8158,1453.011 C4070.6658,1575.461 3916.125,1679.75 3739.25,1799.825 " fill="none" id="Vehiculo-backto-Moto" style="stroke:#000000;stroke-width:2.5;"/><polygon fill="none" points="4291.225,1428,4245.4788,1440.5412,4262.1528,1465.4807,4291.225,1428" style="stroke:#000000;stroke-width:2.5;"/></g><!--link Moto to Vehiculo--><g id="link_Moto_Vehiculo"><path codeLine="159" d="M3802.6,1799.5 C3961.425,1693.6 4092.4719,1605.781 4253.9719,1496.581 " fill="none" id="Moto-to-Vehiculo" style="stroke:#000000;stroke-width:2.5;"/><polygon fill="none" points="4291.25,1471.375,4245.5699,1484.155,4262.3739,1509.007,4291.25,1471.375" style="stroke:#000000;stroke-width:2.5;"/></g><!--reverse link Vehiculo to Camioneta--><g id="link_Vehiculo_Camioneta"><path d="M5095.9056,1695.4247 C5096.0806,1746.0247 5096.35,1751.175 5096.975,1799.8 " fill="none" id="Vehiculo-backto-Camioneta" style="stroke:#000000;stroke-width:2.5;"/><polygon fill="none" points="5095.75,1650.425,5080.9057,1695.4766,5110.9055,1695.3729,5095.75,1650.425" style="stroke:#000000;stroke-width:2.5;"/></g><!--link Camioneta to Vehiculo--><g id="link_Camioneta_Vehiculo"><path codeLine="160" d="M5159.825,1799.8 C5160.5,1751.175 5160.7471,1746.0246 5160.9471,1695.4246 " fill="none" id="Camioneta-to-Vehiculo" style="stroke:#000000;stroke-width:2.5;"/><polygon fill="none" points="5161.125,1650.425,5145.9473,1695.3654,5175.947,1695.4839,5161.125,1650.425" style="stroke:#000000;stroke-width:2.5;"/></g><!--link Vehiculo to TipoVehiculos--><g id="link_Vehiculo_TipoVehiculos"><path codeLine="162" d="M5963.95,958.025 C7129.1,1073.475 9161.35,1335.9 9725,1800 C9830.575,1886.925 9877.9188,2023.9055 9901.6438,2135.0555 " fill="none" id="Vehiculo-to-TipoVehiculos" style="stroke:#000000;stroke-width:2.5;"/><polygon fill="#000000" points="9904.775,2149.725,9909.8579,2125.6332,9902.1657,2137.5004,9890.2985,2129.8082,9904.775,2149.725" style="stroke:#000000;stroke-width:2.5;"/></g><!--link Vehiculo to TipoCombustible--><g id="link_Vehiculo_TipoCombustible"><path codeLine="163" d="M5964,981.9 C7023.825,1117.85 8773.1,1396.1 9275,1800 C9383.575,1887.375 9438.1766,2024.4654 9468.0516,2135.4654 " fill="none" id="Vehiculo-to-TipoCombustible" style="stroke:#000000;stroke-width:2.5;"/><polygon fill="#000000" points="9471.95,2149.95,9475.7587,2125.6242,9468.7013,2137.8795,9456.446,2130.8221,9471.95,2149.95" style="stroke:#000000;stroke-width:2.5;"/></g><!--link Vehiculo to EstadoVehiculo--><g id="link_Vehiculo_EstadoVehiculo"><path codeLine="164" d="M5964.625,1011.8 C6905.825,1167.1 8359.1,1453.8 8790,1800 C8899.8,1888.225 8959.4614,2024.5795 8993.9114,2135.1045 " fill="none" id="Vehiculo-to-EstadoVehiculo" style="stroke:#000000;stroke-width:2.5;"/><polygon fill="#000000" points="8998.375,2149.425,9001.2266,2124.9685,8994.6553,2137.4913,8982.1326,2130.92,8998.375,2149.425" style="stroke:#000000;stroke-width:2.5;"/></g><!--link Auto to MarcasAuto--><g id="link_Auto_MarcasAuto"><path codeLine="165" d="M1854.025,1799.875 C1929.05,1769.85 2005.4,1744.1 2081.25,1725 C2236.15,1686.025 7685.575,1659.5 7831.25,1725 C8044.725,1821 8196.7517,2044.7799 8273.7517,2179.3799 " fill="none" id="Auto-to-MarcasAuto" style="stroke:#000000;stroke-width:2.5;"/><polygon fill="#000000" points="8281.2,2192.4,8278.7075,2167.9043,8274.9931,2181.5499,8261.3475,2177.8354,8281.2,2192.4" style="stroke:#000000;stroke-width:2.5;"/></g><!--link Moto to MarcasMoto--><g id="link_Moto_MarcasMoto"><path codeLine="166" d="M3871.05,1799.85 C3946.25,1769.825 4022.75,1744.1 4098.75,1725 C4256.225,1685.45 6875.025,1654.4 7021.25,1725 C7222.05,1821.95 7353.9553,2043.7524 7419.7303,2178.1274 " fill="none" id="Moto-to-MarcasMoto" style="stroke:#000000;stroke-width:2.5;"/><polygon fill="#000000" points="7426.325,2191.6,7425.4147,2166.9947,7420.8294,2180.3729,7407.4513,2175.7876,7426.325,2191.6" style="stroke:#000000;stroke-width:2.5;"/></g><!--link Camioneta to MarcasCamioneta--><g id="link_Camioneta_MarcasCamioneta"><path codeLine="167" d="M6156.4,2290 C6203.625,2290 6235.825,2290 6283.05,2290 " fill="none" id="Camioneta-to-MarcasCamioneta" style="stroke:#000000;stroke-width:2.5;"/><polygon fill="#000000" points="6298.05,2290,6275.55,2280,6285.55,2290,6275.55,2300,6298.05,2290" style="stroke:#000000;stroke-width:2.5;"/></g><!--SRC=[xLZ1RkCs4BtxAzYzDC7AHO1U2gCmm4XoejgIN5jEiBqKjCJOR2JJIzABHTDyr7x3_bX9ofOeIdQyHT9BguDjQHxVS8RpngI-4sjSOB3D4TdqU8fo3Av- -Ad77ybcYnWgGBObuCUhgrvlYz97jCBWNKWpdFDtuAa7v8MMN32K2f3cY7DmXzSatULqRrLN7soHm1k11s0k6Dci30lw-eMEq9AH5AM4RWQ0R8HX5cHB1o2HdmTURbbTMYntN91bZakWyS20FfAS5bWmoWVW8QV8T8AvG5dbO03ynhq1VC3f6i7yuuxac0t0XCfqUJAq6jAlVhwlCd4HektFPU3EFW73om7uH4dMXMu4UnZWgBmuTdnE6OfZpTYfPtOvU3itTWoDu5TOJCj5lxXiBVjxm6jpQMidH3B0Pd4e9hCyD8sDaO1EBXMJ8kYk9Ksb8GtxKIOZEmVIhhghQ4syTT_fOroLgw9l5gmcDG3QsidIN2_5TAIqDQM5FhtOcdzawa7HjnMXcPiuepXjJhgKDO7PBMM8BpXjGEqaCBmYglCm1JoIWvGMiedXX5uOSJHB27_SePnVnCi_SAeObfJc66qCn1hnjIjRNhly12sBjxF41PMwLvOE-HkmfqF_V9OZNFwfa-j9heKWwJDuOBHGe4eqZQLyxkcliX73dQ00VvO9pOvqvGAn5AdvoI-ku8PjiokcEym4ubPBDaMknfpNtJJobJlRc_ce4x8VUDIftVBqo7BDMpdLIYW1jRLJLb6L-ywEPvWxczsPXVTojRMApOf7sPMhxWgmm3A3Chk8kPGBogjcK4PWQxkWMjaU5YZFCU-SPL1i6Ia8IqZwY4MZLRImP_G1Xb5E_aGiHF9FQIE9vP-JRfbMTf6UEM9cLxKW6U5RAjkOWknQc8P8G_fD8bLmmvQId6moXZ9qGgHgp7aYrSZN4v2YUqb0h-ZqdugqaTEMI9MrKwHkbVjEaHhcVrcaLZodHMg1_wCYFQrH5nLoOocZ_0QXLcDCjI9vWY8Pobp4LcYyQXr4p3gj2CwJRWr_FVrMd1MkNhutSztXuWNzjbFT4d45wLQojIv7Tjmjs94zvzifkolIq_Bk6l6_nWyQVpRUQVXomrkzqi3ofdbGD9GE5qbStOInSUF2C8WZFu7LaoJsuhdPKJHpi-ODwXgkBY-OJ-Cek9xujU_9hujW0htQfn_z7i8eyQCW3FneFndJcIKymri4HyPKlS2V-vEQT-AxoInmQq-tmVKiyDeEwisimJsAPvu3t5l_RXPF_4JgF_uG9z01T_5aFB-7DtvKOQ_3UmUC0YXHCp-2Yudy4GNpEOmSCFKNDtwS776gTq-rqziuygIB3p24j_9xllXjCGuSC8RtS0x7GTEXjt1X8grg1SDzu6qFTU-ltRGc-OllJoLXxDtuCWGOrkNrFPZXNB-NmBodKzJl_pMi3sqwWEQZscFpUQ-gb_xGUebXMymt4QRDEloNyncQPvLoFaDpPsJCPzZgk7y3]--></g></svg>