<?xml version="1.0" encoding="us-ascii" standalone="no"?><svg xmlns="http://www.w3.org/2000/svg" xmlns:xlink="http://www.w3.org/1999/xlink" contentStyleType="text/css" height="1049.0625px" preserveAspectRatio="none" style="width:4964px;height:1049px;background:#FFFFFF;" version="1.1" viewBox="0 0 4964 1049" width="4964.0625px" zoomAndPan="magnify"><defs/><g><!--cluster Utilities--><g id="cluster_Utilities"><path d="M37.9688,225 L198.2813,225 A10.5469,10.5469 0 0 1 205.3125,232.0313 L225,289.7287 L3083.9063,289.7287 A7.0313,7.0313 0 0 1 3090.9375,296.7599 L3090.9375,774.8438 A7.0313,7.0313 0 0 1 3083.9063,781.875 L37.9688,781.875 A7.0313,7.0313 0 0 1 30.9375,774.8438 L30.9375,232.0313 A7.0313,7.0313 0 0 1 37.9688,225 " fill="#FFFFFF" style="stroke:#000000;stroke-width:2.8125;"/><line style="stroke:#000000;stroke-width:2.8125;" x1="30.9375" x2="225" y1="289.7287" y2="289.7287"/><text fill="#000000" font-family="Verdana" font-size="39.375" font-weight="bold" lengthAdjust="spacing" textLength="157.5" x="42.1875" y="270.2115">Utilities</text></g><!--class JsonUtilities--><g id="elem_JsonUtilities"><rect codeLine="6" fill="#FFFFFF" height="410.8722" id="JsonUtilities" rx="7.0313" ry="7.0313" style="stroke:#000000;stroke-width:2.8125;" width="964.6875" x="2079.8438" y="326.25"/><ellipse cx="2436.3281" cy="365.625" fill="#FFFFFF" rx="25.3125" ry="25.3125" style="stroke:#000000;stroke-width:2.8125;"/><path d="M2444.1064,369.9316 L2450.8301,372.041 Q2449.292,377.6221 2445.6885,380.3467 Q2442.1289,383.0713 2436.5918,383.0713 Q2429.7803,383.0713 2425.3857,378.4131 Q2421.0352,373.7549 2421.0352,365.6689 Q2421.0352,357.1436 2425.4297,352.4414 Q2429.8242,347.6953 2437.0313,347.6953 Q2443.3154,347.6953 2447.2266,351.3867 Q2449.5557,353.584 2450.7422,357.7148 L2443.8867,359.3408 Q2443.2715,356.6602 2441.3379,355.1221 Q2439.4482,353.584 2436.6797,353.584 Q2432.8564,353.584 2430.4834,356.3525 Q2428.1543,359.0771 2428.1543,365.1855 Q2428.1543,371.6455 2430.4834,374.4141 Q2432.8125,377.1826 2436.5479,377.1826 Q2439.3164,377.1826 2441.2939,375.4248 Q2443.2715,373.667 2444.1064,369.9316 Z " fill="#000000"/><text fill="#000000" font-family="Verdana" font-size="39.375" lengthAdjust="spacing" textLength="230.625" x="2485.5469" y="381.2846">JsonUtilities</text><line style="stroke:#000000;stroke-width:2.8125;" x1="2082.6563" x2="3041.7188" y1="405" y2="405"/><line style="stroke:#000000;stroke-width:2.8125;" x1="2082.6563" x2="3041.7188" y1="427.5" y2="427.5"/><ellipse cx="2110.7813" cy="466.8956" fill="#FFFFFF" rx="8.4375" ry="8.4375" style="stroke:#000000;stroke-width:2.8125;"/><text fill="#000000" font-family="Verdana" font-size="39.375" lengthAdjust="spacing" text-decoration="underline" textLength="821.25" x="2130.4688" y="478.3365">escribirJson(String, List&lt;Vehiculo&gt;): void</text><ellipse cx="2110.7813" cy="514.7493" fill="#FFFFFF" rx="8.4375" ry="8.4375" style="stroke:#000000;stroke-width:2.8125;"/><text fill="#000000" font-family="Verdana" font-size="39.375" lengthAdjust="spacing" text-decoration="underline" textLength="641.25" x="2130.4688" y="526.1902">leerJson(String): List&lt;Vehiculo&gt;</text><ellipse cx="2110.7813" cy="562.603" fill="#FFFFFF" rx="8.4375" ry="8.4375" style="stroke:#000000;stroke-width:2.8125;"/><text fill="#000000" font-family="Verdana" font-size="39.375" lengthAdjust="spacing" text-decoration="underline" textLength="810" x="2130.4688" y="574.0439">vehiculoFromJson(JSONObject): Vehiculo</text><ellipse cx="2110.7813" cy="610.4567" fill="#FFFFFF" rx="8.4375" ry="8.4375" style="stroke:#000000;stroke-width:2.8125;"/><text fill="#000000" font-family="Verdana" font-size="39.375" lengthAdjust="spacing" text-decoration="underline" textLength="675" x="2130.4688" y="621.8976">autoFromJson(JSONObject): Auto</text><ellipse cx="2110.7813" cy="658.3104" fill="#FFFFFF" rx="8.4375" ry="8.4375" style="stroke:#000000;stroke-width:2.8125;"/><text fill="#000000" font-family="Verdana" font-size="39.375" lengthAdjust="spacing" text-decoration="underline" textLength="691.875" x="2130.4688" y="669.7513">motoFromJson(JSONObject): Moto</text><ellipse cx="2110.7813" cy="706.1641" fill="#FFFFFF" rx="8.4375" ry="8.4375" style="stroke:#000000;stroke-width:2.8125;"/><text fill="#000000" font-family="Verdana" font-size="39.375" lengthAdjust="spacing" text-decoration="underline" textLength="897.1875" x="2130.4688" y="717.605">camionetaFromJson(JSONObject): Camioneta</text></g><!--class CsvUtilities--><g id="elem_CsvUtilities"><rect codeLine="15" fill="#FFFFFF" height="267.3111" id="CsvUtilities" rx="7.0313" ry="7.0313" style="stroke:#000000;stroke-width:2.8125;" width="871.875" x="1108.125" y="397.9688"/><ellipse cx="1426.6406" cy="437.3438" fill="#FFFFFF" rx="25.3125" ry="25.3125" style="stroke:#000000;stroke-width:2.8125;"/><path d="M1434.4189,441.6504 L1441.1426,443.7598 Q1439.6045,449.3408 1436.001,452.0654 Q1432.4414,454.79 1426.9043,454.79 Q1420.0928,454.79 1415.6982,450.1318 Q1411.3477,445.4736 1411.3477,437.3877 Q1411.3477,428.8623 1415.7422,424.1602 Q1420.1367,419.4141 1427.3438,419.4141 Q1433.6279,419.4141 1437.5391,423.1055 Q1439.8682,425.3027 1441.0547,429.4336 L1434.1992,431.0596 Q1433.584,428.3789 1431.6504,426.8408 Q1429.7607,425.3027 1426.9922,425.3027 Q1423.1689,425.3027 1420.7959,428.0713 Q1418.4668,430.7959 1418.4668,436.9043 Q1418.4668,443.3643 1420.7959,446.1328 Q1423.125,448.9014 1426.8604,448.9014 Q1429.6289,448.9014 1431.6064,447.1436 Q1433.584,445.3857 1434.4189,441.6504 Z " fill="#000000"/><text fill="#000000" font-family="Verdana" font-size="39.375" lengthAdjust="spacing" textLength="213.75" x="1475.8594" y="453.0034">CsvUtilities</text><line style="stroke:#000000;stroke-width:2.8125;" x1="1110.9375" x2="1977.1875" y1="476.7188" y2="476.7188"/><line style="stroke:#000000;stroke-width:2.8125;" x1="1110.9375" x2="1977.1875" y1="499.2188" y2="499.2188"/><ellipse cx="1139.0625" cy="538.6143" fill="#FFFFFF" rx="8.4375" ry="8.4375" style="stroke:#000000;stroke-width:2.8125;"/><text fill="#000000" font-family="Verdana" font-size="39.375" lengthAdjust="spacing" text-decoration="underline" textLength="804.375" x="1158.75" y="550.0552">escribirCsv(String, List&lt;Vehiculo&gt;): void</text><ellipse cx="1139.0625" cy="586.468" fill="#FFFFFF" rx="8.4375" ry="8.4375" style="stroke:#000000;stroke-width:2.8125;"/><text fill="#000000" font-family="Verdana" font-size="39.375" lengthAdjust="spacing" text-decoration="underline" textLength="624.375" x="1158.75" y="597.9089">leerCsv(String): List&lt;Vehiculo&gt;</text><ellipse cx="1139.0625" cy="634.3217" fill="#FFFFFF" rx="8.4375" ry="8.4375" style="stroke:#000000;stroke-width:2.8125;"/><text fill="#000000" font-family="Verdana" font-size="39.375" lengthAdjust="spacing" text-decoration="underline" textLength="759.375" x="1158.75" y="645.7626">vehiculoFromCsvLine(String): Vehiculo</text></g><!--class TxtUtilities--><g id="elem_TxtUtilities"><rect codeLine="21" fill="#FFFFFF" height="315.1648" id="TxtUtilities" rx="7.0313" ry="7.0313" style="stroke:#000000;stroke-width:2.8125;" width="933.75" x="75.9375" y="374.0625"/><ellipse cx="428.2031" cy="413.4375" fill="#FFFFFF" rx="25.3125" ry="25.3125" style="stroke:#000000;stroke-width:2.8125;"/><path d="M435.9814,417.7441 L442.7051,419.8535 Q441.167,425.4346 437.5635,428.1592 Q434.0039,430.8838 428.4668,430.8838 Q421.6553,430.8838 417.2607,426.2256 Q412.9102,421.5674 412.9102,413.4814 Q412.9102,404.9561 417.3047,400.2539 Q421.6992,395.5078 428.9063,395.5078 Q435.1904,395.5078 439.1016,399.1992 Q441.4307,401.3965 442.6172,405.5273 L435.7617,407.1533 Q435.1465,404.4727 433.2129,402.9346 Q431.3232,401.3965 428.5547,401.3965 Q424.7314,401.3965 422.3584,404.165 Q420.0293,406.8896 420.0293,412.998 Q420.0293,419.458 422.3584,422.2266 Q424.6875,424.9951 428.4229,424.9951 Q431.1914,424.9951 433.1689,423.2373 Q435.1465,421.4795 435.9814,417.7441 Z " fill="#000000"/><text fill="#000000" font-family="Verdana" font-size="39.375" lengthAdjust="spacing" textLength="208.125" x="477.4219" y="429.0971">TxtUtilities</text><line style="stroke:#000000;stroke-width:2.8125;" x1="78.75" x2="1006.875" y1="452.8125" y2="452.8125"/><line style="stroke:#000000;stroke-width:2.8125;" x1="78.75" x2="1006.875" y1="475.3125" y2="475.3125"/><ellipse cx="106.875" cy="514.7081" fill="#FFFFFF" rx="8.4375" ry="8.4375" style="stroke:#000000;stroke-width:2.8125;"/><text fill="#000000" font-family="Verdana" font-size="39.375" lengthAdjust="spacing" text-decoration="underline" textLength="798.75" x="126.5625" y="526.149">escribirTxt(String, List&lt;Vehiculo&gt;): void</text><ellipse cx="106.875" cy="562.5618" fill="#FFFFFF" rx="8.4375" ry="8.4375" style="stroke:#000000;stroke-width:2.8125;"/><text fill="#000000" font-family="Verdana" font-size="39.375" lengthAdjust="spacing" text-decoration="underline" textLength="618.75" x="126.5625" y="574.0027">leerTxt(String): List&lt;Vehiculo&gt;</text><ellipse cx="106.875" cy="610.4155" fill="#FFFFFF" rx="8.4375" ry="8.4375" style="stroke:#000000;stroke-width:2.8125;"/><text fill="#000000" font-family="Verdana" font-size="39.375" lengthAdjust="spacing" text-decoration="underline" textLength="790.3125" x="126.5625" y="621.8564">generarReporte(List&lt;Vehiculo&gt;): String</text><ellipse cx="106.875" cy="658.2692" fill="#FFFFFF" rx="8.4375" ry="8.4375" style="stroke:#000000;stroke-width:2.8125;"/><text fill="#000000" font-family="Verdana" font-size="39.375" lengthAdjust="spacing" text-decoration="underline" textLength="866.25" x="126.5625" y="669.7101">generarEstadisticas(List&lt;Vehiculo&gt;): String</text></g><!--class Vehiculo--><g id="elem_Vehiculo"><rect fill="#FFFFFF" height="123.75" id="Vehiculo" rx="7.0313" ry="7.0313" style="stroke:#000000;stroke-width:2.8125;" width="241.875" x="1423.125" y="905.625"/><ellipse cx="1459.6875" cy="945" fill="#FFFFFF" rx="25.3125" ry="25.3125" style="stroke:#000000;stroke-width:2.8125;"/><path d="M1467.4658,949.3066 L1474.1895,951.416 Q1472.6514,956.9971 1469.0479,959.7217 Q1465.4883,962.4463 1459.9512,962.4463 Q1453.1396,962.4463 1448.7451,957.7881 Q1444.3945,953.1299 1444.3945,945.0439 Q1444.3945,936.5186 1448.7891,931.8164 Q1453.1836,927.0703 1460.3906,927.0703 Q1466.6748,927.0703 1470.5859,930.7617 Q1472.915,932.959 1474.1016,937.0898 L1467.2461,938.7158 Q1466.6309,936.0352 1464.6973,934.4971 Q1462.8076,932.959 1460.0391,932.959 Q1456.2158,932.959 1453.8428,935.7275 Q1451.5137,938.4521 1451.5137,944.5605 Q1451.5137,951.0205 1453.8428,953.7891 Q1456.1719,956.5576 1459.9072,956.5576 Q1462.6758,956.5576 1464.6533,954.7998 Q1466.6309,953.042 1467.4658,949.3066 Z " fill="#000000"/><text fill="#000000" font-family="Verdana" font-size="39.375" lengthAdjust="spacing" textLength="163.125" x="1493.4375" y="960.6596">Vehiculo</text><line style="stroke:#000000;stroke-width:2.8125;" x1="1425.9375" x2="1662.1875" y1="984.375" y2="984.375"/><line style="stroke:#000000;stroke-width:2.8125;" x1="1425.9375" x2="1662.1875" y1="1006.875" y2="1006.875"/></g><!--class Auto--><g id="elem_Auto"><rect fill="#FFFFFF" height="123.75" id="Auto" rx="7.0313" ry="7.0313" style="stroke:#000000;stroke-width:2.8125;" width="174.375" x="1814.0625" y="905.625"/><ellipse cx="1850.625" cy="945" fill="#FFFFFF" rx="25.3125" ry="25.3125" style="stroke:#000000;stroke-width:2.8125;"/><path d="M1858.4033,949.3066 L1865.127,951.416 Q1863.5889,956.9971 1859.9854,959.7217 Q1856.4258,962.4463 1850.8887,962.4463 Q1844.0771,962.4463 1839.6826,957.7881 Q1835.332,953.1299 1835.332,945.0439 Q1835.332,936.5186 1839.7266,931.8164 Q1844.1211,927.0703 1851.3281,927.0703 Q1857.6123,927.0703 1861.5234,930.7617 Q1863.8525,932.959 1865.0391,937.0898 L1858.1836,938.7158 Q1857.5684,936.0352 1855.6348,934.4971 Q1853.7451,932.959 1850.9766,932.959 Q1847.1533,932.959 1844.7803,935.7275 Q1842.4512,938.4521 1842.4512,944.5605 Q1842.4512,951.0205 1844.7803,953.7891 Q1847.1094,956.5576 1850.8447,956.5576 Q1853.6133,956.5576 1855.5908,954.7998 Q1857.5684,953.042 1858.4033,949.3066 Z " fill="#000000"/><text fill="#000000" font-family="Verdana" font-size="39.375" lengthAdjust="spacing" textLength="95.625" x="1884.375" y="960.6596">Auto</text><line style="stroke:#000000;stroke-width:2.8125;" x1="1816.875" x2="1985.625" y1="984.375" y2="984.375"/><line style="stroke:#000000;stroke-width:2.8125;" x1="1816.875" x2="1985.625" y1="1006.875" y2="1006.875"/></g><!--class Moto--><g id="elem_Moto"><rect fill="#FFFFFF" height="123.75" id="Moto" rx="7.0313" ry="7.0313" style="stroke:#000000;stroke-width:2.8125;" width="177.1875" x="2113.5938" y="905.625"/><ellipse cx="2150.1563" cy="945" fill="#FFFFFF" rx="25.3125" ry="25.3125" style="stroke:#000000;stroke-width:2.8125;"/><path d="M2157.9346,949.3066 L2164.6582,951.416 Q2163.1201,956.9971 2159.5166,959.7217 Q2155.957,962.4463 2150.4199,962.4463 Q2143.6084,962.4463 2139.2139,957.7881 Q2134.8633,953.1299 2134.8633,945.0439 Q2134.8633,936.5186 2139.2578,931.8164 Q2143.6523,927.0703 2150.8594,927.0703 Q2157.1436,927.0703 2161.0547,930.7617 Q2163.3838,932.959 2164.5703,937.0898 L2157.7148,938.7158 Q2157.0996,936.0352 2155.166,934.4971 Q2153.2764,932.959 2150.5078,932.959 Q2146.6846,932.959 2144.3115,935.7275 Q2141.9824,938.4521 2141.9824,944.5605 Q2141.9824,951.0205 2144.3115,953.7891 Q2146.6406,956.5576 2150.376,956.5576 Q2153.1445,956.5576 2155.1221,954.7998 Q2157.0996,953.042 2157.9346,949.3066 Z " fill="#000000"/><text fill="#000000" font-family="Verdana" font-size="39.375" lengthAdjust="spacing" textLength="98.4375" x="2183.9063" y="960.6596">Moto</text><line style="stroke:#000000;stroke-width:2.8125;" x1="2116.4063" x2="2287.9688" y1="984.375" y2="984.375"/><line style="stroke:#000000;stroke-width:2.8125;" x1="2116.4063" x2="2287.9688" y1="1006.875" y2="1006.875"/></g><!--class Camioneta--><g id="elem_Camioneta"><rect fill="#FFFFFF" height="123.75" id="Camioneta" rx="7.0313" ry="7.0313" style="stroke:#000000;stroke-width:2.8125;" width="286.875" x="2404.6875" y="905.625"/><ellipse cx="2441.25" cy="945" fill="#FFFFFF" rx="25.3125" ry="25.3125" style="stroke:#000000;stroke-width:2.8125;"/><path d="M2449.0283,949.3066 L2455.752,951.416 Q2454.2139,956.9971 2450.6104,959.7217 Q2447.0508,962.4463 2441.5137,962.4463 Q2434.7021,962.4463 2430.3076,957.7881 Q2425.957,953.1299 2425.957,945.0439 Q2425.957,936.5186 2430.3516,931.8164 Q2434.7461,927.0703 2441.9531,927.0703 Q2448.2373,927.0703 2452.1484,930.7617 Q2454.4775,932.959 2455.6641,937.0898 L2448.8086,938.7158 Q2448.1934,936.0352 2446.2598,934.4971 Q2444.3701,932.959 2441.6016,932.959 Q2437.7783,932.959 2435.4053,935.7275 Q2433.0762,938.4521 2433.0762,944.5605 Q2433.0762,951.0205 2435.4053,953.7891 Q2437.7344,956.5576 2441.4697,956.5576 Q2444.2383,956.5576 2446.2158,954.7998 Q2448.1934,953.042 2449.0283,949.3066 Z " fill="#000000"/><text fill="#000000" font-family="Verdana" font-size="39.375" lengthAdjust="spacing" textLength="208.125" x="2475" y="960.6596">Camioneta</text><line style="stroke:#000000;stroke-width:2.8125;" x1="2407.5" x2="2688.75" y1="984.375" y2="984.375"/><line style="stroke:#000000;stroke-width:2.8125;" x1="2407.5" x2="2688.75" y1="1006.875" y2="1006.875"/></g><!--class AdministradorVehiculos--><g id="elem_AdministradorVehiculos"><rect fill="#FFFFFF" height="123.75" id="AdministradorVehiculos" rx="7.0313" ry="7.0313" style="stroke:#000000;stroke-width:2.8125;" width="542.8125" x="1272.6563" y="33.75"/><ellipse cx="1309.2188" cy="73.125" fill="#FFFFFF" rx="25.3125" ry="25.3125" style="stroke:#000000;stroke-width:2.8125;"/><path d="M1316.9971,77.4316 L1323.7207,79.541 Q1322.1826,85.1221 1318.5791,87.8467 Q1315.0195,90.5713 1309.4824,90.5713 Q1302.6709,90.5713 1298.2764,85.9131 Q1293.9258,81.2549 1293.9258,73.1689 Q1293.9258,64.6436 1298.3203,59.9414 Q1302.7148,55.1953 1309.9219,55.1953 Q1316.2061,55.1953 1320.1172,58.8867 Q1322.4463,61.084 1323.6328,65.2148 L1316.7773,66.8408 Q1316.1621,64.1602 1314.2285,62.6221 Q1312.3389,61.084 1309.5703,61.084 Q1305.7471,61.084 1303.374,63.8525 Q1301.0449,66.5771 1301.0449,72.6855 Q1301.0449,79.1455 1303.374,81.9141 Q1305.7031,84.6826 1309.4385,84.6826 Q1312.207,84.6826 1314.1846,82.9248 Q1316.1621,81.167 1316.9971,77.4316 Z " fill="#000000"/><text fill="#000000" font-family="Verdana" font-size="39.375" lengthAdjust="spacing" textLength="464.0625" x="1342.9688" y="88.7846">AdministradorVehiculos</text><line style="stroke:#000000;stroke-width:2.8125;" x1="1275.4688" x2="1812.6563" y1="112.5" y2="112.5"/><line style="stroke:#000000;stroke-width:2.8125;" x1="1275.4688" x2="1812.6563" y1="135" y2="135"/></g><g id="elem_GMN23"><path d="M3733.5938,472.5 L3733.5938,589.4962 L4338.2813,589.4962 L4338.2813,500.625 L4310.1563,472.5 L3733.5938,472.5 " fill="#FFFFFF" style="stroke:#000000;stroke-width:2.8125;"/><path d="M4310.1563,472.5 L4310.1563,500.625 L4338.2813,500.625 L4310.1563,472.5 " fill="#FFFFFF" style="stroke:#000000;stroke-width:2.8125;"/><text fill="#000000" font-family="Verdana" font-size="36.5625" lengthAdjust="spacing" textLength="545.625" x="3750.4688" y="523.3214">Serializaci&#243;n y deserializaci&#243;n</text><text fill="#000000" font-family="Verdana" font-size="36.5625" lengthAdjust="spacing" textLength="312.1875" x="3750.4688" y="567.757">en formato JSON</text></g><g id="elem_GMN26"><path d="M4436.7188,472.5 L4436.7188,589.4962 L4945.7813,589.4962 L4945.7813,500.625 L4917.6563,472.5 L4436.7188,472.5 " fill="#FFFFFF" style="stroke:#000000;stroke-width:2.8125;"/><path d="M4917.6563,472.5 L4917.6563,500.625 L4945.7813,500.625 L4917.6563,472.5 " fill="#FFFFFF" style="stroke:#000000;stroke-width:2.8125;"/><text fill="#000000" font-family="Verdana" font-size="36.5625" lengthAdjust="spacing" textLength="450" x="4453.5938" y="523.3214">Manejo de archivos CSV</text><text fill="#000000" font-family="Verdana" font-size="36.5625" lengthAdjust="spacing" textLength="419.0625" x="4453.5938" y="567.757">para importar/exportar</text></g><g id="elem_GMN29"><path d="M3142.9688,472.5 L3142.9688,589.4962 L3635.1563,589.4962 L3635.1563,500.625 L3607.0313,472.5 L3142.9688,472.5 " fill="#FFFFFF" style="stroke:#000000;stroke-width:2.8125;"/><path d="M3607.0313,472.5 L3607.0313,500.625 L3635.1563,500.625 L3607.0313,472.5 " fill="#FFFFFF" style="stroke:#000000;stroke-width:2.8125;"/><text fill="#000000" font-family="Verdana" font-size="36.5625" lengthAdjust="spacing" textLength="433.125" x="3159.8438" y="523.3214">Generaci&#243;n de reportes</text><text fill="#000000" font-family="Verdana" font-size="36.5625" lengthAdjust="spacing" textLength="362.8125" x="3159.8438" y="567.757">y archivos de texto</text></g><!--link JsonUtilities to Vehiculo--><g id="link_JsonUtilities_Vehiculo"><path codeLine="30" d="M2179.9969,737.1563 C2130.2719,760.9781 2079.6188,784.0125 2030.625,804.375 C1909.0969,854.9156 1781.6396,895.7878 1682.0771,925.3471 " fill="none" id="JsonUtilities-to-Vehiculo" style="stroke:#000000;stroke-width:2.8125;stroke-dasharray:7.0,7.0;"/><polygon fill="#000000" points="1665.9,930.15,1693.3675,933.7304,1679.3809,926.1476,1686.9637,912.161,1665.9,930.15" style="stroke:#000000;stroke-width:2.8125;"/></g><!--link JsonUtilities to Auto--><g id="link_JsonUtilities_Auto"><path codeLine="31" d="M2251.0688,736.9313 C2154.9656,799.4812 2070.8397,854.288 2003.0022,898.4443 " fill="none" id="JsonUtilities-to-Auto" style="stroke:#000000;stroke-width:2.8125;stroke-dasharray:7.0,7.0;"/><polygon fill="#000000" points="1988.8594,907.65,2016.2108,903.2699,2000.6451,899.9785,2003.9365,884.4128,1988.8594,907.65" style="stroke:#000000;stroke-width:2.8125;"/></g><!--link JsonUtilities to Moto--><g id="link_JsonUtilities_Moto"><path codeLine="32" d="M2392.7344,736.9313 C2341.2938,798.4125 2299.5564,848.301 2262.6845,892.3729 " fill="none" id="JsonUtilities-to-Moto" style="stroke:#000000;stroke-width:2.8125;stroke-dasharray:7.0,7.0;"/><polygon fill="#000000" points="2251.8563,905.3156,2276.7271,893.1204,2260.8798,894.53,2259.4702,878.6827,2251.8563,905.3156" style="stroke:#000000;stroke-width:2.8125;"/></g><!--link JsonUtilities to Camioneta--><g id="link_JsonUtilities_Camioneta"><path codeLine="33" d="M2555.5781,736.9313 C2553.5531,798.4125 2552.0489,844.3777 2550.6146,888.4496 " fill="none" id="JsonUtilities-to-Camioneta" style="stroke:#000000;stroke-width:2.8125;stroke-dasharray:7.0,7.0;"/><polygon fill="#000000" points="2550.0656,905.3156,2562.1331,880.3825,2550.5231,891.2606,2539.645,879.6506,2550.0656,905.3156" style="stroke:#000000;stroke-width:2.8125;"/></g><!--link CsvUtilities to Vehiculo--><g id="link_CsvUtilities_Vehiculo"><path codeLine="35" d="M1544.0625,665.8313 C1544.0625,745.3969 1544.0625,826.2281 1544.0625,887.7656 " fill="none" id="CsvUtilities-to-Vehiculo" style="stroke:#000000;stroke-width:2.8125;stroke-dasharray:7.0,7.0;"/><polygon fill="#000000" points="1544.0625,904.6406,1555.3125,879.3281,1544.0625,890.5781,1532.8125,879.3281,1544.0625,904.6406" style="stroke:#000000;stroke-width:2.8125;"/></g><!--link CsvUtilities to Auto--><g id="link_CsvUtilities_Auto"><path codeLine="36" d="M1653.1594,665.8313 C1719.225,745.3969 1789.5285,830.1209 1840.6316,891.6584 " fill="none" id="CsvUtilities-to-Auto" style="stroke:#000000;stroke-width:2.8125;stroke-dasharray:7.0,7.0;"/><polygon fill="#000000" points="1851.4125,904.6406,1843.8959,877.9801,1842.4284,893.8221,1826.5863,892.3546,1851.4125,904.6406" style="stroke:#000000;stroke-width:2.8125;"/></g><!--link CsvUtilities to Moto--><g id="link_CsvUtilities_Moto"><path codeLine="37" d="M1744.2,665.2406 C1867.5,745.8469 2005.3347,835.9789 2099.4691,897.5164 " fill="none" id="CsvUtilities-to-Moto" style="stroke:#000000;stroke-width:2.8125;stroke-dasharray:7.0,7.0;"/><polygon fill="#000000" points="2113.5938,906.75,2098.5625,883.4832,2101.8232,899.0553,2086.251,902.3161,2113.5938,906.75" style="stroke:#000000;stroke-width:2.8125;"/></g><!--link CsvUtilities to Camioneta--><g id="link_CsvUtilities_Camioneta"><path codeLine="38" d="M1757.25,665.1844 C1840.5844,712.9688 1938.2344,764.9156 2030.625,804.375 C2098.0969,833.175 2259.3012,881.7187 2387.6075,918.9 " fill="none" id="CsvUtilities-to-Camioneta" style="stroke:#000000;stroke-width:2.8125;stroke-dasharray:7.0,7.0;"/><polygon fill="#000000" points="2403.8156,923.5969,2382.6346,905.7461,2390.3088,919.6828,2376.3721,927.357,2403.8156,923.5969" style="stroke:#000000;stroke-width:2.8125;"/></g><!--link TxtUtilities to Vehiculo--><g id="link_TxtUtilities_Vehiculo"><path codeLine="40" d="M819.5063,689.2031 C896.3156,729.2531 980.5219,770.5969 1060.3125,804.375 C1180.8844,855.4219 1307.5546,896.2082 1406.6108,925.6269 " fill="none" id="TxtUtilities-to-Vehiculo" style="stroke:#000000;stroke-width:2.8125;stroke-dasharray:7.0,7.0;"/><polygon fill="#000000" points="1422.7875,930.4313,1401.7254,912.4403,1409.307,926.4277,1395.3196,934.0092,1422.7875,930.4313" style="stroke:#000000;stroke-width:2.8125;"/></g><!--link AdministradorVehiculos to JsonUtilities--><g id="link_AdministradorVehiculos_JsonUtilities"><path codeLine="42" d="M1816.6219,139.725 C1887.7219,155.0812 1963.2656,175.5563 2030.625,202.5 C2112.0469,235.0687 2180.7518,270.9587 2256.3236,316.7462 " fill="none" id="AdministradorVehiculos-to-JsonUtilities" style="stroke:#000000;stroke-width:2.8125;stroke-dasharray:7.0,7.0;"/><polygon fill="#000000" points="2270.7563,325.4906,2254.9369,302.7522,2258.7291,318.2036,2243.2777,321.9957,2270.7563,325.4906" style="stroke:#000000;stroke-width:2.8125;"/></g><!--link AdministradorVehiculos to CsvUtilities--><g id="link_AdministradorVehiculos_CsvUtilities"><path codeLine="43" d="M1544.0625,158.2594 C1544.0625,219.9375 1544.0625,301.1625 1544.0625,380.925 " fill="none" id="AdministradorVehiculos-to-CsvUtilities" style="stroke:#000000;stroke-width:2.8125;stroke-dasharray:7.0,7.0;"/><polygon fill="#000000" points="1544.0625,397.8,1555.3125,372.4875,1544.0625,383.7375,1532.8125,372.4875,1544.0625,397.8" style="stroke:#000000;stroke-width:2.8125;"/></g><!--link AdministradorVehiculos to TxtUtilities--><g id="link_AdministradorVehiculos_TxtUtilities"><path codeLine="44" d="M1271.6156,139.6125 C1201.3031,154.9406 1126.7438,175.4156 1060.3125,202.5 C952.6219,246.4031 856.3699,303.0162 765.4699,364.2162 " fill="none" id="AdministradorVehiculos-to-TxtUtilities" style="stroke:#000000;stroke-width:2.8125;stroke-dasharray:7.0,7.0;"/><polygon fill="#000000" points="751.4719,373.6406,778.7519,368.836,763.1369,365.7869,766.186,350.1719,751.4719,373.6406" style="stroke:#000000;stroke-width:2.8125;"/></g><!--link JsonUtilities to GMN23--><g id="link_JsonUtilities_GMN23"><path d="M2819.475,326.025 C2915.1281,263.6156 3028.3875,204.9469 3142.9688,180 C3249.8438,156.7406 3528.2813,156.7406 3635.1563,180 C3658.6688,185.1187 3664.4063,189.1125 3684.375,202.5 C3802.4156,281.6437 3918.7125,400.7813 3983.5406,471.9094 " fill="none" id="JsonUtilities-GMN23" style="stroke:#000000;stroke-width:2.8125;stroke-dasharray:7.0,7.0;"/></g><!--link CsvUtilities to GMN26--><g id="link_CsvUtilities_GMN26"><path d="M1684.9969,397.1531 C1785.8531,312.2719 1929.825,212.6531 2079.8438,180 C2202.4406,153.3094 4215.6844,153.3094 4338.2813,180 C4493.7844,213.8625 4608.0844,380.6719 4660.0875,471.825 " fill="none" id="CsvUtilities-GMN26" style="stroke:#000000;stroke-width:2.8125;stroke-dasharray:7.0,7.0;"/></g><!--link TxtUtilities to GMN29--><g id="link_TxtUtilities_GMN29"><path d="M725.0344,373.7813 C829.6875,295.3406 968.1188,210.7969 1109.5313,180 C1214.4094,157.1625 2936.8406,157.1625 3041.7188,180 C3196.4063,213.6656 3308.5406,381.4313 3359.1094,472.5 " fill="none" id="TxtUtilities-GMN29" style="stroke:#000000;stroke-width:2.8125;stroke-dasharray:7.0,7.0;"/></g><!--SRC=[dPJ1Rjim38RlUWesbxLOaGNOQSLG80Yw0KMt0itQKowip2HCRScGr21TaQVQ8-p5IjlDRCLEaCNmmIRvaT9FIYTXJXb1dY8RvJMc18F-5-MVsEJeC8CaP_Wy62YLetx26K7lFd3AWSdtu5M1F3f5x-7QM_FFzUufde_mwWC6rciWhnq_iYj2JyV1iPcTmmtxyFM1vgoVKtjvTW5BoqaNdH8rIOcCqIvc-UxyvcnMijVZsv-tZmlIGVWDsaNYSzX13SNJHMHs5_73TXCQCxQ60dPZeusxPDUg8VR8Bm_KMYAFaxe6_rjfGM_OK8r7GaSR-RKA1sv48e_RI0qUj94P6NBexYYtBj1fgrILQWzv9V-9KApHxyNNIgJu07UKeYuQxI4XUNCo2HdDgE8ZrUzVraAsNULOjitbxBNDzMofQ9QY8YrFMQDbBKkqh8qAKPEZ2cgOP6n48uU9THjp5HGjUbzWi_I-kEOob38s43YUpGFOwTRj9MqYnvZoR-dCtpy6NgGlFZ9D31cOMfTXi50Ssws4aHvo1Q2XXIqQZ4xFUIbB6eqV9kKb2vmLiuRk4wsgZwrSaNuNyBsSisfXaj1La-edvgLEBlP0A-dB6m00]--></g></svg>