<?xml version="1.0" encoding="us-ascii" standalone="no"?><svg xmlns="http://www.w3.org/2000/svg" xmlns:xlink="http://www.w3.org/1999/xlink" contentStyleType="text/css" height="1912.5px" preserveAspectRatio="none" style="width:5318px;height:1912px;background:#FFFFFF;" version="1.1" viewBox="0 0 5318 1912" width="5318.4375px" zoomAndPan="magnify"><defs/><g><!--cluster Exceptions--><g id="cluster_Exceptions"><path d="M274.2188,942.5813 L513.2813,942.5813 A10.5469,10.5469 0 0 1 520.3125,949.6125 L540,1007.3099 L2169.8438,1007.3099 A7.0313,7.0313 0 0 1 2176.875,1014.3412 L2176.875,1886.175 A7.0313,7.0313 0 0 1 2169.8438,1893.2063 L274.2188,1893.2063 A7.0313,7.0313 0 0 1 267.1875,1886.175 L267.1875,949.6125 A7.0313,7.0313 0 0 1 274.2188,942.5813 " fill="#FFFFFF" style="stroke:#000000;stroke-width:2.8125;"/><line style="stroke:#000000;stroke-width:2.8125;" x1="267.1875" x2="540" y1="1007.3099" y2="1007.3099"/><text fill="#000000" font-family="Verdana" font-size="39.375" font-weight="bold" lengthAdjust="spacing" textLength="236.25" x="278.4375" y="987.7927">Exceptions</text></g><!--cluster Validations--><g id="cluster_Validations"><path d="M37.9688,222.5812 L279.8438,222.5812 A10.5469,10.5469 0 0 1 286.875,229.6125 L306.5625,287.3099 L4715.1563,287.3099 A7.0313,7.0313 0 0 1 4722.1875,294.3412 L4722.1875,868.05 A7.0313,7.0313 0 0 1 4715.1563,875.0813 L37.9688,875.0813 A7.0313,7.0313 0 0 1 30.9375,868.05 L30.9375,229.6125 A7.0313,7.0313 0 0 1 37.9688,222.5812 " fill="#FFFFFF" style="stroke:#000000;stroke-width:2.8125;"/><line style="stroke:#000000;stroke-width:2.8125;" x1="30.9375" x2="306.5625" y1="287.3099" y2="287.3099"/><text fill="#000000" font-family="Verdana" font-size="39.375" font-weight="bold" lengthAdjust="spacing" textLength="239.0625" x="42.1875" y="267.7927">Validations</text></g><!--class DatoErroneoException--><g id="elem_DatoErroneoException"><rect codeLine="6" fill="#FFFFFF" height="171.6037" id="DatoErroneoException" rx="7.0313" ry="7.0313" style="stroke:#000000;stroke-width:2.8125;" width="781.875" x="1321.875" y="1043.8313"/><ellipse cx="1478.6719" cy="1083.2063" fill="#FFFFFF" rx="25.3125" ry="25.3125" style="stroke:#000000;stroke-width:2.8125;"/><path d="M1486.4502,1087.5129 L1493.1738,1089.6223 Q1491.6357,1095.2033 1488.0322,1097.9279 Q1484.4727,1100.6525 1478.9355,1100.6525 Q1472.124,1100.6525 1467.7295,1095.9943 Q1463.3789,1091.3361 1463.3789,1083.2502 Q1463.3789,1074.7248 1467.7734,1070.0227 Q1472.168,1065.2766 1479.375,1065.2766 Q1485.6592,1065.2766 1489.5703,1068.968 Q1491.8994,1071.1652 1493.0859,1075.2961 L1486.2305,1076.9221 Q1485.6152,1074.2414 1483.6816,1072.7033 Q1481.792,1071.1652 1479.0234,1071.1652 Q1475.2002,1071.1652 1472.8271,1073.9338 Q1470.498,1076.6584 1470.498,1082.7668 Q1470.498,1089.2268 1472.8271,1091.9953 Q1475.1563,1094.7639 1478.8916,1094.7639 Q1481.6602,1094.7639 1483.6377,1093.0061 Q1485.6152,1091.2482 1486.4502,1087.5129 Z " fill="#000000"/><text fill="#000000" font-family="Verdana" font-size="39.375" lengthAdjust="spacing" textLength="447.1875" x="1527.8906" y="1098.8659">DatoErroneoException</text><line style="stroke:#000000;stroke-width:2.8125;" x1="1324.6875" x2="2100.9375" y1="1122.5813" y2="1122.5813"/><line style="stroke:#000000;stroke-width:2.8125;" x1="1324.6875" x2="2100.9375" y1="1145.0813" y2="1145.0813"/><ellipse cx="1352.8125" cy="1184.4768" fill="#FFFFFF" rx="8.4375" ry="8.4375" style="stroke:#000000;stroke-width:2.8125;"/><text fill="#000000" font-family="Verdana" font-size="39.375" lengthAdjust="spacing" textLength="714.375" x="1372.5" y="1195.9177">DatoErroneoException(String): void</text></g><!--class Exception--><g id="elem_Exception"><rect fill="#FFFFFF" height="123.75" id="Exception" rx="7.0313" ry="7.0313" style="stroke:#000000;stroke-width:2.8125;" width="272.8125" x="1559.5313" y="1384.1438"/><ellipse cx="1596.0938" cy="1423.5188" fill="#FFFFFF" rx="25.3125" ry="25.3125" style="stroke:#000000;stroke-width:2.8125;"/><path d="M1603.8721,1427.8254 L1610.5957,1429.9348 Q1609.0576,1435.5158 1605.4541,1438.2404 Q1601.8945,1440.965 1596.3574,1440.965 Q1589.5459,1440.965 1585.1514,1436.3068 Q1580.8008,1431.6486 1580.8008,1423.5627 Q1580.8008,1415.0373 1585.1953,1410.3352 Q1589.5898,1405.5891 1596.7969,1405.5891 Q1603.0811,1405.5891 1606.9922,1409.2805 Q1609.3213,1411.4777 1610.5078,1415.6086 L1603.6523,1417.2346 Q1603.0371,1414.5539 1601.1035,1413.0158 Q1599.2139,1411.4777 1596.4453,1411.4777 Q1592.6221,1411.4777 1590.249,1414.2463 Q1587.9199,1416.9709 1587.9199,1423.0793 Q1587.9199,1429.5393 1590.249,1432.3078 Q1592.5781,1435.0764 1596.3135,1435.0764 Q1599.082,1435.0764 1601.0596,1433.3186 Q1603.0371,1431.5607 1603.8721,1427.8254 Z " fill="#000000"/><text fill="#000000" font-family="Verdana" font-size="39.375" lengthAdjust="spacing" textLength="194.0625" x="1629.8438" y="1439.1784">Exception</text><line style="stroke:#000000;stroke-width:2.8125;" x1="1562.3438" x2="1829.5313" y1="1462.8938" y2="1462.8938"/><line style="stroke:#000000;stroke-width:2.8125;" x1="1562.3438" x2="1829.5313" y1="1485.3938" y2="1485.3938"/></g><!--class PatenteRepetidaException--><g id="elem_PatenteRepetidaException"><rect codeLine="10" fill="#FFFFFF" height="171.6037" id="PatenteRepetidaException" rx="7.0313" ry="7.0313" style="stroke:#000000;stroke-width:2.8125;" width="849.375" x="312.1875" y="1676.6438"/><ellipse cx="468.9844" cy="1716.0188" fill="#FFFFFF" rx="25.3125" ry="25.3125" style="stroke:#000000;stroke-width:2.8125;"/><path d="M476.7627,1720.3254 L483.4863,1722.4348 Q481.9482,1728.0158 478.3447,1730.7404 Q474.7852,1733.465 469.248,1733.465 Q462.4365,1733.465 458.042,1728.8068 Q453.6914,1724.1486 453.6914,1716.0627 Q453.6914,1707.5373 458.0859,1702.8352 Q462.4805,1698.0891 469.6875,1698.0891 Q475.9717,1698.0891 479.8828,1701.7805 Q482.2119,1703.9777 483.3984,1708.1086 L476.543,1709.7346 Q475.9277,1707.0539 473.9941,1705.5158 Q472.1045,1703.9777 469.3359,1703.9777 Q465.5127,1703.9777 463.1396,1706.7463 Q460.8105,1709.4709 460.8105,1715.5793 Q460.8105,1722.0393 463.1396,1724.8078 Q465.4688,1727.5764 469.2041,1727.5764 Q471.9727,1727.5764 473.9502,1725.8186 Q475.9277,1724.0607 476.7627,1720.3254 Z " fill="#000000"/><text fill="#000000" font-family="Verdana" font-size="39.375" lengthAdjust="spacing" textLength="514.6875" x="518.2031" y="1731.6784">PatenteRepetidaException</text><line style="stroke:#000000;stroke-width:2.8125;" x1="315" x2="1158.75" y1="1755.3938" y2="1755.3938"/><line style="stroke:#000000;stroke-width:2.8125;" x1="315" x2="1158.75" y1="1777.8938" y2="1777.8938"/><ellipse cx="343.125" cy="1817.2893" fill="#FFFFFF" rx="8.4375" ry="8.4375" style="stroke:#000000;stroke-width:2.8125;"/><text fill="#000000" font-family="Verdana" font-size="39.375" lengthAdjust="spacing" textLength="781.875" x="362.8125" y="1828.7302">PatenteRepetidaException(String): void</text></g><!--class VehiculoAlquiladoException--><g id="elem_VehiculoAlquiladoException"><rect codeLine="14" fill="#FFFFFF" height="171.6037" id="VehiculoAlquiladoException" rx="7.0313" ry="7.0313" style="stroke:#000000;stroke-width:2.8125;" width="869.0625" x="1261.4063" y="1676.6438"/><ellipse cx="1418.2031" cy="1716.0188" fill="#FFFFFF" rx="25.3125" ry="25.3125" style="stroke:#000000;stroke-width:2.8125;"/><path d="M1425.9814,1720.3254 L1432.7051,1722.4348 Q1431.167,1728.0158 1427.5635,1730.7404 Q1424.0039,1733.465 1418.4668,1733.465 Q1411.6553,1733.465 1407.2607,1728.8068 Q1402.9102,1724.1486 1402.9102,1716.0627 Q1402.9102,1707.5373 1407.3047,1702.8352 Q1411.6992,1698.0891 1418.9063,1698.0891 Q1425.1904,1698.0891 1429.1016,1701.7805 Q1431.4307,1703.9777 1432.6172,1708.1086 L1425.7617,1709.7346 Q1425.1465,1707.0539 1423.2129,1705.5158 Q1421.3232,1703.9777 1418.5547,1703.9777 Q1414.7314,1703.9777 1412.3584,1706.7463 Q1410.0293,1709.4709 1410.0293,1715.5793 Q1410.0293,1722.0393 1412.3584,1724.8078 Q1414.6875,1727.5764 1418.4229,1727.5764 Q1421.1914,1727.5764 1423.1689,1725.8186 Q1425.1465,1724.0607 1425.9814,1720.3254 Z " fill="#000000"/><text fill="#000000" font-family="Verdana" font-size="39.375" lengthAdjust="spacing" textLength="534.375" x="1467.4219" y="1731.6784">VehiculoAlquiladoException</text><line style="stroke:#000000;stroke-width:2.8125;" x1="1264.2188" x2="2127.6563" y1="1755.3938" y2="1755.3938"/><line style="stroke:#000000;stroke-width:2.8125;" x1="1264.2188" x2="2127.6563" y1="1777.8938" y2="1777.8938"/><ellipse cx="1292.3438" cy="1817.2893" fill="#FFFFFF" rx="8.4375" ry="8.4375" style="stroke:#000000;stroke-width:2.8125;"/><text fill="#000000" font-family="Verdana" font-size="39.375" lengthAdjust="spacing" textLength="801.5625" x="1312.0313" y="1828.7302">VehiculoAlquiladoException(String): void</text></g><!--class ValidadorAtributosVehiculo--><g id="elem_ValidadorAtributosVehiculo"><rect codeLine="20" fill="#FFFFFF" height="506.5796" id="ValidadorAtributosVehiculo" rx="7.0313" ry="7.0313" style="stroke:#000000;stroke-width:2.8125;" width="998.4375" x="77.3438" y="323.8312"/><ellipse cx="300.2344" cy="363.2062" fill="#FFFFFF" rx="25.3125" ry="25.3125" style="stroke:#000000;stroke-width:2.8125;"/><path d="M308.0127,367.5129 L314.7363,369.6223 Q313.1982,375.2033 309.5947,377.9279 Q306.0352,380.6525 300.498,380.6525 Q293.6865,380.6525 289.292,375.9943 Q284.9414,371.3361 284.9414,363.2502 Q284.9414,354.7248 289.3359,350.0227 Q293.7305,345.2766 300.9375,345.2766 Q307.2217,345.2766 311.1328,348.968 Q313.4619,351.1652 314.6484,355.2961 L307.793,356.9221 Q307.1777,354.2414 305.2441,352.7033 Q303.3545,351.1652 300.5859,351.1652 Q296.7627,351.1652 294.3896,353.9338 Q292.0605,356.6584 292.0605,362.7668 Q292.0605,369.2268 294.3896,371.9953 Q296.7188,374.7639 300.4541,374.7639 Q303.2227,374.7639 305.2002,373.0061 Q307.1777,371.2482 308.0127,367.5129 Z " fill="#000000"/><text fill="#000000" font-family="Verdana" font-size="39.375" lengthAdjust="spacing" textLength="531.5625" x="349.4531" y="378.8659">ValidadorAtributosVehiculo</text><line style="stroke:#000000;stroke-width:2.8125;" x1="80.1563" x2="1072.9688" y1="402.5812" y2="402.5812"/><line style="stroke:#000000;stroke-width:2.8125;" x1="80.1563" x2="1072.9688" y1="425.0812" y2="425.0812"/><ellipse cx="108.2813" cy="464.4768" fill="#FFFFFF" rx="8.4375" ry="8.4375" style="stroke:#000000;stroke-width:2.8125;"/><text fill="#000000" font-family="Verdana" font-size="39.375" lengthAdjust="spacing" text-decoration="underline" textLength="787.5" x="127.9688" y="475.9177">validarPatenteVieja(String, String): void</text><ellipse cx="108.2813" cy="512.3305" fill="#FFFFFF" rx="8.4375" ry="8.4375" style="stroke:#000000;stroke-width:2.8125;"/><text fill="#000000" font-family="Verdana" font-size="39.375" lengthAdjust="spacing" text-decoration="underline" textLength="689.0625" x="127.9688" y="523.7714">validarA&#241;oFabricacion(String): void</text><ellipse cx="108.2813" cy="560.1842" fill="#FFFFFF" rx="8.4375" ry="8.4375" style="stroke:#000000;stroke-width:2.8125;"/><text fill="#000000" font-family="Verdana" font-size="39.375" lengthAdjust="spacing" text-decoration="underline" textLength="930.9375" x="127.9688" y="571.6251">validarTipoCombustible(TipoCombustible): void</text><ellipse cx="108.2813" cy="608.0379" fill="#FFFFFF" rx="8.4375" ry="8.4375" style="stroke:#000000;stroke-width:2.8125;"/><text fill="#000000" font-family="Verdana" font-size="39.375" lengthAdjust="spacing" text-decoration="underline" textLength="874.6875" x="127.9688" y="619.4788">validarEstadoVehiculo(EstadoVehiculo): void</text><ellipse cx="108.2813" cy="655.8916" fill="#FFFFFF" rx="8.4375" ry="8.4375" style="stroke:#000000;stroke-width:2.8125;"/><text fill="#000000" font-family="Verdana" font-size="39.375" lengthAdjust="spacing" text-decoration="underline" textLength="615.9375" x="127.9688" y="667.3325">validarKilometraje(String): void</text><ellipse cx="108.2813" cy="703.7453" fill="#FFFFFF" rx="8.4375" ry="8.4375" style="stroke:#000000;stroke-width:2.8125;"/><text fill="#000000" font-family="Verdana" font-size="39.375" lengthAdjust="spacing" text-decoration="underline" textLength="720" x="127.9688" y="715.1862">validarFechaFutura(DatePicker): void</text><rect fill="#FFFFFF" height="16.875" style="stroke:#000000;stroke-width:2.8125;" width="16.875" x="99.8438" y="743.1615"/><text fill="#000000" font-family="Verdana" font-size="39.375" lengthAdjust="spacing" text-decoration="underline" textLength="450" x="127.9688" y="763.0399">esLetra(char): boolean</text><rect fill="#FFFFFF" height="16.875" style="stroke:#000000;stroke-width:2.8125;" width="16.875" x="99.8438" y="791.0152"/><text fill="#000000" font-family="Verdana" font-size="39.375" lengthAdjust="spacing" text-decoration="underline" textLength="464.0625" x="127.9688" y="810.8936">esDigito(char): boolean</text></g><!--class ValidadorAtributosAuto--><g id="elem_ValidadorAtributosAuto"><rect codeLine="32" fill="#FFFFFF" height="267.3111" id="ValidadorAtributosAuto" rx="7.0313" ry="7.0313" style="stroke:#000000;stroke-width:2.8125;" width="1077.1875" x="1174.2188" y="443.3625"/><ellipse cx="1470.2344" cy="482.7375" fill="#FFFFFF" rx="25.3125" ry="25.3125" style="stroke:#000000;stroke-width:2.8125;"/><path d="M1478.0127,487.0441 L1484.7363,489.1535 Q1483.1982,494.7346 1479.5947,497.4592 Q1476.0352,500.1838 1470.498,500.1838 Q1463.6865,500.1838 1459.292,495.5256 Q1454.9414,490.8674 1454.9414,482.7814 Q1454.9414,474.2561 1459.3359,469.5539 Q1463.7305,464.8078 1470.9375,464.8078 Q1477.2217,464.8078 1481.1328,468.4992 Q1483.4619,470.6965 1484.6484,474.8273 L1477.793,476.4533 Q1477.1777,473.7727 1475.2441,472.2346 Q1473.3545,470.6965 1470.5859,470.6965 Q1466.7627,470.6965 1464.3896,473.465 Q1462.0605,476.1896 1462.0605,482.298 Q1462.0605,488.758 1464.3896,491.5266 Q1466.7188,494.2951 1470.4541,494.2951 Q1473.2227,494.2951 1475.2002,492.5373 Q1477.1777,490.7795 1478.0127,487.0441 Z " fill="#000000"/><text fill="#000000" font-family="Verdana" font-size="39.375" lengthAdjust="spacing" textLength="464.0625" x="1519.4531" y="498.3971">ValidadorAtributosAuto</text><line style="stroke:#000000;stroke-width:2.8125;" x1="1177.0313" x2="2248.5938" y1="522.1125" y2="522.1125"/><line style="stroke:#000000;stroke-width:2.8125;" x1="1177.0313" x2="2248.5938" y1="544.6125" y2="544.6125"/><ellipse cx="1205.1563" cy="584.0081" fill="#FFFFFF" rx="8.4375" ry="8.4375" style="stroke:#000000;stroke-width:2.8125;"/><text fill="#000000" font-family="Verdana" font-size="39.375" lengthAdjust="spacing" text-decoration="underline" textLength="506.25" x="1224.8438" y="595.449">validarMarca(String): void</text><ellipse cx="1205.1563" cy="631.8618" fill="#FFFFFF" rx="8.4375" ry="8.4375" style="stroke:#000000;stroke-width:2.8125;"/><text fill="#000000" font-family="Verdana" font-size="39.375" lengthAdjust="spacing" text-decoration="underline" textLength="632.8125" x="1224.8438" y="643.3027">validarNumPuertas(String): void</text><rect fill="#FFFFFF" height="16.875" style="stroke:#000000;stroke-width:2.8125;" width="16.875" x="1196.7188" y="671.278"/><text fill="#000000" font-family="Verdana" font-size="39.375" lengthAdjust="spacing" text-decoration="underline" textLength="1009.6875" x="1224.8438" y="691.1564">validarRangoNumerico(String, int, int, String): void</text></g><!--class ValidadorAtributosMoto--><g id="elem_ValidadorAtributosMoto"><rect codeLine="39" fill="#FFFFFF" height="267.3111" id="ValidadorAtributosMoto" rx="7.0313" ry="7.0313" style="stroke:#000000;stroke-width:2.8125;" width="1077.1875" x="2349.8438" y="443.3625"/><ellipse cx="2644.4531" cy="482.7375" fill="#FFFFFF" rx="25.3125" ry="25.3125" style="stroke:#000000;stroke-width:2.8125;"/><path d="M2652.2314,487.0441 L2658.9551,489.1535 Q2657.417,494.7346 2653.8135,497.4592 Q2650.2539,500.1838 2644.7168,500.1838 Q2637.9053,500.1838 2633.5107,495.5256 Q2629.1602,490.8674 2629.1602,482.7814 Q2629.1602,474.2561 2633.5547,469.5539 Q2637.9492,464.8078 2645.1563,464.8078 Q2651.4404,464.8078 2655.3516,468.4992 Q2657.6807,470.6965 2658.8672,474.8273 L2652.0117,476.4533 Q2651.3965,473.7727 2649.4629,472.2346 Q2647.5732,470.6965 2644.8047,470.6965 Q2640.9814,470.6965 2638.6084,473.465 Q2636.2793,476.1896 2636.2793,482.298 Q2636.2793,488.758 2638.6084,491.5266 Q2640.9375,494.2951 2644.6729,494.2951 Q2647.4414,494.2951 2649.4189,492.5373 Q2651.3965,490.7795 2652.2314,487.0441 Z " fill="#000000"/><text fill="#000000" font-family="Verdana" font-size="39.375" lengthAdjust="spacing" textLength="466.875" x="2693.6719" y="498.3971">ValidadorAtributosMoto</text><line style="stroke:#000000;stroke-width:2.8125;" x1="2352.6563" x2="3424.2188" y1="522.1125" y2="522.1125"/><line style="stroke:#000000;stroke-width:2.8125;" x1="2352.6563" x2="3424.2188" y1="544.6125" y2="544.6125"/><ellipse cx="2380.7813" cy="584.0081" fill="#FFFFFF" rx="8.4375" ry="8.4375" style="stroke:#000000;stroke-width:2.8125;"/><text fill="#000000" font-family="Verdana" font-size="39.375" lengthAdjust="spacing" text-decoration="underline" textLength="506.25" x="2400.4688" y="595.449">validarMarca(String): void</text><ellipse cx="2380.7813" cy="631.8618" fill="#FFFFFF" rx="8.4375" ry="8.4375" style="stroke:#000000;stroke-width:2.8125;"/><text fill="#000000" font-family="Verdana" font-size="39.375" lengthAdjust="spacing" text-decoration="underline" textLength="585" x="2400.4688" y="643.3027">validarCilindrada(String): void</text><rect fill="#FFFFFF" height="16.875" style="stroke:#000000;stroke-width:2.8125;" width="16.875" x="2372.3438" y="671.278"/><text fill="#000000" font-family="Verdana" font-size="39.375" lengthAdjust="spacing" text-decoration="underline" textLength="1009.6875" x="2400.4688" y="691.1564">validarRangoNumerico(String, int, int, String): void</text></g><!--class ValidadorAtributosCamioneta--><g id="elem_ValidadorAtributosCamioneta"><rect codeLine="46" fill="#FFFFFF" height="267.3111" id="ValidadorAtributosCamioneta" rx="7.0313" ry="7.0313" style="stroke:#000000;stroke-width:2.8125;" width="1150.3125" x="3525.4688" y="443.3625"/><ellipse cx="3801.7969" cy="482.7375" fill="#FFFFFF" rx="25.3125" ry="25.3125" style="stroke:#000000;stroke-width:2.8125;"/><path d="M3809.5752,487.0441 L3816.2988,489.1535 Q3814.7607,494.7346 3811.1572,497.4592 Q3807.5977,500.1838 3802.0605,500.1838 Q3795.249,500.1838 3790.8545,495.5256 Q3786.5039,490.8674 3786.5039,482.7814 Q3786.5039,474.2561 3790.8984,469.5539 Q3795.293,464.8078 3802.5,464.8078 Q3808.7842,464.8078 3812.6953,468.4992 Q3815.0244,470.6965 3816.2109,474.8273 L3809.3555,476.4533 Q3808.7402,473.7727 3806.8066,472.2346 Q3804.917,470.6965 3802.1484,470.6965 Q3798.3252,470.6965 3795.9521,473.465 Q3793.623,476.1896 3793.623,482.298 Q3793.623,488.758 3795.9521,491.5266 Q3798.2813,494.2951 3802.0166,494.2951 Q3804.7852,494.2951 3806.7627,492.5373 Q3808.7402,490.7795 3809.5752,487.0441 Z " fill="#000000"/><text fill="#000000" font-family="Verdana" font-size="39.375" lengthAdjust="spacing" textLength="576.5625" x="3851.0156" y="498.3971">ValidadorAtributosCamioneta</text><line style="stroke:#000000;stroke-width:2.8125;" x1="3528.2813" x2="4672.9688" y1="522.1125" y2="522.1125"/><line style="stroke:#000000;stroke-width:2.8125;" x1="3528.2813" x2="4672.9688" y1="544.6125" y2="544.6125"/><ellipse cx="3556.4063" cy="584.0081" fill="#FFFFFF" rx="8.4375" ry="8.4375" style="stroke:#000000;stroke-width:2.8125;"/><text fill="#000000" font-family="Verdana" font-size="39.375" lengthAdjust="spacing" text-decoration="underline" textLength="506.25" x="3576.0938" y="595.449">validarMarca(String): void</text><ellipse cx="3556.4063" cy="631.8618" fill="#FFFFFF" rx="8.4375" ry="8.4375" style="stroke:#000000;stroke-width:2.8125;"/><text fill="#000000" font-family="Verdana" font-size="39.375" lengthAdjust="spacing" text-decoration="underline" textLength="708.75" x="3576.0938" y="643.3027">validarCapacidadCarga(String): void</text><rect fill="#FFFFFF" height="16.875" style="stroke:#000000;stroke-width:2.8125;" width="16.875" x="3547.9688" y="671.278"/><text fill="#000000" font-family="Verdana" font-size="39.375" lengthAdjust="spacing" text-decoration="underline" textLength="1082.8125" x="3576.0938" y="691.1564">validarRangoNumerico(String, float, float, String): void</text></g><!--class Auto--><g id="elem_Auto"><rect fill="#FFFFFF" height="123.75" id="Auto" rx="7.0313" ry="7.0313" style="stroke:#000000;stroke-width:2.8125;" width="174.375" x="2221.875" y="1067.7375"/><ellipse cx="2258.4375" cy="1107.1125" fill="#FFFFFF" rx="25.3125" ry="25.3125" style="stroke:#000000;stroke-width:2.8125;"/><path d="M2266.2158,1111.4191 L2272.9395,1113.5285 Q2271.4014,1119.1096 2267.7979,1121.8342 Q2264.2383,1124.5588 2258.7012,1124.5588 Q2251.8896,1124.5588 2247.4951,1119.9006 Q2243.1445,1115.2424 2243.1445,1107.1564 Q2243.1445,1098.6311 2247.5391,1093.9289 Q2251.9336,1089.1828 2259.1406,1089.1828 Q2265.4248,1089.1828 2269.3359,1092.8742 Q2271.665,1095.0715 2272.8516,1099.2023 L2265.9961,1100.8283 Q2265.3809,1098.1477 2263.4473,1096.6096 Q2261.5576,1095.0715 2258.7891,1095.0715 Q2254.9658,1095.0715 2252.5928,1097.84 Q2250.2637,1100.5646 2250.2637,1106.673 Q2250.2637,1113.133 2252.5928,1115.9016 Q2254.9219,1118.6701 2258.6572,1118.6701 Q2261.4258,1118.6701 2263.4033,1116.9123 Q2265.3809,1115.1545 2266.2158,1111.4191 Z " fill="#000000"/><text fill="#000000" font-family="Verdana" font-size="39.375" lengthAdjust="spacing" textLength="95.625" x="2292.1875" y="1122.7721">Auto</text><line style="stroke:#000000;stroke-width:2.8125;" x1="2224.6875" x2="2393.4375" y1="1146.4875" y2="1146.4875"/><line style="stroke:#000000;stroke-width:2.8125;" x1="2224.6875" x2="2393.4375" y1="1168.9875" y2="1168.9875"/></g><!--class Moto--><g id="elem_Moto"><rect fill="#FFFFFF" height="123.75" id="Moto" rx="7.0313" ry="7.0313" style="stroke:#000000;stroke-width:2.8125;" width="177.1875" x="2799.8438" y="1067.7375"/><ellipse cx="2836.4063" cy="1107.1125" fill="#FFFFFF" rx="25.3125" ry="25.3125" style="stroke:#000000;stroke-width:2.8125;"/><path d="M2844.1846,1111.4191 L2850.9082,1113.5285 Q2849.3701,1119.1096 2845.7666,1121.8342 Q2842.207,1124.5588 2836.6699,1124.5588 Q2829.8584,1124.5588 2825.4639,1119.9006 Q2821.1133,1115.2424 2821.1133,1107.1564 Q2821.1133,1098.6311 2825.5078,1093.9289 Q2829.9023,1089.1828 2837.1094,1089.1828 Q2843.3936,1089.1828 2847.3047,1092.8742 Q2849.6338,1095.0715 2850.8203,1099.2023 L2843.9648,1100.8283 Q2843.3496,1098.1477 2841.416,1096.6096 Q2839.5264,1095.0715 2836.7578,1095.0715 Q2832.9346,1095.0715 2830.5615,1097.84 Q2828.2324,1100.5646 2828.2324,1106.673 Q2828.2324,1113.133 2830.5615,1115.9016 Q2832.8906,1118.6701 2836.626,1118.6701 Q2839.3945,1118.6701 2841.3721,1116.9123 Q2843.3496,1115.1545 2844.1846,1111.4191 Z " fill="#000000"/><text fill="#000000" font-family="Verdana" font-size="39.375" lengthAdjust="spacing" textLength="98.4375" x="2870.1563" y="1122.7721">Moto</text><line style="stroke:#000000;stroke-width:2.8125;" x1="2802.6563" x2="2974.2188" y1="1146.4875" y2="1146.4875"/><line style="stroke:#000000;stroke-width:2.8125;" x1="2802.6563" x2="2974.2188" y1="1168.9875" y2="1168.9875"/></g><!--class Camioneta--><g id="elem_Camioneta"><rect fill="#FFFFFF" height="123.75" id="Camioneta" rx="7.0313" ry="7.0313" style="stroke:#000000;stroke-width:2.8125;" width="286.875" x="3957.1875" y="1067.7375"/><ellipse cx="3993.75" cy="1107.1125" fill="#FFFFFF" rx="25.3125" ry="25.3125" style="stroke:#000000;stroke-width:2.8125;"/><path d="M4001.5283,1111.4191 L4008.252,1113.5285 Q4006.7139,1119.1096 4003.1104,1121.8342 Q3999.5508,1124.5588 3994.0137,1124.5588 Q3987.2021,1124.5588 3982.8076,1119.9006 Q3978.457,1115.2424 3978.457,1107.1564 Q3978.457,1098.6311 3982.8516,1093.9289 Q3987.2461,1089.1828 3994.4531,1089.1828 Q4000.7373,1089.1828 4004.6484,1092.8742 Q4006.9775,1095.0715 4008.1641,1099.2023 L4001.3086,1100.8283 Q4000.6934,1098.1477 3998.7598,1096.6096 Q3996.8701,1095.0715 3994.1016,1095.0715 Q3990.2783,1095.0715 3987.9053,1097.84 Q3985.5762,1100.5646 3985.5762,1106.673 Q3985.5762,1113.133 3987.9053,1115.9016 Q3990.2344,1118.6701 3993.9697,1118.6701 Q3996.7383,1118.6701 3998.7158,1116.9123 Q4000.6934,1115.1545 4001.5283,1111.4191 Z " fill="#000000"/><text fill="#000000" font-family="Verdana" font-size="39.375" lengthAdjust="spacing" textLength="208.125" x="4027.5" y="1122.7721">Camioneta</text><line style="stroke:#000000;stroke-width:2.8125;" x1="3960" x2="4241.25" y1="1146.4875" y2="1146.4875"/><line style="stroke:#000000;stroke-width:2.8125;" x1="3960" x2="4241.25" y1="1168.9875" y2="1168.9875"/></g><g id="elem_GMN28"><path d="M4774.2188,517.8938 L4774.2188,634.8899 L5300.1563,634.8899 L5300.1563,546.0188 L5272.0313,517.8938 L4774.2188,517.8938 " fill="#FFFFFF" style="stroke:#000000;stroke-width:2.8125;"/><path d="M5272.0313,517.8938 L5272.0313,546.0188 L5300.1563,546.0188 L5272.0313,517.8938 " fill="#FFFFFF" style="stroke:#000000;stroke-width:2.8125;"/><text fill="#000000" font-family="Verdana" font-size="36.5625" lengthAdjust="spacing" textLength="466.875" x="4791.0938" y="568.7151">Valida atributos comunes</text><text fill="#000000" font-family="Verdana" font-size="36.5625" lengthAdjust="spacing" textLength="390.9375" x="4791.0938" y="613.1507">a todos los veh&#237;culos</text></g><g id="elem_GMN31"><path d="M2221.875,1386.9563 L2221.875,1503.9524 A0,0 0 0 0 2221.875,1503.9524 L2711.25,1503.9524 A0,0 0 0 0 2711.25,1503.9524 L2711.25,1415.0813 L2683.125,1386.9563 L2340.8156,1386.9563 L1914.8063,1215.7031 L2318.3156,1386.9563 L2221.875,1386.9563 A0,0 0 0 0 2221.875,1386.9563 " fill="#FFFFFF" style="stroke:#000000;stroke-width:2.8125;"/><path d="M2683.125,1386.9563 L2683.125,1415.0813 L2711.25,1415.0813 L2683.125,1386.9563 " fill="#FFFFFF" style="stroke:#000000;stroke-width:2.8125;"/><text fill="#000000" font-family="Verdana" font-size="36.5625" lengthAdjust="spacing" textLength="399.375" x="2238.75" y="1437.7776">Excepci&#243;n para datos</text><text fill="#000000" font-family="Verdana" font-size="36.5625" lengthAdjust="spacing" textLength="430.3125" x="2238.75" y="1482.2132">inv&#225;lidos en formularios</text></g><!--reverse link Exception to DatoErroneoException--><g id="link_Exception_DatoErroneoException"><path d="M1741.2487,1334.0233 C1752.2175,1286.4077 1745.6344,1268.5781 1742.3719,1215.7031 " fill="none" id="Exception-backto-DatoErroneoException" style="stroke:#000000;stroke-width:2.8125;"/><polygon fill="none" points="1729.8844,1383.3563,1757.6931,1337.8114,1724.8044,1330.2352,1729.8844,1383.3563" style="stroke:#000000;stroke-width:2.8125;"/></g><!--link DatoErroneoException to Exception--><g id="link_DatoErroneoException_Exception"><path codeLine="55" d="M1676.1094,1215.7031 C1667.4469,1268.5781 1659.2133,1285.4315 1664.5571,1333.0471 " fill="none" id="DatoErroneoException-to-Exception" style="stroke:#000000;stroke-width:2.8125;"/><polygon fill="none" points="1670.2031,1383.3563,1681.3268,1331.1651,1647.7874,1334.9291,1670.2031,1383.3563" style="stroke:#000000;stroke-width:2.8125;"/></g><!--reverse link Exception to PatenteRepetidaException--><g id="link_Exception_PatenteRepetidaException"><path d="M1510.4892,1499.8815 C1354.1704,1546.569 1146.3188,1614.2906 961.0594,1676.5313 " fill="none" id="Exception-backto-PatenteRepetidaException" style="stroke:#000000;stroke-width:2.8125;"/><polygon fill="none" points="1558.9969,1485.3938,1505.6599,1483.7122,1515.3184,1516.0507,1558.9969,1485.3938" style="stroke:#000000;stroke-width:2.8125;"/></g><!--link PatenteRepetidaException to Exception--><g id="link_PatenteRepetidaException_Exception"><path codeLine="56" d="M1027.125,1676.5875 C1203.4406,1621.5469 1372.1869,1567.416 1510.6744,1519.5192 " fill="none" id="PatenteRepetidaException-to-Exception" style="stroke:#000000;stroke-width:2.8125;"/><polygon fill="none" points="1558.5188,1502.9719,1505.1587,1503.5711,1516.1902,1535.4673,1558.5188,1502.9719" style="stroke:#000000;stroke-width:2.8125;"/></g><!--reverse link Exception to VehiculoAlquiladoException--><g id="link_Exception_VehiculoAlquiladoException"><path d="M1658.6395,1557.9272 C1650.6239,1605.4866 1657.9406,1622.925 1663.7344,1675.9969 " fill="none" id="Exception-backto-VehiculoAlquiladoException" style="stroke:#000000;stroke-width:2.8125;"/><polygon fill="none" points="1667.0531,1508.0063,1641.9992,1555.1227,1675.2798,1560.7317,1667.0531,1508.0063" style="stroke:#000000;stroke-width:2.8125;"/></g><!--link VehiculoAlquiladoException to Exception--><g id="link_VehiculoAlquiladoException_Exception"><path codeLine="57" d="M1730.0531,1675.9969 C1736.1844,1622.925 1743.9035,1605.4021 1735.4098,1557.8427 " fill="none" id="VehiculoAlquiladoException-to-Exception" style="stroke:#000000;stroke-width:2.8125;"/><polygon fill="none" points="1726.5094,1508.0063,1718.7976,1560.8095,1752.022,1554.8759,1726.5094,1508.0063" style="stroke:#000000;stroke-width:2.8125;"/></g><!--link ValidadorAtributosVehiculo to DatoErroneoException--><g id="link_ValidadorAtributosVehiculo_DatoErroneoException"><path codeLine="60" d="M993.7125,830.25 C1037.5594,853.9313 1081.8563,876.825 1125,897.5813 C1237.7531,951.8344 1351.1444,997.4447 1459.6506,1037.8322 " fill="none" id="ValidadorAtributosVehiculo-to-DatoErroneoException" style="stroke:#000000;stroke-width:2.8125;stroke-dasharray:7.0,7.0;"/><polygon fill="#000000" points="1475.4656,1043.7188,1455.6675,1024.3456,1462.2865,1038.8133,1447.8188,1045.4322,1475.4656,1043.7188" style="stroke:#000000;stroke-width:2.8125;"/></g><!--link ValidadorAtributosAuto to DatoErroneoException--><g id="link_ValidadorAtributosAuto_DatoErroneoException"><path codeLine="61" d="M1712.8125,710.8031 C1712.8125,814.1625 1712.8125,938.3063 1712.8125,1026.7313 " fill="none" id="ValidadorAtributosAuto-to-DatoErroneoException" style="stroke:#000000;stroke-width:2.8125;stroke-dasharray:7.0,7.0;"/><polygon fill="#000000" points="1712.8125,1043.6063,1724.0625,1018.2938,1712.8125,1029.5438,1701.5625,1018.2938,1712.8125,1043.6063" style="stroke:#000000;stroke-width:2.8125;"/></g><!--link ValidadorAtributosMoto to DatoErroneoException--><g id="link_ValidadorAtributosMoto_DatoErroneoException"><path codeLine="62" d="M2685.0656,710.7188 C2575.1531,775.9687 2434.8094,850.7531 2300.625,897.5813 C2246.6813,916.3969 2228.6531,903.2625 2174.0625,920.0813 C2070.4781,951.975 1974.6698,993.8081 1887.5386,1036.2206 " fill="none" id="ValidadorAtributosMoto-to-DatoErroneoException" style="stroke:#000000;stroke-width:2.8125;stroke-dasharray:7.0,7.0;"/><polygon fill="#000000" points="1872.3656,1043.6063,1900.0488,1042.643,1885.0097,1037.4515,1890.2012,1022.4125,1872.3656,1043.6063" style="stroke:#000000;stroke-width:2.8125;"/></g><!--link ValidadorAtributosCamioneta to DatoErroneoException--><g id="link_ValidadorAtributosCamioneta_DatoErroneoException"><path codeLine="63" d="M3900.3469,711.2812 C3782.1938,781.1156 3626.7469,860.1188 3476.25,897.5813 C3335.8219,932.5406 2315.3063,888.6094 2174.0625,920.0813 C2063.1375,944.8031 1961.3891,989.637 1873.1048,1035.5651 " fill="none" id="ValidadorAtributosCamioneta-to-DatoErroneoException" style="stroke:#000000;stroke-width:2.8125;stroke-dasharray:7.0,7.0;"/><polygon fill="#000000" points="1858.1344,1043.3531,1885.782,1041.6513,1870.6097,1036.8631,1875.3979,1021.6908,1858.1344,1043.3531" style="stroke:#000000;stroke-width:2.8125;"/></g><!--link ValidadorAtributosAuto to Auto--><g id="link_ValidadorAtributosAuto_Auto"><path codeLine="65" d="M1924.7625,710.5781 C2008.9125,768.5156 2103.0469,841.3875 2176.875,920.0813 C2218.5563,964.5188 2246.8052,1009.0115 2270.7677,1052.6896 " fill="none" id="ValidadorAtributosAuto-to-Auto" style="stroke:#000000;stroke-width:2.8125;stroke-dasharray:7.0,7.0;"/><polygon fill="#000000" points="2278.8844,1067.4844,2276.5726,1039.8811,2272.1205,1055.1554,2256.8462,1050.7033,2278.8844,1067.4844" style="stroke:#000000;stroke-width:2.8125;"/></g><!--link ValidadorAtributosMoto to Moto--><g id="link_ValidadorAtributosMoto_Moto"><path codeLine="66" d="M2888.4375,710.8031 C2888.4375,823.95 2888.4375,965.3906 2888.4375,1050.3563 " fill="none" id="ValidadorAtributosMoto-to-Moto" style="stroke:#000000;stroke-width:2.8125;stroke-dasharray:7.0,7.0;"/><polygon fill="#000000" points="2888.4375,1067.2313,2899.6875,1041.9188,2888.4375,1053.1688,2877.1875,1041.9188,2888.4375,1067.2313" style="stroke:#000000;stroke-width:2.8125;"/></g><!--link ValidadorAtributosCamioneta to Camioneta--><g id="link_ValidadorAtributosCamioneta_Camioneta"><path codeLine="67" d="M4100.625,710.8031 C4100.625,823.95 4100.625,965.3906 4100.625,1050.3563 " fill="none" id="ValidadorAtributosCamioneta-to-Camioneta" style="stroke:#000000;stroke-width:2.8125;stroke-dasharray:7.0,7.0;"/><polygon fill="#000000" points="4100.625,1067.2313,4111.875,1041.9188,4100.625,1053.1688,4089.375,1041.9188,4100.625,1067.2313" style="stroke:#000000;stroke-width:2.8125;"/></g><!--link ValidadorAtributosVehiculo to GMN28--><g id="link_ValidadorAtributosVehiculo_GMN28"><path d="M828.5625,323.2687 C927.7031,240.4406 1047.9938,158.7375 1174.2188,115.7062 C1358.1844,52.9594 4498.0594,30.9375 4672.9688,115.7062 C4847.4281,200.25 4963.5563,413.3813 5011.8188,517.6406 " fill="none" id="ValidadorAtributosVehiculo-GMN28" style="stroke:#000000;stroke-width:2.8125;stroke-dasharray:7.0,7.0;"/></g><!--SRC=[nLRDZjCm4BxdASnUA89KbJYnXvMgRdk1HLL1FN6PsDDajeuds4wrqjA7uG4u81wXBuRJ_ssJjYkq8b8IEvxl-sRiyJYlV8OvYa83cSX9q2WwxG-Hcv8fm48kL47YVQSJHGN8AQGehleF4WjFRDoLU8n4kAG6vyGjUEvRomPvQoBmmQDHJko-h23LzROMqlhYBPdqpRMOCQcbyJpQanb2OFGumW8zARXKgWbsJcwC6SbISrT_Bqc3kZYsPc2jv7nlXiUWWuirKxmQK6oxWI4fFRkDofvq7EzvyUXy899pCLj2xNeQneJtiFRZdJZsfnxSNVpc0IIM9CZwEEfnNwdW7kT9wJmb6bi7_VC4_T1Nl8crzRHx7lwHDEVeBTpZnJuFK6OmA7rfeHNI58SafsWFSV4EX-vJ9T4AiCeiOTO8fjxobbBoN6VwDFUEbhiR7fSkzHrO2HV7-xdCXoLQ3wu14Xz1Hc1I3ZWC2S7RP2BZruzpE-iekZj-gUXwfCae2mh-NtGzoCEcGGyl52A4-b59zi2c_nhcH3FuxQkXNhqM8zJBIe1EA1GPMZII8Aez2UBunyskL4QDPVp0xaJzFR0yyaS5RgDMBfsedEtsJUr153LilsVOBnFw6VQx56a4dVAgQfpoecgSLTtseiYmHs4fpRpWoQd3vtezA60p92JdPLY7RmQ4PnK-w73FC5lygX1kJPwmzvnNxBKvSxrQNacBFqPK_oCY78iSICdC5Z-3Ok148oPiyrA3fS3x5m00]--></g></svg>